G04 #@! TF.FileFunction,Copper,L1,Top,Signal*
%FSLAX46Y46*%
G04 Gerber Fmt 4.6, Leading zero omitted, Abs format (unit mm)*
G04 Created by KiCad (PCBNEW 4.0.2-stable) date 28/03/2016 12:56:49*
%MOMM*%
G01*
G04 APERTURE LIST*
%ADD10C,0.100000*%
%ADD11R,1.000000X1.000000*%
%ADD12C,2.000000*%
%ADD13R,2.000000X2.500000*%
%ADD14R,0.500000X2.250000*%
%ADD15R,2.000000X3.000000*%
%ADD16R,2.000000X1.000000*%
%ADD17R,1.200000X0.300000*%
%ADD18R,0.300000X1.200000*%
%ADD19R,0.600000X0.600000*%
%ADD20R,0.400000X0.600000*%
%ADD21R,2.100000X5.600000*%
%ADD22O,1.750000X3.000000*%
%ADD23C,1.750000*%
%ADD24R,1.000000X3.000000*%
%ADD25R,1.500000X1.300000*%
%ADD26R,1.400000X2.100000*%
%ADD27R,1.300000X1.500000*%
%ADD28R,0.750000X1.200000*%
%ADD29O,3.000000X1.750000*%
%ADD30C,0.600000*%
%ADD31C,0.609600*%
%ADD32C,0.350000*%
%ADD33C,0.500000*%
%ADD34C,0.910000*%
%ADD35C,1.000000*%
%ADD36C,0.304800*%
%ADD37C,0.400000*%
%ADD38C,0.254000*%
G04 APERTURE END LIST*
D10*
D11*
X108430000Y-138920000D03*
X106430000Y-138920000D03*
X112510000Y-138650000D03*
X112510000Y-136650000D03*
X112510000Y-131570000D03*
X112510000Y-133570000D03*
X108430000Y-128760000D03*
X106430000Y-128760000D03*
X130020000Y-108186000D03*
X128020000Y-108186000D03*
X142482000Y-115568000D03*
X142482000Y-117568000D03*
X131925000Y-115425000D03*
X129925000Y-115425000D03*
X143260000Y-107805000D03*
X145260000Y-107805000D03*
X131544000Y-105900000D03*
X129544000Y-105900000D03*
D12*
X108700000Y-145270000D03*
X103620000Y-145270000D03*
X134100000Y-145270000D03*
X129020000Y-145270000D03*
X123940000Y-145270000D03*
D13*
X147440000Y-140650000D03*
X147440000Y-146100000D03*
X138540000Y-140650000D03*
X138540000Y-146100000D03*
D14*
X142990000Y-140555000D03*
X142190000Y-140555000D03*
X141390000Y-140555000D03*
X143790000Y-140555000D03*
X144590000Y-140555000D03*
D11*
X134465000Y-102725000D03*
X132465000Y-102725000D03*
X142990000Y-136745000D03*
X142990000Y-134745000D03*
X140450000Y-136745000D03*
X140450000Y-134745000D03*
D15*
X103160000Y-133840000D03*
D16*
X109160000Y-133840000D03*
X109160000Y-131840000D03*
X109160000Y-135840000D03*
D17*
X132390000Y-107595000D03*
X132390000Y-108095000D03*
X132390000Y-108595000D03*
X132390000Y-109095000D03*
X132390000Y-109595000D03*
X132390000Y-110095000D03*
X132390000Y-110595000D03*
X132390000Y-111095000D03*
X132390000Y-111595000D03*
X132390000Y-112095000D03*
X132390000Y-112595000D03*
X132390000Y-113095000D03*
D18*
X139390000Y-114595000D03*
X138890000Y-114595000D03*
X138390000Y-114595000D03*
X137890000Y-114595000D03*
X137390000Y-114595000D03*
X136890000Y-114595000D03*
X136390000Y-114595000D03*
X135890000Y-114595000D03*
X135390000Y-114595000D03*
X134890000Y-114595000D03*
X134390000Y-114595000D03*
X133890000Y-114595000D03*
X139390000Y-106095000D03*
X138890000Y-106095000D03*
X138390000Y-106095000D03*
X137890000Y-106095000D03*
X137390000Y-106095000D03*
X136890000Y-106095000D03*
X136390000Y-106095000D03*
X135890000Y-106095000D03*
X135390000Y-106095000D03*
X134890000Y-106095000D03*
X134390000Y-106095000D03*
X133890000Y-106095000D03*
D17*
X140890000Y-107595000D03*
X140890000Y-108095000D03*
X140890000Y-108595000D03*
X140890000Y-109095000D03*
X140890000Y-109595000D03*
X140890000Y-110095000D03*
X140890000Y-110595000D03*
X140890000Y-111095000D03*
X140890000Y-111595000D03*
X140890000Y-112095000D03*
X140890000Y-112595000D03*
X140890000Y-113095000D03*
D19*
X137390000Y-134740000D03*
X137390000Y-132940000D03*
X135890000Y-132940000D03*
X135890000Y-134740000D03*
D20*
X136640000Y-134740000D03*
D21*
X120638000Y-104706000D03*
X120638000Y-114206000D03*
D22*
X129655000Y-102725000D03*
X127115000Y-102725000D03*
X148070000Y-102725000D03*
X140450000Y-102725000D03*
X137910000Y-102725000D03*
X142990000Y-102725000D03*
X145530000Y-102725000D03*
D23*
X103620000Y-117330000D03*
X106160000Y-117330000D03*
X106160000Y-124950000D03*
X103620000Y-124950000D03*
X103620000Y-122410000D03*
X106160000Y-122410000D03*
X106160000Y-119870000D03*
X103620000Y-119870000D03*
D24*
X111875000Y-120410000D03*
X111875000Y-124410000D03*
D11*
X133465000Y-134840000D03*
X133465000Y-132840000D03*
D24*
X116320000Y-147270000D03*
X116320000Y-143270000D03*
D22*
X106160000Y-113520000D03*
X103620000Y-113520000D03*
D25*
X120210000Y-124950000D03*
X117510000Y-124950000D03*
X129100000Y-124950000D03*
X126400000Y-124950000D03*
D26*
X121110000Y-128840000D03*
X121110000Y-138840000D03*
X116610000Y-128840000D03*
X116610000Y-138840000D03*
X130000000Y-128840000D03*
X130000000Y-138840000D03*
X125500000Y-128840000D03*
X125500000Y-138840000D03*
D27*
X134100000Y-125665000D03*
X134100000Y-122965000D03*
X136640000Y-125665000D03*
X136640000Y-122965000D03*
D11*
X134100000Y-130395000D03*
X134100000Y-128395000D03*
X136640000Y-130395000D03*
X136640000Y-128395000D03*
D28*
X124956000Y-106220000D03*
X124956000Y-108120000D03*
X124956000Y-110538000D03*
X124956000Y-112438000D03*
D29*
X146800000Y-132570000D03*
X146800000Y-135110000D03*
X146800000Y-130030000D03*
X146800000Y-127490000D03*
D25*
X139608000Y-120124000D03*
X142308000Y-120124000D03*
D27*
X139942000Y-127918000D03*
X139942000Y-130618000D03*
D30*
X139942000Y-117584000D03*
D31*
X145784000Y-138158000D03*
X139180000Y-108186000D03*
X134100000Y-104376000D03*
X139180000Y-112758000D03*
X134862000Y-109964000D03*
X128004000Y-115552000D03*
X131560000Y-104630000D03*
X138672000Y-116314000D03*
X132068000Y-117584000D03*
X143244000Y-106154000D03*
D30*
X129020000Y-111234000D03*
D31*
X143244000Y-110726000D03*
X142482000Y-111234000D03*
X110986000Y-127744000D03*
X131814000Y-126982000D03*
X136894000Y-118092000D03*
D30*
X123178000Y-128760000D03*
D31*
X136132000Y-117076000D03*
X131560000Y-124950000D03*
D32*
X136640000Y-134740000D02*
X136640000Y-133840000D01*
X134354000Y-133840000D02*
X133465000Y-134729000D01*
X136640000Y-133840000D02*
X134354000Y-133840000D01*
X133465000Y-134729000D02*
X133465000Y-134840000D01*
D33*
X123940000Y-145270000D02*
X125464000Y-145270000D01*
X133465000Y-138539000D02*
X133465000Y-134840000D01*
X130290000Y-141714000D02*
X133465000Y-138539000D01*
X129020000Y-141714000D02*
X130290000Y-141714000D01*
X125464000Y-145270000D02*
X129020000Y-141714000D01*
D34*
X108430000Y-138920000D02*
X108430000Y-136570000D01*
X108430000Y-136570000D02*
X109160000Y-135840000D01*
X108700000Y-145270000D02*
X108430000Y-145000000D01*
X108430000Y-145000000D02*
X108430000Y-138920000D01*
D35*
X112510000Y-138650000D02*
X112240000Y-138920000D01*
X112240000Y-138920000D02*
X108430000Y-138920000D01*
X116320000Y-147270000D02*
X121940000Y-147270000D01*
X121940000Y-147270000D02*
X123940000Y-145270000D01*
X108700000Y-145270000D02*
X110700000Y-147270000D01*
X110700000Y-147270000D02*
X116320000Y-147270000D01*
D36*
X139608000Y-120124000D02*
X139608000Y-117918000D01*
X139608000Y-117918000D02*
X139942000Y-117584000D01*
X144590000Y-140555000D02*
X144590000Y-139098000D01*
X145530000Y-138158000D02*
X145784000Y-138158000D01*
X144590000Y-139098000D02*
X145530000Y-138158000D01*
X140890000Y-108095000D02*
X139271000Y-108095000D01*
X139271000Y-108095000D02*
X139180000Y-108186000D01*
X134390000Y-106095000D02*
X134390000Y-104666000D01*
X134100000Y-104376000D02*
X132465000Y-102741000D01*
X134390000Y-104666000D02*
X134100000Y-104376000D01*
X132465000Y-102725000D02*
X132465000Y-102741000D01*
X138890000Y-114595000D02*
X138890000Y-113048000D01*
X138890000Y-113048000D02*
X139180000Y-112758000D01*
X132390000Y-111095000D02*
X133731000Y-111095000D01*
X133731000Y-111095000D02*
X134862000Y-109964000D01*
D34*
X129925000Y-115425000D02*
X128131000Y-115425000D01*
X128131000Y-115425000D02*
X128004000Y-115552000D01*
D32*
X142482000Y-115568000D02*
X139390000Y-115568000D01*
X139390000Y-115568000D02*
X139390000Y-115596000D01*
D34*
X131544000Y-105900000D02*
X131544000Y-104646000D01*
X131544000Y-104646000D02*
X131560000Y-104630000D01*
X131925000Y-115425000D02*
X131925000Y-117441000D01*
X131925000Y-117441000D02*
X132068000Y-117584000D01*
D36*
X139390000Y-114595000D02*
X139390000Y-115596000D01*
X139390000Y-115596000D02*
X138672000Y-116314000D01*
D34*
X132068000Y-117584000D02*
X131925000Y-117727000D01*
X126400000Y-123252000D02*
X131925000Y-117727000D01*
X126400000Y-124950000D02*
X126400000Y-123252000D01*
X143260000Y-107805000D02*
X143260000Y-106170000D01*
X143260000Y-106170000D02*
X143244000Y-106154000D01*
X131544000Y-105900000D02*
X131544000Y-106662000D01*
X131544000Y-106662000D02*
X130020000Y-108186000D01*
D36*
X132390000Y-111595000D02*
X133445000Y-111595000D01*
X133846000Y-113266000D02*
X131925000Y-115187000D01*
X133846000Y-111996000D02*
X133846000Y-113266000D01*
X133445000Y-111595000D02*
X133846000Y-111996000D01*
X131925000Y-115187000D02*
X131925000Y-115425000D01*
X132390000Y-107595000D02*
X130611000Y-107595000D01*
X130611000Y-107595000D02*
X130020000Y-108186000D01*
X133890000Y-106095000D02*
X131739000Y-106095000D01*
X131739000Y-106095000D02*
X131544000Y-105900000D01*
X140890000Y-107595000D02*
X143050000Y-107595000D01*
X143050000Y-107595000D02*
X143260000Y-107805000D01*
D34*
X106160000Y-122410000D02*
X109208000Y-122410000D01*
X109716000Y-121902000D02*
X109716000Y-119870000D01*
X109208000Y-122410000D02*
X109716000Y-121902000D01*
X106160000Y-119870000D02*
X106160000Y-117330000D01*
X134100000Y-130395000D02*
X133449000Y-131046000D01*
X127496000Y-126046000D02*
X126400000Y-124950000D01*
X127496000Y-129776000D02*
X127496000Y-126046000D01*
X128766000Y-131046000D02*
X127496000Y-129776000D01*
X133449000Y-131046000D02*
X128766000Y-131046000D01*
X136640000Y-130395000D02*
X134100000Y-130395000D01*
X126400000Y-124950000D02*
X123860000Y-122410000D01*
X120050000Y-122410000D02*
X117510000Y-124950000D01*
X123860000Y-122410000D02*
X120050000Y-122410000D01*
X117510000Y-124950000D02*
X114034000Y-124950000D01*
X111875000Y-120410000D02*
X111335000Y-119870000D01*
X111335000Y-119870000D02*
X109716000Y-119870000D01*
X109716000Y-119870000D02*
X106160000Y-119870000D01*
X112510000Y-131570000D02*
X114034000Y-130046000D01*
X114034000Y-122569000D02*
X111875000Y-120410000D01*
X114034000Y-130046000D02*
X114034000Y-124950000D01*
X114034000Y-124950000D02*
X114034000Y-122569000D01*
X108430000Y-128760000D02*
X109160000Y-129490000D01*
X109160000Y-129490000D02*
X109160000Y-131840000D01*
X109160000Y-131840000D02*
X109430000Y-131570000D01*
X109430000Y-131570000D02*
X112510000Y-131570000D01*
D36*
X140450000Y-102725000D02*
X140450000Y-106408000D01*
X140041000Y-108595000D02*
X140890000Y-108595000D01*
X139688000Y-108948000D02*
X140041000Y-108595000D01*
X138926000Y-108948000D02*
X139688000Y-108948000D01*
X138418000Y-108440000D02*
X138926000Y-108948000D01*
X138418000Y-107678000D02*
X138418000Y-108440000D01*
X138672000Y-107424000D02*
X138418000Y-107678000D01*
X139434000Y-107424000D02*
X138672000Y-107424000D01*
X140450000Y-106408000D02*
X139434000Y-107424000D01*
X139390000Y-106095000D02*
X139390000Y-104840000D01*
X145530000Y-101074000D02*
X145530000Y-102725000D01*
X145022000Y-100566000D02*
X145530000Y-101074000D01*
X139688000Y-100566000D02*
X145022000Y-100566000D01*
X139180000Y-101074000D02*
X139688000Y-100566000D01*
X139180000Y-104630000D02*
X139180000Y-101074000D01*
X139390000Y-104840000D02*
X139180000Y-104630000D01*
X132390000Y-110595000D02*
X129659000Y-110595000D01*
X129659000Y-110595000D02*
X129020000Y-111234000D01*
X140890000Y-110095000D02*
X142613000Y-110095000D01*
X142613000Y-110095000D02*
X143244000Y-110726000D01*
X140890000Y-110595000D02*
X141843000Y-110595000D01*
X141843000Y-110595000D02*
X142482000Y-111234000D01*
D33*
X129020000Y-145270000D02*
X135878000Y-138412000D01*
X135878000Y-138412000D02*
X135878000Y-134752000D01*
D37*
X135878000Y-134752000D02*
X135890000Y-134740000D01*
D36*
X141974000Y-133332000D02*
X141974000Y-124696000D01*
X141974000Y-124696000D02*
X143498000Y-123172000D01*
X141974000Y-133332000D02*
X142990000Y-134348000D01*
X144153000Y-109095000D02*
X145022000Y-109964000D01*
X145022000Y-109964000D02*
X145022000Y-121648000D01*
X145022000Y-121648000D02*
X143498000Y-123172000D01*
X140890000Y-109095000D02*
X144153000Y-109095000D01*
X142990000Y-134745000D02*
X142990000Y-134348000D01*
X140890000Y-109069802D02*
X140890000Y-109095000D01*
X141466000Y-133332000D02*
X141466000Y-124188000D01*
X143637000Y-109595000D02*
X144514000Y-110472000D01*
X144514000Y-110472000D02*
X144514000Y-121140000D01*
X144514000Y-121140000D02*
X142482000Y-123172000D01*
X140890000Y-109595000D02*
X143637000Y-109595000D01*
X141466000Y-133332000D02*
X140450000Y-134348000D01*
X141466000Y-124188000D02*
X142482000Y-123172000D01*
X140450000Y-134745000D02*
X140450000Y-134348000D01*
X132390000Y-113095000D02*
X128429000Y-113095000D01*
X105144000Y-115806000D02*
X103620000Y-117330000D01*
X114034000Y-115806000D02*
X105144000Y-115806000D01*
X116828000Y-118600000D02*
X114034000Y-115806000D01*
X122924000Y-118600000D02*
X116828000Y-118600000D01*
X128429000Y-113095000D02*
X122924000Y-118600000D01*
D37*
X137390000Y-132940000D02*
X137390000Y-134740000D01*
D36*
X135390000Y-114595000D02*
X135390000Y-117858000D01*
X138164000Y-132166000D02*
X137390000Y-132940000D01*
X138164000Y-120632000D02*
X138164000Y-132166000D01*
X135390000Y-117858000D02*
X138164000Y-120632000D01*
X133890000Y-114595000D02*
X133890000Y-120334000D01*
X107938000Y-124950000D02*
X106160000Y-124950000D01*
X110732000Y-127744000D02*
X107938000Y-124950000D01*
X110986000Y-127744000D02*
X110732000Y-127744000D01*
X132322000Y-126474000D02*
X131814000Y-126982000D01*
X132322000Y-121902000D02*
X132322000Y-126474000D01*
X133890000Y-120334000D02*
X132322000Y-121902000D01*
X120638000Y-104706000D02*
X121542000Y-104706000D01*
X121542000Y-104706000D02*
X124956000Y-108120000D01*
X132390000Y-109595000D02*
X126431000Y-109595000D01*
X126431000Y-109595000D02*
X124956000Y-108120000D01*
X124956000Y-110538000D02*
X121288000Y-114206000D01*
X121288000Y-114206000D02*
X120638000Y-114206000D01*
X132390000Y-110095000D02*
X125399000Y-110095000D01*
X125399000Y-110095000D02*
X124956000Y-110538000D01*
D33*
X142190000Y-140555000D02*
X142190000Y-138485000D01*
X142190000Y-138485000D02*
X140450000Y-136745000D01*
D36*
X135890000Y-106095000D02*
X135890000Y-104150000D01*
X135890000Y-104150000D02*
X134465000Y-102725000D01*
D37*
X129655000Y-102725000D02*
X131052000Y-101328000D01*
X133068000Y-101328000D02*
X134465000Y-102725000D01*
X131052000Y-101328000D02*
X133068000Y-101328000D01*
D33*
X142990000Y-140555000D02*
X142990000Y-136745000D01*
D37*
X103620000Y-119870000D02*
X102096000Y-119870000D01*
X102096000Y-113520000D02*
X103620000Y-113520000D01*
X101588000Y-114028000D02*
X102096000Y-113520000D01*
X101588000Y-119362000D02*
X101588000Y-114028000D01*
X102096000Y-119870000D02*
X101588000Y-119362000D01*
D36*
X123098000Y-128840000D02*
X123178000Y-128760000D01*
X121110000Y-128840000D02*
X123098000Y-128840000D01*
X136890000Y-118088000D02*
X136890000Y-114595000D01*
X136894000Y-118092000D02*
X136890000Y-118088000D01*
X121110000Y-128840000D02*
X121110000Y-128796000D01*
D34*
X121110000Y-128840000D02*
X121110000Y-125850000D01*
X121110000Y-125850000D02*
X120210000Y-124950000D01*
D36*
X136390000Y-114595000D02*
X136390000Y-116818000D01*
X131560000Y-124950000D02*
X129100000Y-124950000D01*
X136390000Y-116818000D02*
X136132000Y-117076000D01*
D34*
X130000000Y-128840000D02*
X130000000Y-125850000D01*
X130000000Y-125850000D02*
X129100000Y-124950000D01*
X134100000Y-125665000D02*
X134100000Y-128395000D01*
D36*
X134390000Y-114595000D02*
X134390000Y-122675000D01*
X134390000Y-122675000D02*
X134100000Y-122965000D01*
D34*
X136640000Y-125665000D02*
X136640000Y-128395000D01*
D36*
X134890000Y-114595000D02*
X134890000Y-118374000D01*
X136640000Y-120124000D02*
X136640000Y-122965000D01*
X134890000Y-118374000D02*
X136640000Y-120124000D01*
D32*
X139942000Y-130618000D02*
X139942000Y-132316000D01*
D36*
X138926000Y-133332000D02*
X139942000Y-132316000D01*
X138926000Y-137396000D02*
X138926000Y-133332000D01*
X138926000Y-137396000D02*
X141390000Y-139860000D01*
X141390000Y-140555000D02*
X141390000Y-139860000D01*
X140890000Y-113095000D02*
X143581000Y-113095000D01*
X143498000Y-120124000D02*
X142308000Y-120124000D01*
X144006000Y-119616000D02*
X143498000Y-120124000D01*
X144006000Y-113520000D02*
X144006000Y-119616000D01*
X143581000Y-113095000D02*
X144006000Y-113520000D01*
D32*
X142308000Y-120124000D02*
X142308000Y-121822000D01*
X139942000Y-124188000D02*
X141974000Y-122156000D01*
X139942000Y-124188000D02*
X139942000Y-127918000D01*
X142308000Y-121822000D02*
X141974000Y-122156000D01*
D38*
G36*
X143117000Y-102598000D02*
X143137000Y-102598000D01*
X143137000Y-102852000D01*
X143117000Y-102852000D01*
X143117000Y-104695269D01*
X143350816Y-104816258D01*
X143450519Y-104793659D01*
X143967928Y-104507534D01*
X144254281Y-104148282D01*
X144462269Y-104459558D01*
X144952148Y-104786885D01*
X145530000Y-104901827D01*
X146107852Y-104786885D01*
X146597731Y-104459558D01*
X146800000Y-104156841D01*
X147002269Y-104459558D01*
X147492148Y-104786885D01*
X148070000Y-104901827D01*
X148647852Y-104786885D01*
X149137731Y-104459558D01*
X149290000Y-104231672D01*
X149290000Y-149290000D01*
X117184554Y-149290000D01*
X117271441Y-149234090D01*
X117416431Y-149021890D01*
X117467440Y-148770000D01*
X117467440Y-148405000D01*
X121940000Y-148405000D01*
X122374346Y-148318603D01*
X122742566Y-148072566D01*
X123910157Y-146904975D01*
X124263795Y-146905284D01*
X124864943Y-146656894D01*
X125325278Y-146197363D01*
X125342869Y-146155000D01*
X125463995Y-146155000D01*
X125464000Y-146155001D01*
X125790775Y-146090000D01*
X125802675Y-146087633D01*
X126089790Y-145895790D01*
X127628885Y-144356695D01*
X127385284Y-144943352D01*
X127384716Y-145593795D01*
X127633106Y-146194943D01*
X128092637Y-146655278D01*
X128693352Y-146904716D01*
X129343795Y-146905284D01*
X129944943Y-146656894D01*
X130179715Y-146422532D01*
X133127073Y-146422532D01*
X133225736Y-146689387D01*
X133835461Y-146915908D01*
X134485460Y-146891856D01*
X134974264Y-146689387D01*
X135072927Y-146422532D01*
X134100000Y-145449605D01*
X133127073Y-146422532D01*
X130179715Y-146422532D01*
X130405278Y-146197363D01*
X130654716Y-145596648D01*
X130655232Y-145005461D01*
X132454092Y-145005461D01*
X132478144Y-145655460D01*
X132680613Y-146144264D01*
X132947468Y-146242927D01*
X133920395Y-145270000D01*
X134279605Y-145270000D01*
X135252532Y-146242927D01*
X135519387Y-146144264D01*
X135745908Y-145534539D01*
X135721856Y-144884540D01*
X135707550Y-144850000D01*
X136892560Y-144850000D01*
X136892560Y-147350000D01*
X136936838Y-147585317D01*
X137075910Y-147801441D01*
X137288110Y-147946431D01*
X137540000Y-147997440D01*
X139540000Y-147997440D01*
X139775317Y-147953162D01*
X139991441Y-147814090D01*
X140136431Y-147601890D01*
X140187440Y-147350000D01*
X140187440Y-144850000D01*
X145792560Y-144850000D01*
X145792560Y-147350000D01*
X145836838Y-147585317D01*
X145975910Y-147801441D01*
X146188110Y-147946431D01*
X146440000Y-147997440D01*
X148440000Y-147997440D01*
X148675317Y-147953162D01*
X148891441Y-147814090D01*
X149036431Y-147601890D01*
X149087440Y-147350000D01*
X149087440Y-144850000D01*
X149043162Y-144614683D01*
X148904090Y-144398559D01*
X148691890Y-144253569D01*
X148440000Y-144202560D01*
X146440000Y-144202560D01*
X146204683Y-144246838D01*
X145988559Y-144385910D01*
X145843569Y-144598110D01*
X145792560Y-144850000D01*
X140187440Y-144850000D01*
X140143162Y-144614683D01*
X140004090Y-144398559D01*
X139791890Y-144253569D01*
X139540000Y-144202560D01*
X137540000Y-144202560D01*
X137304683Y-144246838D01*
X137088559Y-144385910D01*
X136943569Y-144598110D01*
X136892560Y-144850000D01*
X135707550Y-144850000D01*
X135519387Y-144395736D01*
X135252532Y-144297073D01*
X134279605Y-145270000D01*
X133920395Y-145270000D01*
X132947468Y-144297073D01*
X132680613Y-144395736D01*
X132454092Y-145005461D01*
X130655232Y-145005461D01*
X130655284Y-144946205D01*
X130637768Y-144903812D01*
X131424111Y-144117468D01*
X133127073Y-144117468D01*
X134100000Y-145090395D01*
X135072927Y-144117468D01*
X134974264Y-143850613D01*
X134364539Y-143624092D01*
X133714540Y-143648144D01*
X133225736Y-143850613D01*
X133127073Y-144117468D01*
X131424111Y-144117468D01*
X136503787Y-139037792D01*
X136503790Y-139037790D01*
X136674328Y-138782560D01*
X136695634Y-138750674D01*
X136763001Y-138412000D01*
X136763000Y-138411995D01*
X136763000Y-135687440D01*
X136840000Y-135687440D01*
X136969589Y-135663056D01*
X137090000Y-135687440D01*
X137690000Y-135687440D01*
X137925317Y-135643162D01*
X138138600Y-135505918D01*
X138138600Y-137396000D01*
X138198537Y-137697325D01*
X138369224Y-137952776D01*
X139169008Y-138752560D01*
X137540000Y-138752560D01*
X137304683Y-138796838D01*
X137088559Y-138935910D01*
X136943569Y-139148110D01*
X136892560Y-139400000D01*
X136892560Y-141900000D01*
X136936838Y-142135317D01*
X137075910Y-142351441D01*
X137288110Y-142496431D01*
X137540000Y-142547440D01*
X139540000Y-142547440D01*
X139775317Y-142503162D01*
X139991441Y-142364090D01*
X140136431Y-142151890D01*
X140187440Y-141900000D01*
X140187440Y-139770992D01*
X140492560Y-140076112D01*
X140492560Y-141680000D01*
X140536838Y-141915317D01*
X140668480Y-142119894D01*
X140570176Y-142119808D01*
X140162057Y-142288439D01*
X139849537Y-142600415D01*
X139680193Y-143008239D01*
X139679808Y-143449824D01*
X139848439Y-143857943D01*
X140160415Y-144170463D01*
X140568239Y-144339807D01*
X141009824Y-144340192D01*
X141417943Y-144171561D01*
X141730463Y-143859585D01*
X141899807Y-143451761D01*
X141900192Y-143010176D01*
X141731561Y-142602057D01*
X141457422Y-142327440D01*
X141640000Y-142327440D01*
X141795507Y-142298179D01*
X141940000Y-142327440D01*
X142440000Y-142327440D01*
X142595507Y-142298179D01*
X142740000Y-142327440D01*
X143240000Y-142327440D01*
X143395507Y-142298179D01*
X143540000Y-142327440D01*
X144040000Y-142327440D01*
X144180087Y-142301081D01*
X144213691Y-142315000D01*
X144306250Y-142315000D01*
X144451384Y-142169866D01*
X144462998Y-142162393D01*
X144462998Y-142315000D01*
X144535450Y-142315000D01*
X144249537Y-142600415D01*
X144080193Y-143008239D01*
X144079808Y-143449824D01*
X144248439Y-143857943D01*
X144560415Y-144170463D01*
X144968239Y-144339807D01*
X145409824Y-144340192D01*
X145817943Y-144171561D01*
X146130463Y-143859585D01*
X146299807Y-143451761D01*
X146300192Y-143010176D01*
X146131561Y-142602057D01*
X145819585Y-142289537D01*
X145411761Y-142120193D01*
X145297932Y-142120094D01*
X145378327Y-142039699D01*
X145475000Y-141806310D01*
X145475000Y-140840750D01*
X145316250Y-140682000D01*
X144715000Y-140682000D01*
X144715000Y-140702000D01*
X144687440Y-140702000D01*
X144687440Y-139430000D01*
X144643162Y-139194683D01*
X144504090Y-138978559D01*
X144467781Y-138953750D01*
X144715000Y-138953750D01*
X144715000Y-140428000D01*
X145316250Y-140428000D01*
X145475000Y-140269250D01*
X145475000Y-139400000D01*
X145792560Y-139400000D01*
X145792560Y-141900000D01*
X145836838Y-142135317D01*
X145975910Y-142351441D01*
X146188110Y-142496431D01*
X146440000Y-142547440D01*
X148440000Y-142547440D01*
X148675317Y-142503162D01*
X148891441Y-142364090D01*
X149036431Y-142151890D01*
X149087440Y-141900000D01*
X149087440Y-139400000D01*
X149043162Y-139164683D01*
X148904090Y-138948559D01*
X148691890Y-138803569D01*
X148440000Y-138752560D01*
X146440000Y-138752560D01*
X146204683Y-138796838D01*
X145988559Y-138935910D01*
X145843569Y-139148110D01*
X145792560Y-139400000D01*
X145475000Y-139400000D01*
X145475000Y-139303690D01*
X145378327Y-139070301D01*
X145199698Y-138891673D01*
X144966309Y-138795000D01*
X144873750Y-138795000D01*
X144715000Y-138953750D01*
X144467781Y-138953750D01*
X144459001Y-138947751D01*
X144306250Y-138795000D01*
X144213691Y-138795000D01*
X144176829Y-138810269D01*
X144040000Y-138782560D01*
X143875000Y-138782560D01*
X143875000Y-137751844D01*
X143941441Y-137709090D01*
X144086431Y-137496890D01*
X144137440Y-137245000D01*
X144137440Y-136245000D01*
X144093162Y-136009683D01*
X143954090Y-135793559D01*
X143884289Y-135745866D01*
X143941441Y-135709090D01*
X144086431Y-135496890D01*
X144137440Y-135245000D01*
X144137440Y-134245000D01*
X144093162Y-134009683D01*
X143954090Y-133793559D01*
X143741890Y-133648569D01*
X143490000Y-133597560D01*
X143353112Y-133597560D01*
X142761400Y-133005848D01*
X142761400Y-130030000D01*
X144623173Y-130030000D01*
X144738115Y-130607852D01*
X145065442Y-131097731D01*
X145368159Y-131300000D01*
X145065442Y-131502269D01*
X144738115Y-131992148D01*
X144623173Y-132570000D01*
X144738115Y-133147852D01*
X145065442Y-133637731D01*
X145368159Y-133840000D01*
X145065442Y-134042269D01*
X144738115Y-134532148D01*
X144623173Y-135110000D01*
X144738115Y-135687852D01*
X145065442Y-136177731D01*
X145555321Y-136505058D01*
X146133173Y-136620000D01*
X147466827Y-136620000D01*
X148044679Y-136505058D01*
X148534558Y-136177731D01*
X148861885Y-135687852D01*
X148976827Y-135110000D01*
X148861885Y-134532148D01*
X148534558Y-134042269D01*
X148231841Y-133840000D01*
X148534558Y-133637731D01*
X148861885Y-133147852D01*
X148976827Y-132570000D01*
X148861885Y-131992148D01*
X148534558Y-131502269D01*
X148231841Y-131300000D01*
X148534558Y-131097731D01*
X148861885Y-130607852D01*
X148976827Y-130030000D01*
X148861885Y-129452148D01*
X148534558Y-128962269D01*
X148223282Y-128754281D01*
X148582534Y-128467928D01*
X148868659Y-127950519D01*
X148891258Y-127850816D01*
X148770269Y-127617000D01*
X146927000Y-127617000D01*
X146927000Y-127637000D01*
X146673000Y-127637000D01*
X146673000Y-127617000D01*
X144829731Y-127617000D01*
X144708742Y-127850816D01*
X144731341Y-127950519D01*
X145017466Y-128467928D01*
X145376718Y-128754281D01*
X145065442Y-128962269D01*
X144738115Y-129452148D01*
X144623173Y-130030000D01*
X142761400Y-130030000D01*
X142761400Y-127129184D01*
X144708742Y-127129184D01*
X144829731Y-127363000D01*
X146673000Y-127363000D01*
X146673000Y-125980000D01*
X146927000Y-125980000D01*
X146927000Y-127363000D01*
X148770269Y-127363000D01*
X148891258Y-127129184D01*
X148868659Y-127029481D01*
X148582534Y-126512072D01*
X148120185Y-126143543D01*
X147552000Y-125980000D01*
X146927000Y-125980000D01*
X146673000Y-125980000D01*
X146048000Y-125980000D01*
X145479815Y-126143543D01*
X145017466Y-126512072D01*
X144731341Y-127029481D01*
X144708742Y-127129184D01*
X142761400Y-127129184D01*
X142761400Y-125022152D01*
X145578776Y-122204776D01*
X145749463Y-121949325D01*
X145809400Y-121648000D01*
X145809400Y-109964000D01*
X145749463Y-109662675D01*
X145578776Y-109407224D01*
X145042901Y-108871349D01*
X145133000Y-108781250D01*
X145133000Y-107932000D01*
X145387000Y-107932000D01*
X145387000Y-108781250D01*
X145545750Y-108940000D01*
X145886309Y-108940000D01*
X146119698Y-108843327D01*
X146298327Y-108664699D01*
X146395000Y-108431310D01*
X146395000Y-108090750D01*
X146236250Y-107932000D01*
X145387000Y-107932000D01*
X145133000Y-107932000D01*
X145113000Y-107932000D01*
X145113000Y-107678000D01*
X145133000Y-107678000D01*
X145133000Y-106828750D01*
X145387000Y-106828750D01*
X145387000Y-107678000D01*
X146236250Y-107678000D01*
X146395000Y-107519250D01*
X146395000Y-107178690D01*
X146298327Y-106945301D01*
X146119698Y-106766673D01*
X145886309Y-106670000D01*
X145545750Y-106670000D01*
X145387000Y-106828750D01*
X145133000Y-106828750D01*
X144974250Y-106670000D01*
X144633691Y-106670000D01*
X144400302Y-106766673D01*
X144350000Y-106816975D01*
X144350000Y-106170000D01*
X144267029Y-105752875D01*
X144218694Y-105680537D01*
X144030746Y-105399253D01*
X144014746Y-105383254D01*
X143661125Y-105146971D01*
X143244000Y-105064001D01*
X142826875Y-105146971D01*
X142473254Y-105383254D01*
X142236971Y-105736875D01*
X142154001Y-106154000D01*
X142170000Y-106234434D01*
X142170000Y-106807600D01*
X141539579Y-106807600D01*
X141490000Y-106797560D01*
X141118506Y-106797560D01*
X141177463Y-106709325D01*
X141237400Y-106408000D01*
X141237400Y-104646869D01*
X141517731Y-104459558D01*
X141725719Y-104148282D01*
X142012072Y-104507534D01*
X142529481Y-104793659D01*
X142629184Y-104816258D01*
X142863000Y-104695269D01*
X142863000Y-102852000D01*
X142843000Y-102852000D01*
X142843000Y-102598000D01*
X142863000Y-102598000D01*
X142863000Y-102578000D01*
X143117000Y-102578000D01*
X143117000Y-102598000D01*
X143117000Y-102598000D01*
G37*
X143117000Y-102598000D02*
X143137000Y-102598000D01*
X143137000Y-102852000D01*
X143117000Y-102852000D01*
X143117000Y-104695269D01*
X143350816Y-104816258D01*
X143450519Y-104793659D01*
X143967928Y-104507534D01*
X144254281Y-104148282D01*
X144462269Y-104459558D01*
X144952148Y-104786885D01*
X145530000Y-104901827D01*
X146107852Y-104786885D01*
X146597731Y-104459558D01*
X146800000Y-104156841D01*
X147002269Y-104459558D01*
X147492148Y-104786885D01*
X148070000Y-104901827D01*
X148647852Y-104786885D01*
X149137731Y-104459558D01*
X149290000Y-104231672D01*
X149290000Y-149290000D01*
X117184554Y-149290000D01*
X117271441Y-149234090D01*
X117416431Y-149021890D01*
X117467440Y-148770000D01*
X117467440Y-148405000D01*
X121940000Y-148405000D01*
X122374346Y-148318603D01*
X122742566Y-148072566D01*
X123910157Y-146904975D01*
X124263795Y-146905284D01*
X124864943Y-146656894D01*
X125325278Y-146197363D01*
X125342869Y-146155000D01*
X125463995Y-146155000D01*
X125464000Y-146155001D01*
X125790775Y-146090000D01*
X125802675Y-146087633D01*
X126089790Y-145895790D01*
X127628885Y-144356695D01*
X127385284Y-144943352D01*
X127384716Y-145593795D01*
X127633106Y-146194943D01*
X128092637Y-146655278D01*
X128693352Y-146904716D01*
X129343795Y-146905284D01*
X129944943Y-146656894D01*
X130179715Y-146422532D01*
X133127073Y-146422532D01*
X133225736Y-146689387D01*
X133835461Y-146915908D01*
X134485460Y-146891856D01*
X134974264Y-146689387D01*
X135072927Y-146422532D01*
X134100000Y-145449605D01*
X133127073Y-146422532D01*
X130179715Y-146422532D01*
X130405278Y-146197363D01*
X130654716Y-145596648D01*
X130655232Y-145005461D01*
X132454092Y-145005461D01*
X132478144Y-145655460D01*
X132680613Y-146144264D01*
X132947468Y-146242927D01*
X133920395Y-145270000D01*
X134279605Y-145270000D01*
X135252532Y-146242927D01*
X135519387Y-146144264D01*
X135745908Y-145534539D01*
X135721856Y-144884540D01*
X135707550Y-144850000D01*
X136892560Y-144850000D01*
X136892560Y-147350000D01*
X136936838Y-147585317D01*
X137075910Y-147801441D01*
X137288110Y-147946431D01*
X137540000Y-147997440D01*
X139540000Y-147997440D01*
X139775317Y-147953162D01*
X139991441Y-147814090D01*
X140136431Y-147601890D01*
X140187440Y-147350000D01*
X140187440Y-144850000D01*
X145792560Y-144850000D01*
X145792560Y-147350000D01*
X145836838Y-147585317D01*
X145975910Y-147801441D01*
X146188110Y-147946431D01*
X146440000Y-147997440D01*
X148440000Y-147997440D01*
X148675317Y-147953162D01*
X148891441Y-147814090D01*
X149036431Y-147601890D01*
X149087440Y-147350000D01*
X149087440Y-144850000D01*
X149043162Y-144614683D01*
X148904090Y-144398559D01*
X148691890Y-144253569D01*
X148440000Y-144202560D01*
X146440000Y-144202560D01*
X146204683Y-144246838D01*
X145988559Y-144385910D01*
X145843569Y-144598110D01*
X145792560Y-144850000D01*
X140187440Y-144850000D01*
X140143162Y-144614683D01*
X140004090Y-144398559D01*
X139791890Y-144253569D01*
X139540000Y-144202560D01*
X137540000Y-144202560D01*
X137304683Y-144246838D01*
X137088559Y-144385910D01*
X136943569Y-144598110D01*
X136892560Y-144850000D01*
X135707550Y-144850000D01*
X135519387Y-144395736D01*
X135252532Y-144297073D01*
X134279605Y-145270000D01*
X133920395Y-145270000D01*
X132947468Y-144297073D01*
X132680613Y-144395736D01*
X132454092Y-145005461D01*
X130655232Y-145005461D01*
X130655284Y-144946205D01*
X130637768Y-144903812D01*
X131424111Y-144117468D01*
X133127073Y-144117468D01*
X134100000Y-145090395D01*
X135072927Y-144117468D01*
X134974264Y-143850613D01*
X134364539Y-143624092D01*
X133714540Y-143648144D01*
X133225736Y-143850613D01*
X133127073Y-144117468D01*
X131424111Y-144117468D01*
X136503787Y-139037792D01*
X136503790Y-139037790D01*
X136674328Y-138782560D01*
X136695634Y-138750674D01*
X136763001Y-138412000D01*
X136763000Y-138411995D01*
X136763000Y-135687440D01*
X136840000Y-135687440D01*
X136969589Y-135663056D01*
X137090000Y-135687440D01*
X137690000Y-135687440D01*
X137925317Y-135643162D01*
X138138600Y-135505918D01*
X138138600Y-137396000D01*
X138198537Y-137697325D01*
X138369224Y-137952776D01*
X139169008Y-138752560D01*
X137540000Y-138752560D01*
X137304683Y-138796838D01*
X137088559Y-138935910D01*
X136943569Y-139148110D01*
X136892560Y-139400000D01*
X136892560Y-141900000D01*
X136936838Y-142135317D01*
X137075910Y-142351441D01*
X137288110Y-142496431D01*
X137540000Y-142547440D01*
X139540000Y-142547440D01*
X139775317Y-142503162D01*
X139991441Y-142364090D01*
X140136431Y-142151890D01*
X140187440Y-141900000D01*
X140187440Y-139770992D01*
X140492560Y-140076112D01*
X140492560Y-141680000D01*
X140536838Y-141915317D01*
X140668480Y-142119894D01*
X140570176Y-142119808D01*
X140162057Y-142288439D01*
X139849537Y-142600415D01*
X139680193Y-143008239D01*
X139679808Y-143449824D01*
X139848439Y-143857943D01*
X140160415Y-144170463D01*
X140568239Y-144339807D01*
X141009824Y-144340192D01*
X141417943Y-144171561D01*
X141730463Y-143859585D01*
X141899807Y-143451761D01*
X141900192Y-143010176D01*
X141731561Y-142602057D01*
X141457422Y-142327440D01*
X141640000Y-142327440D01*
X141795507Y-142298179D01*
X141940000Y-142327440D01*
X142440000Y-142327440D01*
X142595507Y-142298179D01*
X142740000Y-142327440D01*
X143240000Y-142327440D01*
X143395507Y-142298179D01*
X143540000Y-142327440D01*
X144040000Y-142327440D01*
X144180087Y-142301081D01*
X144213691Y-142315000D01*
X144306250Y-142315000D01*
X144451384Y-142169866D01*
X144462998Y-142162393D01*
X144462998Y-142315000D01*
X144535450Y-142315000D01*
X144249537Y-142600415D01*
X144080193Y-143008239D01*
X144079808Y-143449824D01*
X144248439Y-143857943D01*
X144560415Y-144170463D01*
X144968239Y-144339807D01*
X145409824Y-144340192D01*
X145817943Y-144171561D01*
X146130463Y-143859585D01*
X146299807Y-143451761D01*
X146300192Y-143010176D01*
X146131561Y-142602057D01*
X145819585Y-142289537D01*
X145411761Y-142120193D01*
X145297932Y-142120094D01*
X145378327Y-142039699D01*
X145475000Y-141806310D01*
X145475000Y-140840750D01*
X145316250Y-140682000D01*
X144715000Y-140682000D01*
X144715000Y-140702000D01*
X144687440Y-140702000D01*
X144687440Y-139430000D01*
X144643162Y-139194683D01*
X144504090Y-138978559D01*
X144467781Y-138953750D01*
X144715000Y-138953750D01*
X144715000Y-140428000D01*
X145316250Y-140428000D01*
X145475000Y-140269250D01*
X145475000Y-139400000D01*
X145792560Y-139400000D01*
X145792560Y-141900000D01*
X145836838Y-142135317D01*
X145975910Y-142351441D01*
X146188110Y-142496431D01*
X146440000Y-142547440D01*
X148440000Y-142547440D01*
X148675317Y-142503162D01*
X148891441Y-142364090D01*
X149036431Y-142151890D01*
X149087440Y-141900000D01*
X149087440Y-139400000D01*
X149043162Y-139164683D01*
X148904090Y-138948559D01*
X148691890Y-138803569D01*
X148440000Y-138752560D01*
X146440000Y-138752560D01*
X146204683Y-138796838D01*
X145988559Y-138935910D01*
X145843569Y-139148110D01*
X145792560Y-139400000D01*
X145475000Y-139400000D01*
X145475000Y-139303690D01*
X145378327Y-139070301D01*
X145199698Y-138891673D01*
X144966309Y-138795000D01*
X144873750Y-138795000D01*
X144715000Y-138953750D01*
X144467781Y-138953750D01*
X144459001Y-138947751D01*
X144306250Y-138795000D01*
X144213691Y-138795000D01*
X144176829Y-138810269D01*
X144040000Y-138782560D01*
X143875000Y-138782560D01*
X143875000Y-137751844D01*
X143941441Y-137709090D01*
X144086431Y-137496890D01*
X144137440Y-137245000D01*
X144137440Y-136245000D01*
X144093162Y-136009683D01*
X143954090Y-135793559D01*
X143884289Y-135745866D01*
X143941441Y-135709090D01*
X144086431Y-135496890D01*
X144137440Y-135245000D01*
X144137440Y-134245000D01*
X144093162Y-134009683D01*
X143954090Y-133793559D01*
X143741890Y-133648569D01*
X143490000Y-133597560D01*
X143353112Y-133597560D01*
X142761400Y-133005848D01*
X142761400Y-130030000D01*
X144623173Y-130030000D01*
X144738115Y-130607852D01*
X145065442Y-131097731D01*
X145368159Y-131300000D01*
X145065442Y-131502269D01*
X144738115Y-131992148D01*
X144623173Y-132570000D01*
X144738115Y-133147852D01*
X145065442Y-133637731D01*
X145368159Y-133840000D01*
X145065442Y-134042269D01*
X144738115Y-134532148D01*
X144623173Y-135110000D01*
X144738115Y-135687852D01*
X145065442Y-136177731D01*
X145555321Y-136505058D01*
X146133173Y-136620000D01*
X147466827Y-136620000D01*
X148044679Y-136505058D01*
X148534558Y-136177731D01*
X148861885Y-135687852D01*
X148976827Y-135110000D01*
X148861885Y-134532148D01*
X148534558Y-134042269D01*
X148231841Y-133840000D01*
X148534558Y-133637731D01*
X148861885Y-133147852D01*
X148976827Y-132570000D01*
X148861885Y-131992148D01*
X148534558Y-131502269D01*
X148231841Y-131300000D01*
X148534558Y-131097731D01*
X148861885Y-130607852D01*
X148976827Y-130030000D01*
X148861885Y-129452148D01*
X148534558Y-128962269D01*
X148223282Y-128754281D01*
X148582534Y-128467928D01*
X148868659Y-127950519D01*
X148891258Y-127850816D01*
X148770269Y-127617000D01*
X146927000Y-127617000D01*
X146927000Y-127637000D01*
X146673000Y-127637000D01*
X146673000Y-127617000D01*
X144829731Y-127617000D01*
X144708742Y-127850816D01*
X144731341Y-127950519D01*
X145017466Y-128467928D01*
X145376718Y-128754281D01*
X145065442Y-128962269D01*
X144738115Y-129452148D01*
X144623173Y-130030000D01*
X142761400Y-130030000D01*
X142761400Y-127129184D01*
X144708742Y-127129184D01*
X144829731Y-127363000D01*
X146673000Y-127363000D01*
X146673000Y-125980000D01*
X146927000Y-125980000D01*
X146927000Y-127363000D01*
X148770269Y-127363000D01*
X148891258Y-127129184D01*
X148868659Y-127029481D01*
X148582534Y-126512072D01*
X148120185Y-126143543D01*
X147552000Y-125980000D01*
X146927000Y-125980000D01*
X146673000Y-125980000D01*
X146048000Y-125980000D01*
X145479815Y-126143543D01*
X145017466Y-126512072D01*
X144731341Y-127029481D01*
X144708742Y-127129184D01*
X142761400Y-127129184D01*
X142761400Y-125022152D01*
X145578776Y-122204776D01*
X145749463Y-121949325D01*
X145809400Y-121648000D01*
X145809400Y-109964000D01*
X145749463Y-109662675D01*
X145578776Y-109407224D01*
X145042901Y-108871349D01*
X145133000Y-108781250D01*
X145133000Y-107932000D01*
X145387000Y-107932000D01*
X145387000Y-108781250D01*
X145545750Y-108940000D01*
X145886309Y-108940000D01*
X146119698Y-108843327D01*
X146298327Y-108664699D01*
X146395000Y-108431310D01*
X146395000Y-108090750D01*
X146236250Y-107932000D01*
X145387000Y-107932000D01*
X145133000Y-107932000D01*
X145113000Y-107932000D01*
X145113000Y-107678000D01*
X145133000Y-107678000D01*
X145133000Y-106828750D01*
X145387000Y-106828750D01*
X145387000Y-107678000D01*
X146236250Y-107678000D01*
X146395000Y-107519250D01*
X146395000Y-107178690D01*
X146298327Y-106945301D01*
X146119698Y-106766673D01*
X145886309Y-106670000D01*
X145545750Y-106670000D01*
X145387000Y-106828750D01*
X145133000Y-106828750D01*
X144974250Y-106670000D01*
X144633691Y-106670000D01*
X144400302Y-106766673D01*
X144350000Y-106816975D01*
X144350000Y-106170000D01*
X144267029Y-105752875D01*
X144218694Y-105680537D01*
X144030746Y-105399253D01*
X144014746Y-105383254D01*
X143661125Y-105146971D01*
X143244000Y-105064001D01*
X142826875Y-105146971D01*
X142473254Y-105383254D01*
X142236971Y-105736875D01*
X142154001Y-106154000D01*
X142170000Y-106234434D01*
X142170000Y-106807600D01*
X141539579Y-106807600D01*
X141490000Y-106797560D01*
X141118506Y-106797560D01*
X141177463Y-106709325D01*
X141237400Y-106408000D01*
X141237400Y-104646869D01*
X141517731Y-104459558D01*
X141725719Y-104148282D01*
X142012072Y-104507534D01*
X142529481Y-104793659D01*
X142629184Y-104816258D01*
X142863000Y-104695269D01*
X142863000Y-102852000D01*
X142843000Y-102852000D01*
X142843000Y-102598000D01*
X142863000Y-102598000D01*
X142863000Y-102578000D01*
X143117000Y-102578000D01*
X143117000Y-102598000D01*
G36*
X126047269Y-100990442D02*
X125719942Y-101480321D01*
X125605000Y-102058173D01*
X125605000Y-103391827D01*
X125719942Y-103969679D01*
X126047269Y-104459558D01*
X126537148Y-104786885D01*
X127115000Y-104901827D01*
X127692852Y-104786885D01*
X128182731Y-104459558D01*
X128385000Y-104156841D01*
X128587269Y-104459558D01*
X129044395Y-104765000D01*
X128917691Y-104765000D01*
X128684302Y-104861673D01*
X128505673Y-105040301D01*
X128409000Y-105273690D01*
X128409000Y-105614250D01*
X128567750Y-105773000D01*
X129417000Y-105773000D01*
X129417000Y-105753000D01*
X129671000Y-105753000D01*
X129671000Y-105773000D01*
X129691000Y-105773000D01*
X129691000Y-106027000D01*
X129671000Y-106027000D01*
X129671000Y-106876250D01*
X129729629Y-106934879D01*
X129625948Y-107038560D01*
X129520000Y-107038560D01*
X129284683Y-107082838D01*
X129068559Y-107221910D01*
X129022031Y-107290006D01*
X128879698Y-107147673D01*
X128646309Y-107051000D01*
X128305750Y-107051000D01*
X128147000Y-107209750D01*
X128147000Y-108059000D01*
X128167000Y-108059000D01*
X128167000Y-108313000D01*
X128147000Y-108313000D01*
X128147000Y-108333000D01*
X127893000Y-108333000D01*
X127893000Y-108313000D01*
X127043750Y-108313000D01*
X126885000Y-108471750D01*
X126885000Y-108807600D01*
X126757152Y-108807600D01*
X125978440Y-108028888D01*
X125978440Y-107559690D01*
X126885000Y-107559690D01*
X126885000Y-107900250D01*
X127043750Y-108059000D01*
X127893000Y-108059000D01*
X127893000Y-107209750D01*
X127734250Y-107051000D01*
X127393691Y-107051000D01*
X127160302Y-107147673D01*
X126981673Y-107326301D01*
X126885000Y-107559690D01*
X125978440Y-107559690D01*
X125978440Y-107520000D01*
X125934162Y-107284683D01*
X125867671Y-107181354D01*
X125869327Y-107179698D01*
X125966000Y-106946309D01*
X125966000Y-106505750D01*
X125807250Y-106347000D01*
X125083000Y-106347000D01*
X125083000Y-106367000D01*
X124829000Y-106367000D01*
X124829000Y-106347000D01*
X124809000Y-106347000D01*
X124809000Y-106185750D01*
X128409000Y-106185750D01*
X128409000Y-106526310D01*
X128505673Y-106759699D01*
X128684302Y-106938327D01*
X128917691Y-107035000D01*
X129258250Y-107035000D01*
X129417000Y-106876250D01*
X129417000Y-106027000D01*
X128567750Y-106027000D01*
X128409000Y-106185750D01*
X124809000Y-106185750D01*
X124809000Y-106093000D01*
X124829000Y-106093000D01*
X124829000Y-105143750D01*
X125083000Y-105143750D01*
X125083000Y-106093000D01*
X125807250Y-106093000D01*
X125966000Y-105934250D01*
X125966000Y-105493691D01*
X125869327Y-105260302D01*
X125690699Y-105081673D01*
X125457310Y-104985000D01*
X125241750Y-104985000D01*
X125083000Y-105143750D01*
X124829000Y-105143750D01*
X124670250Y-104985000D01*
X124454690Y-104985000D01*
X124221301Y-105081673D01*
X124042673Y-105260302D01*
X123946000Y-105493691D01*
X123946000Y-105934250D01*
X124104748Y-106092998D01*
X124042550Y-106092998D01*
X122335440Y-104385888D01*
X122335440Y-101906000D01*
X122291162Y-101670683D01*
X122152090Y-101454559D01*
X121939890Y-101309569D01*
X121688000Y-101258560D01*
X119588000Y-101258560D01*
X119352683Y-101302838D01*
X119136559Y-101441910D01*
X118991569Y-101654110D01*
X118940560Y-101906000D01*
X118940560Y-107506000D01*
X118984838Y-107741317D01*
X119123910Y-107957441D01*
X119336110Y-108102431D01*
X119588000Y-108153440D01*
X121688000Y-108153440D01*
X121923317Y-108109162D01*
X122139441Y-107970090D01*
X122284431Y-107757890D01*
X122335440Y-107506000D01*
X122335440Y-106612992D01*
X123933560Y-108211112D01*
X123933560Y-108720000D01*
X123977838Y-108955317D01*
X124116910Y-109171441D01*
X124329110Y-109316431D01*
X124384209Y-109327589D01*
X124345683Y-109334838D01*
X124129559Y-109473910D01*
X123984569Y-109686110D01*
X123933560Y-109938000D01*
X123933560Y-110446888D01*
X122335440Y-112045008D01*
X122335440Y-111406000D01*
X122291162Y-111170683D01*
X122152090Y-110954559D01*
X121939890Y-110809569D01*
X121688000Y-110758560D01*
X119588000Y-110758560D01*
X119352683Y-110802838D01*
X119136559Y-110941910D01*
X118991569Y-111154110D01*
X118940560Y-111406000D01*
X118940560Y-117006000D01*
X118984838Y-117241317D01*
X119123910Y-117457441D01*
X119336110Y-117602431D01*
X119588000Y-117653440D01*
X121688000Y-117653440D01*
X121923317Y-117609162D01*
X122139441Y-117470090D01*
X122284431Y-117257890D01*
X122335440Y-117006000D01*
X122335440Y-114272112D01*
X124042550Y-112565002D01*
X124104748Y-112565002D01*
X123946000Y-112723750D01*
X123946000Y-113164309D01*
X124042673Y-113397698D01*
X124221301Y-113576327D01*
X124454690Y-113673000D01*
X124670250Y-113673000D01*
X124829000Y-113514250D01*
X124829000Y-112565000D01*
X125083000Y-112565000D01*
X125083000Y-113514250D01*
X125241750Y-113673000D01*
X125457310Y-113673000D01*
X125690699Y-113576327D01*
X125869327Y-113397698D01*
X125966000Y-113164309D01*
X125966000Y-112723750D01*
X125807250Y-112565000D01*
X125083000Y-112565000D01*
X124829000Y-112565000D01*
X124809000Y-112565000D01*
X124809000Y-112311000D01*
X124829000Y-112311000D01*
X124829000Y-112291000D01*
X125083000Y-112291000D01*
X125083000Y-112311000D01*
X125807250Y-112311000D01*
X125966000Y-112152250D01*
X125966000Y-111711691D01*
X125869327Y-111478302D01*
X125867957Y-111476932D01*
X125927431Y-111389890D01*
X125978440Y-111138000D01*
X125978440Y-110882400D01*
X128153594Y-110882400D01*
X128085162Y-111047201D01*
X128084838Y-111419167D01*
X128226883Y-111762943D01*
X128489673Y-112026192D01*
X128833201Y-112168838D01*
X129205167Y-112169162D01*
X129548943Y-112027117D01*
X129812192Y-111764327D01*
X129954838Y-111420799D01*
X129954845Y-111412707D01*
X129985152Y-111382400D01*
X131155237Y-111382400D01*
X131142560Y-111445000D01*
X131142560Y-111745000D01*
X131162067Y-111848671D01*
X131142560Y-111945000D01*
X131142560Y-112245000D01*
X131154339Y-112307600D01*
X128429000Y-112307600D01*
X128127675Y-112367537D01*
X127872224Y-112538224D01*
X122597848Y-117812600D01*
X117154152Y-117812600D01*
X114590776Y-115249224D01*
X114335325Y-115078537D01*
X114034000Y-115018600D01*
X107364246Y-115018600D01*
X107506457Y-114840185D01*
X107670000Y-114272000D01*
X107670000Y-113647000D01*
X106287000Y-113647000D01*
X106287000Y-113667000D01*
X106033000Y-113667000D01*
X106033000Y-113647000D01*
X106013000Y-113647000D01*
X106013000Y-113393000D01*
X106033000Y-113393000D01*
X106033000Y-111549731D01*
X106287000Y-111549731D01*
X106287000Y-113393000D01*
X107670000Y-113393000D01*
X107670000Y-112768000D01*
X107506457Y-112199815D01*
X107137928Y-111737466D01*
X106620519Y-111451341D01*
X106520816Y-111428742D01*
X106287000Y-111549731D01*
X106033000Y-111549731D01*
X105799184Y-111428742D01*
X105699481Y-111451341D01*
X105182072Y-111737466D01*
X104895719Y-112096718D01*
X104687731Y-111785442D01*
X104197852Y-111458115D01*
X103620000Y-111343173D01*
X103042148Y-111458115D01*
X102552269Y-111785442D01*
X102224942Y-112275321D01*
X102143452Y-112685000D01*
X102096000Y-112685000D01*
X101776459Y-112748561D01*
X101641013Y-112839063D01*
X101505565Y-112929566D01*
X100997566Y-113437566D01*
X100816561Y-113708459D01*
X100753000Y-114028000D01*
X100753000Y-119362000D01*
X100816561Y-119681541D01*
X100965562Y-119904537D01*
X100997566Y-119952434D01*
X101505565Y-120460434D01*
X101641012Y-120550936D01*
X101776459Y-120641439D01*
X102096000Y-120705000D01*
X102331193Y-120705000D01*
X102339138Y-120724229D01*
X102754536Y-121140353D01*
X102340630Y-121553537D01*
X102110262Y-122108325D01*
X102109738Y-122709040D01*
X102339138Y-123264229D01*
X102763537Y-123689370D01*
X102798024Y-123703690D01*
X102737545Y-123887940D01*
X103620000Y-124770395D01*
X104502455Y-123887940D01*
X104442120Y-123704129D01*
X104474229Y-123690862D01*
X104890353Y-123275464D01*
X105294536Y-123680353D01*
X104880630Y-124093537D01*
X104866310Y-124128024D01*
X104682060Y-124067545D01*
X103799605Y-124950000D01*
X104682060Y-125832455D01*
X104865871Y-125772120D01*
X104879138Y-125804229D01*
X105303537Y-126229370D01*
X105858325Y-126459738D01*
X106459040Y-126460262D01*
X107014229Y-126230862D01*
X107439370Y-125806463D01*
X107468047Y-125737400D01*
X107611848Y-125737400D01*
X110175224Y-128300776D01*
X110291329Y-128378355D01*
X110452951Y-128540259D01*
X110798242Y-128683637D01*
X111172118Y-128683963D01*
X111517659Y-128541188D01*
X111782259Y-128277049D01*
X111925637Y-127931758D01*
X111925963Y-127557882D01*
X111783188Y-127212341D01*
X111519049Y-126947741D01*
X111173758Y-126804363D01*
X110905681Y-126804129D01*
X108797302Y-124695750D01*
X110740000Y-124695750D01*
X110740000Y-126036309D01*
X110836673Y-126269698D01*
X111015301Y-126448327D01*
X111248690Y-126545000D01*
X111589250Y-126545000D01*
X111748000Y-126386250D01*
X111748000Y-124537000D01*
X110898750Y-124537000D01*
X110740000Y-124695750D01*
X108797302Y-124695750D01*
X108494776Y-124393224D01*
X108239325Y-124222537D01*
X107938000Y-124162600D01*
X107468475Y-124162600D01*
X107440862Y-124095771D01*
X107025464Y-123679647D01*
X107205425Y-123500000D01*
X109208000Y-123500000D01*
X109625125Y-123417029D01*
X109978746Y-123180746D01*
X110486746Y-122672747D01*
X110723029Y-122319125D01*
X110737779Y-122244971D01*
X110764917Y-122108537D01*
X110771838Y-122145317D01*
X110910910Y-122361441D01*
X110979006Y-122407969D01*
X110836673Y-122550302D01*
X110740000Y-122783691D01*
X110740000Y-124124250D01*
X110898750Y-124283000D01*
X111748000Y-124283000D01*
X111748000Y-124263000D01*
X112002000Y-124263000D01*
X112002000Y-124283000D01*
X112022000Y-124283000D01*
X112022000Y-124537000D01*
X112002000Y-124537000D01*
X112002000Y-126386250D01*
X112160750Y-126545000D01*
X112501310Y-126545000D01*
X112734699Y-126448327D01*
X112913327Y-126269698D01*
X112944000Y-126195647D01*
X112944000Y-129594507D01*
X112115948Y-130422560D01*
X112010000Y-130422560D01*
X111774683Y-130466838D01*
X111754229Y-130480000D01*
X110250000Y-130480000D01*
X110250000Y-129490000D01*
X110167029Y-129072875D01*
X109930746Y-128719254D01*
X109577440Y-128365948D01*
X109577440Y-128260000D01*
X109533162Y-128024683D01*
X109394090Y-127808559D01*
X109181890Y-127663569D01*
X108930000Y-127612560D01*
X107930000Y-127612560D01*
X107694683Y-127656838D01*
X107478559Y-127795910D01*
X107432031Y-127864006D01*
X107289698Y-127721673D01*
X107056309Y-127625000D01*
X106715750Y-127625000D01*
X106557000Y-127783750D01*
X106557000Y-128633000D01*
X106577000Y-128633000D01*
X106577000Y-128887000D01*
X106557000Y-128887000D01*
X106557000Y-129736250D01*
X106715750Y-129895000D01*
X107056309Y-129895000D01*
X107289698Y-129798327D01*
X107430936Y-129657090D01*
X107465910Y-129711441D01*
X107678110Y-129856431D01*
X107930000Y-129907440D01*
X108035948Y-129907440D01*
X108070000Y-129941492D01*
X108070000Y-130709495D01*
X107924683Y-130736838D01*
X107708559Y-130875910D01*
X107563569Y-131088110D01*
X107512560Y-131340000D01*
X107512560Y-132340000D01*
X107556838Y-132575317D01*
X107695910Y-132791441D01*
X107764006Y-132837969D01*
X107621673Y-132980302D01*
X107525000Y-133213691D01*
X107525000Y-133554250D01*
X107683750Y-133713000D01*
X109033000Y-133713000D01*
X109033000Y-133693000D01*
X109287000Y-133693000D01*
X109287000Y-133713000D01*
X110636250Y-133713000D01*
X110795000Y-133554250D01*
X110795000Y-133213691D01*
X110698327Y-132980302D01*
X110557090Y-132839064D01*
X110611441Y-132804090D01*
X110709893Y-132660000D01*
X111521975Y-132660000D01*
X111471673Y-132710302D01*
X111375000Y-132943691D01*
X111375000Y-133284250D01*
X111533750Y-133443000D01*
X112383000Y-133443000D01*
X112383000Y-133423000D01*
X112637000Y-133423000D01*
X112637000Y-133443000D01*
X113486250Y-133443000D01*
X113645000Y-133284250D01*
X113645000Y-132943691D01*
X113548327Y-132710302D01*
X113407090Y-132569064D01*
X113461441Y-132534090D01*
X113606431Y-132321890D01*
X113657440Y-132070000D01*
X113657440Y-131964052D01*
X114804746Y-130816747D01*
X115041029Y-130463125D01*
X115071880Y-130308026D01*
X115124000Y-130046000D01*
X115124000Y-127790000D01*
X115262560Y-127790000D01*
X115262560Y-129890000D01*
X115306838Y-130125317D01*
X115445910Y-130341441D01*
X115658110Y-130486431D01*
X115910000Y-130537440D01*
X117310000Y-130537440D01*
X117545317Y-130493162D01*
X117761441Y-130354090D01*
X117906431Y-130141890D01*
X117957440Y-129890000D01*
X117957440Y-127790000D01*
X117913162Y-127554683D01*
X117774090Y-127338559D01*
X117561890Y-127193569D01*
X117310000Y-127142560D01*
X115910000Y-127142560D01*
X115674683Y-127186838D01*
X115458559Y-127325910D01*
X115313569Y-127538110D01*
X115262560Y-127790000D01*
X115124000Y-127790000D01*
X115124000Y-126040000D01*
X116288548Y-126040000D01*
X116295910Y-126051441D01*
X116508110Y-126196431D01*
X116760000Y-126247440D01*
X118260000Y-126247440D01*
X118495317Y-126203162D01*
X118711441Y-126064090D01*
X118856431Y-125851890D01*
X118859081Y-125838803D01*
X118995910Y-126051441D01*
X119208110Y-126196431D01*
X119460000Y-126247440D01*
X119965947Y-126247440D01*
X120020000Y-126301493D01*
X120020000Y-127286374D01*
X119958559Y-127325910D01*
X119813569Y-127538110D01*
X119762560Y-127790000D01*
X119762560Y-129890000D01*
X119806838Y-130125317D01*
X119945910Y-130341441D01*
X120158110Y-130486431D01*
X120410000Y-130537440D01*
X121810000Y-130537440D01*
X122045317Y-130493162D01*
X122261441Y-130354090D01*
X122406431Y-130141890D01*
X122457440Y-129890000D01*
X122457440Y-129627400D01*
X122828793Y-129627400D01*
X122991201Y-129694838D01*
X123363167Y-129695162D01*
X123706943Y-129553117D01*
X123970192Y-129290327D01*
X124112838Y-128946799D01*
X124113162Y-128574833D01*
X123971117Y-128231057D01*
X123708327Y-127967808D01*
X123364799Y-127825162D01*
X122992833Y-127824838D01*
X122649057Y-127966883D01*
X122563190Y-128052600D01*
X122457440Y-128052600D01*
X122457440Y-127790000D01*
X122413162Y-127554683D01*
X122274090Y-127338559D01*
X122200000Y-127287935D01*
X122200000Y-125850000D01*
X122117029Y-125432875D01*
X122011710Y-125275254D01*
X121880746Y-125079253D01*
X121607440Y-124805947D01*
X121607440Y-124300000D01*
X121563162Y-124064683D01*
X121424090Y-123848559D01*
X121211890Y-123703569D01*
X120960000Y-123652560D01*
X120348933Y-123652560D01*
X120501493Y-123500000D01*
X123408508Y-123500000D01*
X125002560Y-125094053D01*
X125002560Y-125600000D01*
X125046838Y-125835317D01*
X125185910Y-126051441D01*
X125398110Y-126196431D01*
X125650000Y-126247440D01*
X126155948Y-126247440D01*
X126406000Y-126497492D01*
X126406000Y-127184276D01*
X126200000Y-127142560D01*
X124800000Y-127142560D01*
X124564683Y-127186838D01*
X124348559Y-127325910D01*
X124203569Y-127538110D01*
X124152560Y-127790000D01*
X124152560Y-129890000D01*
X124196838Y-130125317D01*
X124335910Y-130341441D01*
X124548110Y-130486431D01*
X124800000Y-130537440D01*
X126200000Y-130537440D01*
X126435317Y-130493162D01*
X126613037Y-130378802D01*
X126725254Y-130546746D01*
X127995253Y-131816746D01*
X128334717Y-132043569D01*
X128348875Y-132053029D01*
X128766000Y-132136000D01*
X132362181Y-132136000D01*
X132330000Y-132213691D01*
X132330000Y-132554250D01*
X132488750Y-132713000D01*
X133338000Y-132713000D01*
X133338000Y-132693000D01*
X133592000Y-132693000D01*
X133592000Y-132713000D01*
X134441250Y-132713000D01*
X134600000Y-132554250D01*
X134600000Y-132513691D01*
X134955000Y-132513691D01*
X134955000Y-132654250D01*
X135113750Y-132813000D01*
X135763000Y-132813000D01*
X135763000Y-132163750D01*
X135604250Y-132005000D01*
X135463690Y-132005000D01*
X135230301Y-132101673D01*
X135051673Y-132280302D01*
X134955000Y-132513691D01*
X134600000Y-132513691D01*
X134600000Y-132213691D01*
X134503327Y-131980302D01*
X134324699Y-131801673D01*
X134261144Y-131775348D01*
X134494052Y-131542440D01*
X134600000Y-131542440D01*
X134835317Y-131498162D01*
X134855771Y-131485000D01*
X135878698Y-131485000D01*
X135888110Y-131491431D01*
X136140000Y-131542440D01*
X137140000Y-131542440D01*
X137375317Y-131498162D01*
X137376600Y-131497336D01*
X137376600Y-131839848D01*
X137223888Y-131992560D01*
X137090000Y-131992560D01*
X136854683Y-132036838D01*
X136638559Y-132175910D01*
X136632623Y-132184598D01*
X136549699Y-132101673D01*
X136316310Y-132005000D01*
X136175750Y-132005000D01*
X136017000Y-132163750D01*
X136017000Y-132813000D01*
X136037000Y-132813000D01*
X136037000Y-133030000D01*
X134504250Y-133030000D01*
X134441250Y-132967000D01*
X133592000Y-132967000D01*
X133592000Y-132987000D01*
X133338000Y-132987000D01*
X133338000Y-132967000D01*
X132488750Y-132967000D01*
X132330000Y-133125750D01*
X132330000Y-133466309D01*
X132426673Y-133699698D01*
X132567910Y-133840936D01*
X132513559Y-133875910D01*
X132368569Y-134088110D01*
X132317560Y-134340000D01*
X132317560Y-135340000D01*
X132361838Y-135575317D01*
X132500910Y-135791441D01*
X132580000Y-135845481D01*
X132580000Y-138172421D01*
X131335000Y-139417421D01*
X131335000Y-139125750D01*
X131176250Y-138967000D01*
X130127000Y-138967000D01*
X130127000Y-140366250D01*
X130256585Y-140495835D01*
X129923420Y-140829000D01*
X129020000Y-140829000D01*
X128681325Y-140896367D01*
X128394210Y-141088210D01*
X128394208Y-141088213D01*
X125232211Y-144250209D01*
X124867363Y-143884722D01*
X124266648Y-143635284D01*
X123616205Y-143634716D01*
X123015057Y-143883106D01*
X122554722Y-144342637D01*
X122305284Y-144943352D01*
X122304973Y-145299895D01*
X121469868Y-146135000D01*
X117467440Y-146135000D01*
X117467440Y-145770000D01*
X117423162Y-145534683D01*
X117284090Y-145318559D01*
X117215994Y-145272031D01*
X117358327Y-145129698D01*
X117455000Y-144896309D01*
X117455000Y-143555750D01*
X117296250Y-143397000D01*
X116447000Y-143397000D01*
X116447000Y-143417000D01*
X116193000Y-143417000D01*
X116193000Y-143397000D01*
X115343750Y-143397000D01*
X115185000Y-143555750D01*
X115185000Y-144896309D01*
X115281673Y-145129698D01*
X115422910Y-145270936D01*
X115368559Y-145305910D01*
X115223569Y-145518110D01*
X115172560Y-145770000D01*
X115172560Y-146135000D01*
X111170132Y-146135000D01*
X110334975Y-145299843D01*
X110335284Y-144946205D01*
X110086894Y-144345057D01*
X109627363Y-143884722D01*
X109520000Y-143840141D01*
X109520000Y-141643691D01*
X115185000Y-141643691D01*
X115185000Y-142984250D01*
X115343750Y-143143000D01*
X116193000Y-143143000D01*
X116193000Y-141293750D01*
X116447000Y-141293750D01*
X116447000Y-143143000D01*
X117296250Y-143143000D01*
X117455000Y-142984250D01*
X117455000Y-141643691D01*
X117358327Y-141410302D01*
X117179699Y-141231673D01*
X116946310Y-141135000D01*
X116605750Y-141135000D01*
X116447000Y-141293750D01*
X116193000Y-141293750D01*
X116034250Y-141135000D01*
X115693690Y-141135000D01*
X115460301Y-141231673D01*
X115281673Y-141410302D01*
X115185000Y-141643691D01*
X109520000Y-141643691D01*
X109520000Y-140055000D01*
X112240000Y-140055000D01*
X112674346Y-139968603D01*
X112930509Y-139797440D01*
X113010000Y-139797440D01*
X113245317Y-139753162D01*
X113461441Y-139614090D01*
X113606431Y-139401890D01*
X113657440Y-139150000D01*
X113657440Y-138150000D01*
X113613162Y-137914683D01*
X113532931Y-137790000D01*
X115262560Y-137790000D01*
X115262560Y-139890000D01*
X115306838Y-140125317D01*
X115445910Y-140341441D01*
X115658110Y-140486431D01*
X115910000Y-140537440D01*
X117310000Y-140537440D01*
X117545317Y-140493162D01*
X117761441Y-140354090D01*
X117906431Y-140141890D01*
X117957440Y-139890000D01*
X117957440Y-139125750D01*
X119775000Y-139125750D01*
X119775000Y-140016309D01*
X119871673Y-140249698D01*
X120050301Y-140428327D01*
X120283690Y-140525000D01*
X120824250Y-140525000D01*
X120983000Y-140366250D01*
X120983000Y-138967000D01*
X121237000Y-138967000D01*
X121237000Y-140366250D01*
X121395750Y-140525000D01*
X121936310Y-140525000D01*
X122169699Y-140428327D01*
X122348327Y-140249698D01*
X122445000Y-140016309D01*
X122445000Y-139125750D01*
X122286250Y-138967000D01*
X121237000Y-138967000D01*
X120983000Y-138967000D01*
X119933750Y-138967000D01*
X119775000Y-139125750D01*
X117957440Y-139125750D01*
X117957440Y-137790000D01*
X117933674Y-137663691D01*
X119775000Y-137663691D01*
X119775000Y-138554250D01*
X119933750Y-138713000D01*
X120983000Y-138713000D01*
X120983000Y-137313750D01*
X121237000Y-137313750D01*
X121237000Y-138713000D01*
X122286250Y-138713000D01*
X122445000Y-138554250D01*
X122445000Y-137790000D01*
X124152560Y-137790000D01*
X124152560Y-139890000D01*
X124196838Y-140125317D01*
X124335910Y-140341441D01*
X124548110Y-140486431D01*
X124800000Y-140537440D01*
X126200000Y-140537440D01*
X126435317Y-140493162D01*
X126651441Y-140354090D01*
X126796431Y-140141890D01*
X126847440Y-139890000D01*
X126847440Y-139125750D01*
X128665000Y-139125750D01*
X128665000Y-140016309D01*
X128761673Y-140249698D01*
X128940301Y-140428327D01*
X129173690Y-140525000D01*
X129714250Y-140525000D01*
X129873000Y-140366250D01*
X129873000Y-138967000D01*
X128823750Y-138967000D01*
X128665000Y-139125750D01*
X126847440Y-139125750D01*
X126847440Y-137790000D01*
X126823674Y-137663691D01*
X128665000Y-137663691D01*
X128665000Y-138554250D01*
X128823750Y-138713000D01*
X129873000Y-138713000D01*
X129873000Y-137313750D01*
X130127000Y-137313750D01*
X130127000Y-138713000D01*
X131176250Y-138713000D01*
X131335000Y-138554250D01*
X131335000Y-137663691D01*
X131238327Y-137430302D01*
X131059699Y-137251673D01*
X130826310Y-137155000D01*
X130285750Y-137155000D01*
X130127000Y-137313750D01*
X129873000Y-137313750D01*
X129714250Y-137155000D01*
X129173690Y-137155000D01*
X128940301Y-137251673D01*
X128761673Y-137430302D01*
X128665000Y-137663691D01*
X126823674Y-137663691D01*
X126803162Y-137554683D01*
X126664090Y-137338559D01*
X126451890Y-137193569D01*
X126200000Y-137142560D01*
X124800000Y-137142560D01*
X124564683Y-137186838D01*
X124348559Y-137325910D01*
X124203569Y-137538110D01*
X124152560Y-137790000D01*
X122445000Y-137790000D01*
X122445000Y-137663691D01*
X122348327Y-137430302D01*
X122169699Y-137251673D01*
X121936310Y-137155000D01*
X121395750Y-137155000D01*
X121237000Y-137313750D01*
X120983000Y-137313750D01*
X120824250Y-137155000D01*
X120283690Y-137155000D01*
X120050301Y-137251673D01*
X119871673Y-137430302D01*
X119775000Y-137663691D01*
X117933674Y-137663691D01*
X117913162Y-137554683D01*
X117774090Y-137338559D01*
X117561890Y-137193569D01*
X117310000Y-137142560D01*
X115910000Y-137142560D01*
X115674683Y-137186838D01*
X115458559Y-137325910D01*
X115313569Y-137538110D01*
X115262560Y-137790000D01*
X113532931Y-137790000D01*
X113474090Y-137698559D01*
X113405994Y-137652031D01*
X113548327Y-137509698D01*
X113645000Y-137276309D01*
X113645000Y-136935750D01*
X113486250Y-136777000D01*
X112637000Y-136777000D01*
X112637000Y-136797000D01*
X112383000Y-136797000D01*
X112383000Y-136777000D01*
X111533750Y-136777000D01*
X111375000Y-136935750D01*
X111375000Y-137276309D01*
X111471673Y-137509698D01*
X111612910Y-137650936D01*
X111558559Y-137685910D01*
X111490854Y-137785000D01*
X109520000Y-137785000D01*
X109520000Y-137021492D01*
X109554052Y-136987440D01*
X110160000Y-136987440D01*
X110395317Y-136943162D01*
X110611441Y-136804090D01*
X110756431Y-136591890D01*
X110807440Y-136340000D01*
X110807440Y-136023691D01*
X111375000Y-136023691D01*
X111375000Y-136364250D01*
X111533750Y-136523000D01*
X112383000Y-136523000D01*
X112383000Y-135673750D01*
X112637000Y-135673750D01*
X112637000Y-136523000D01*
X113486250Y-136523000D01*
X113645000Y-136364250D01*
X113645000Y-136023691D01*
X113548327Y-135790302D01*
X113369699Y-135611673D01*
X113136310Y-135515000D01*
X112795750Y-135515000D01*
X112637000Y-135673750D01*
X112383000Y-135673750D01*
X112224250Y-135515000D01*
X111883690Y-135515000D01*
X111650301Y-135611673D01*
X111471673Y-135790302D01*
X111375000Y-136023691D01*
X110807440Y-136023691D01*
X110807440Y-135340000D01*
X110763162Y-135104683D01*
X110624090Y-134888559D01*
X110555994Y-134842031D01*
X110698327Y-134699698D01*
X110795000Y-134466309D01*
X110795000Y-134125750D01*
X110636250Y-133967000D01*
X109287000Y-133967000D01*
X109287000Y-133987000D01*
X109033000Y-133987000D01*
X109033000Y-133967000D01*
X107683750Y-133967000D01*
X107525000Y-134125750D01*
X107525000Y-134466309D01*
X107621673Y-134699698D01*
X107762910Y-134840936D01*
X107708559Y-134875910D01*
X107563569Y-135088110D01*
X107512560Y-135340000D01*
X107512560Y-136018796D01*
X107422971Y-136152875D01*
X107340000Y-136570000D01*
X107340000Y-137931975D01*
X107289698Y-137881673D01*
X107056309Y-137785000D01*
X106715750Y-137785000D01*
X106557000Y-137943750D01*
X106557000Y-138793000D01*
X106577000Y-138793000D01*
X106577000Y-139047000D01*
X106557000Y-139047000D01*
X106557000Y-139896250D01*
X106715750Y-140055000D01*
X107056309Y-140055000D01*
X107289698Y-139958327D01*
X107340000Y-139908025D01*
X107340000Y-144317403D01*
X107314722Y-144342637D01*
X107065284Y-144943352D01*
X107064716Y-145593795D01*
X107313106Y-146194943D01*
X107772637Y-146655278D01*
X108373352Y-146904716D01*
X108729895Y-146905027D01*
X109897434Y-148072566D01*
X110265654Y-148318603D01*
X110700000Y-148405000D01*
X115172560Y-148405000D01*
X115172560Y-148770000D01*
X115216838Y-149005317D01*
X115355910Y-149221441D01*
X115456249Y-149290000D01*
X100710000Y-149290000D01*
X100710000Y-146422532D01*
X102647073Y-146422532D01*
X102745736Y-146689387D01*
X103355461Y-146915908D01*
X104005460Y-146891856D01*
X104494264Y-146689387D01*
X104592927Y-146422532D01*
X103620000Y-145449605D01*
X102647073Y-146422532D01*
X100710000Y-146422532D01*
X100710000Y-145005461D01*
X101974092Y-145005461D01*
X101998144Y-145655460D01*
X102200613Y-146144264D01*
X102467468Y-146242927D01*
X103440395Y-145270000D01*
X103799605Y-145270000D01*
X104772532Y-146242927D01*
X105039387Y-146144264D01*
X105265908Y-145534539D01*
X105241856Y-144884540D01*
X105039387Y-144395736D01*
X104772532Y-144297073D01*
X103799605Y-145270000D01*
X103440395Y-145270000D01*
X102467468Y-144297073D01*
X102200613Y-144395736D01*
X101974092Y-145005461D01*
X100710000Y-145005461D01*
X100710000Y-144117468D01*
X102647073Y-144117468D01*
X103620000Y-145090395D01*
X104592927Y-144117468D01*
X104494264Y-143850613D01*
X103884539Y-143624092D01*
X103234540Y-143648144D01*
X102745736Y-143850613D01*
X102647073Y-144117468D01*
X100710000Y-144117468D01*
X100710000Y-139205750D01*
X105295000Y-139205750D01*
X105295000Y-139546310D01*
X105391673Y-139779699D01*
X105570302Y-139958327D01*
X105803691Y-140055000D01*
X106144250Y-140055000D01*
X106303000Y-139896250D01*
X106303000Y-139047000D01*
X105453750Y-139047000D01*
X105295000Y-139205750D01*
X100710000Y-139205750D01*
X100710000Y-138293690D01*
X105295000Y-138293690D01*
X105295000Y-138634250D01*
X105453750Y-138793000D01*
X106303000Y-138793000D01*
X106303000Y-137943750D01*
X106144250Y-137785000D01*
X105803691Y-137785000D01*
X105570302Y-137881673D01*
X105391673Y-138060301D01*
X105295000Y-138293690D01*
X100710000Y-138293690D01*
X100710000Y-134125750D01*
X101525000Y-134125750D01*
X101525000Y-135466309D01*
X101621673Y-135699698D01*
X101800301Y-135878327D01*
X102033690Y-135975000D01*
X102874250Y-135975000D01*
X103033000Y-135816250D01*
X103033000Y-133967000D01*
X103287000Y-133967000D01*
X103287000Y-135816250D01*
X103445750Y-135975000D01*
X104286310Y-135975000D01*
X104519699Y-135878327D01*
X104698327Y-135699698D01*
X104795000Y-135466309D01*
X104795000Y-134125750D01*
X104636250Y-133967000D01*
X103287000Y-133967000D01*
X103033000Y-133967000D01*
X101683750Y-133967000D01*
X101525000Y-134125750D01*
X100710000Y-134125750D01*
X100710000Y-133855750D01*
X111375000Y-133855750D01*
X111375000Y-134196309D01*
X111471673Y-134429698D01*
X111650301Y-134608327D01*
X111883690Y-134705000D01*
X112224250Y-134705000D01*
X112383000Y-134546250D01*
X112383000Y-133697000D01*
X112637000Y-133697000D01*
X112637000Y-134546250D01*
X112795750Y-134705000D01*
X113136310Y-134705000D01*
X113369699Y-134608327D01*
X113548327Y-134429698D01*
X113645000Y-134196309D01*
X113645000Y-133855750D01*
X113486250Y-133697000D01*
X112637000Y-133697000D01*
X112383000Y-133697000D01*
X111533750Y-133697000D01*
X111375000Y-133855750D01*
X100710000Y-133855750D01*
X100710000Y-132213691D01*
X101525000Y-132213691D01*
X101525000Y-133554250D01*
X101683750Y-133713000D01*
X103033000Y-133713000D01*
X103033000Y-131863750D01*
X103287000Y-131863750D01*
X103287000Y-133713000D01*
X104636250Y-133713000D01*
X104795000Y-133554250D01*
X104795000Y-132213691D01*
X104698327Y-131980302D01*
X104519699Y-131801673D01*
X104286310Y-131705000D01*
X103445750Y-131705000D01*
X103287000Y-131863750D01*
X103033000Y-131863750D01*
X102874250Y-131705000D01*
X102033690Y-131705000D01*
X101800301Y-131801673D01*
X101621673Y-131980302D01*
X101525000Y-132213691D01*
X100710000Y-132213691D01*
X100710000Y-129045750D01*
X105295000Y-129045750D01*
X105295000Y-129386310D01*
X105391673Y-129619699D01*
X105570302Y-129798327D01*
X105803691Y-129895000D01*
X106144250Y-129895000D01*
X106303000Y-129736250D01*
X106303000Y-128887000D01*
X105453750Y-128887000D01*
X105295000Y-129045750D01*
X100710000Y-129045750D01*
X100710000Y-128133690D01*
X105295000Y-128133690D01*
X105295000Y-128474250D01*
X105453750Y-128633000D01*
X106303000Y-128633000D01*
X106303000Y-127783750D01*
X106144250Y-127625000D01*
X105803691Y-127625000D01*
X105570302Y-127721673D01*
X105391673Y-127900301D01*
X105295000Y-128133690D01*
X100710000Y-128133690D01*
X100710000Y-126012060D01*
X102737545Y-126012060D01*
X102820884Y-126265953D01*
X103385306Y-126471590D01*
X103985458Y-126445579D01*
X104419116Y-126265953D01*
X104502455Y-126012060D01*
X103620000Y-125129605D01*
X102737545Y-126012060D01*
X100710000Y-126012060D01*
X100710000Y-124715306D01*
X102098410Y-124715306D01*
X102124421Y-125315458D01*
X102304047Y-125749116D01*
X102557940Y-125832455D01*
X103440395Y-124950000D01*
X102557940Y-124067545D01*
X102304047Y-124150884D01*
X102098410Y-124715306D01*
X100710000Y-124715306D01*
X100710000Y-100710000D01*
X126466980Y-100710000D01*
X126047269Y-100990442D01*
X126047269Y-100990442D01*
G37*
X126047269Y-100990442D02*
X125719942Y-101480321D01*
X125605000Y-102058173D01*
X125605000Y-103391827D01*
X125719942Y-103969679D01*
X126047269Y-104459558D01*
X126537148Y-104786885D01*
X127115000Y-104901827D01*
X127692852Y-104786885D01*
X128182731Y-104459558D01*
X128385000Y-104156841D01*
X128587269Y-104459558D01*
X129044395Y-104765000D01*
X128917691Y-104765000D01*
X128684302Y-104861673D01*
X128505673Y-105040301D01*
X128409000Y-105273690D01*
X128409000Y-105614250D01*
X128567750Y-105773000D01*
X129417000Y-105773000D01*
X129417000Y-105753000D01*
X129671000Y-105753000D01*
X129671000Y-105773000D01*
X129691000Y-105773000D01*
X129691000Y-106027000D01*
X129671000Y-106027000D01*
X129671000Y-106876250D01*
X129729629Y-106934879D01*
X129625948Y-107038560D01*
X129520000Y-107038560D01*
X129284683Y-107082838D01*
X129068559Y-107221910D01*
X129022031Y-107290006D01*
X128879698Y-107147673D01*
X128646309Y-107051000D01*
X128305750Y-107051000D01*
X128147000Y-107209750D01*
X128147000Y-108059000D01*
X128167000Y-108059000D01*
X128167000Y-108313000D01*
X128147000Y-108313000D01*
X128147000Y-108333000D01*
X127893000Y-108333000D01*
X127893000Y-108313000D01*
X127043750Y-108313000D01*
X126885000Y-108471750D01*
X126885000Y-108807600D01*
X126757152Y-108807600D01*
X125978440Y-108028888D01*
X125978440Y-107559690D01*
X126885000Y-107559690D01*
X126885000Y-107900250D01*
X127043750Y-108059000D01*
X127893000Y-108059000D01*
X127893000Y-107209750D01*
X127734250Y-107051000D01*
X127393691Y-107051000D01*
X127160302Y-107147673D01*
X126981673Y-107326301D01*
X126885000Y-107559690D01*
X125978440Y-107559690D01*
X125978440Y-107520000D01*
X125934162Y-107284683D01*
X125867671Y-107181354D01*
X125869327Y-107179698D01*
X125966000Y-106946309D01*
X125966000Y-106505750D01*
X125807250Y-106347000D01*
X125083000Y-106347000D01*
X125083000Y-106367000D01*
X124829000Y-106367000D01*
X124829000Y-106347000D01*
X124809000Y-106347000D01*
X124809000Y-106185750D01*
X128409000Y-106185750D01*
X128409000Y-106526310D01*
X128505673Y-106759699D01*
X128684302Y-106938327D01*
X128917691Y-107035000D01*
X129258250Y-107035000D01*
X129417000Y-106876250D01*
X129417000Y-106027000D01*
X128567750Y-106027000D01*
X128409000Y-106185750D01*
X124809000Y-106185750D01*
X124809000Y-106093000D01*
X124829000Y-106093000D01*
X124829000Y-105143750D01*
X125083000Y-105143750D01*
X125083000Y-106093000D01*
X125807250Y-106093000D01*
X125966000Y-105934250D01*
X125966000Y-105493691D01*
X125869327Y-105260302D01*
X125690699Y-105081673D01*
X125457310Y-104985000D01*
X125241750Y-104985000D01*
X125083000Y-105143750D01*
X124829000Y-105143750D01*
X124670250Y-104985000D01*
X124454690Y-104985000D01*
X124221301Y-105081673D01*
X124042673Y-105260302D01*
X123946000Y-105493691D01*
X123946000Y-105934250D01*
X124104748Y-106092998D01*
X124042550Y-106092998D01*
X122335440Y-104385888D01*
X122335440Y-101906000D01*
X122291162Y-101670683D01*
X122152090Y-101454559D01*
X121939890Y-101309569D01*
X121688000Y-101258560D01*
X119588000Y-101258560D01*
X119352683Y-101302838D01*
X119136559Y-101441910D01*
X118991569Y-101654110D01*
X118940560Y-101906000D01*
X118940560Y-107506000D01*
X118984838Y-107741317D01*
X119123910Y-107957441D01*
X119336110Y-108102431D01*
X119588000Y-108153440D01*
X121688000Y-108153440D01*
X121923317Y-108109162D01*
X122139441Y-107970090D01*
X122284431Y-107757890D01*
X122335440Y-107506000D01*
X122335440Y-106612992D01*
X123933560Y-108211112D01*
X123933560Y-108720000D01*
X123977838Y-108955317D01*
X124116910Y-109171441D01*
X124329110Y-109316431D01*
X124384209Y-109327589D01*
X124345683Y-109334838D01*
X124129559Y-109473910D01*
X123984569Y-109686110D01*
X123933560Y-109938000D01*
X123933560Y-110446888D01*
X122335440Y-112045008D01*
X122335440Y-111406000D01*
X122291162Y-111170683D01*
X122152090Y-110954559D01*
X121939890Y-110809569D01*
X121688000Y-110758560D01*
X119588000Y-110758560D01*
X119352683Y-110802838D01*
X119136559Y-110941910D01*
X118991569Y-111154110D01*
X118940560Y-111406000D01*
X118940560Y-117006000D01*
X118984838Y-117241317D01*
X119123910Y-117457441D01*
X119336110Y-117602431D01*
X119588000Y-117653440D01*
X121688000Y-117653440D01*
X121923317Y-117609162D01*
X122139441Y-117470090D01*
X122284431Y-117257890D01*
X122335440Y-117006000D01*
X122335440Y-114272112D01*
X124042550Y-112565002D01*
X124104748Y-112565002D01*
X123946000Y-112723750D01*
X123946000Y-113164309D01*
X124042673Y-113397698D01*
X124221301Y-113576327D01*
X124454690Y-113673000D01*
X124670250Y-113673000D01*
X124829000Y-113514250D01*
X124829000Y-112565000D01*
X125083000Y-112565000D01*
X125083000Y-113514250D01*
X125241750Y-113673000D01*
X125457310Y-113673000D01*
X125690699Y-113576327D01*
X125869327Y-113397698D01*
X125966000Y-113164309D01*
X125966000Y-112723750D01*
X125807250Y-112565000D01*
X125083000Y-112565000D01*
X124829000Y-112565000D01*
X124809000Y-112565000D01*
X124809000Y-112311000D01*
X124829000Y-112311000D01*
X124829000Y-112291000D01*
X125083000Y-112291000D01*
X125083000Y-112311000D01*
X125807250Y-112311000D01*
X125966000Y-112152250D01*
X125966000Y-111711691D01*
X125869327Y-111478302D01*
X125867957Y-111476932D01*
X125927431Y-111389890D01*
X125978440Y-111138000D01*
X125978440Y-110882400D01*
X128153594Y-110882400D01*
X128085162Y-111047201D01*
X128084838Y-111419167D01*
X128226883Y-111762943D01*
X128489673Y-112026192D01*
X128833201Y-112168838D01*
X129205167Y-112169162D01*
X129548943Y-112027117D01*
X129812192Y-111764327D01*
X129954838Y-111420799D01*
X129954845Y-111412707D01*
X129985152Y-111382400D01*
X131155237Y-111382400D01*
X131142560Y-111445000D01*
X131142560Y-111745000D01*
X131162067Y-111848671D01*
X131142560Y-111945000D01*
X131142560Y-112245000D01*
X131154339Y-112307600D01*
X128429000Y-112307600D01*
X128127675Y-112367537D01*
X127872224Y-112538224D01*
X122597848Y-117812600D01*
X117154152Y-117812600D01*
X114590776Y-115249224D01*
X114335325Y-115078537D01*
X114034000Y-115018600D01*
X107364246Y-115018600D01*
X107506457Y-114840185D01*
X107670000Y-114272000D01*
X107670000Y-113647000D01*
X106287000Y-113647000D01*
X106287000Y-113667000D01*
X106033000Y-113667000D01*
X106033000Y-113647000D01*
X106013000Y-113647000D01*
X106013000Y-113393000D01*
X106033000Y-113393000D01*
X106033000Y-111549731D01*
X106287000Y-111549731D01*
X106287000Y-113393000D01*
X107670000Y-113393000D01*
X107670000Y-112768000D01*
X107506457Y-112199815D01*
X107137928Y-111737466D01*
X106620519Y-111451341D01*
X106520816Y-111428742D01*
X106287000Y-111549731D01*
X106033000Y-111549731D01*
X105799184Y-111428742D01*
X105699481Y-111451341D01*
X105182072Y-111737466D01*
X104895719Y-112096718D01*
X104687731Y-111785442D01*
X104197852Y-111458115D01*
X103620000Y-111343173D01*
X103042148Y-111458115D01*
X102552269Y-111785442D01*
X102224942Y-112275321D01*
X102143452Y-112685000D01*
X102096000Y-112685000D01*
X101776459Y-112748561D01*
X101641013Y-112839063D01*
X101505565Y-112929566D01*
X100997566Y-113437566D01*
X100816561Y-113708459D01*
X100753000Y-114028000D01*
X100753000Y-119362000D01*
X100816561Y-119681541D01*
X100965562Y-119904537D01*
X100997566Y-119952434D01*
X101505565Y-120460434D01*
X101641012Y-120550936D01*
X101776459Y-120641439D01*
X102096000Y-120705000D01*
X102331193Y-120705000D01*
X102339138Y-120724229D01*
X102754536Y-121140353D01*
X102340630Y-121553537D01*
X102110262Y-122108325D01*
X102109738Y-122709040D01*
X102339138Y-123264229D01*
X102763537Y-123689370D01*
X102798024Y-123703690D01*
X102737545Y-123887940D01*
X103620000Y-124770395D01*
X104502455Y-123887940D01*
X104442120Y-123704129D01*
X104474229Y-123690862D01*
X104890353Y-123275464D01*
X105294536Y-123680353D01*
X104880630Y-124093537D01*
X104866310Y-124128024D01*
X104682060Y-124067545D01*
X103799605Y-124950000D01*
X104682060Y-125832455D01*
X104865871Y-125772120D01*
X104879138Y-125804229D01*
X105303537Y-126229370D01*
X105858325Y-126459738D01*
X106459040Y-126460262D01*
X107014229Y-126230862D01*
X107439370Y-125806463D01*
X107468047Y-125737400D01*
X107611848Y-125737400D01*
X110175224Y-128300776D01*
X110291329Y-128378355D01*
X110452951Y-128540259D01*
X110798242Y-128683637D01*
X111172118Y-128683963D01*
X111517659Y-128541188D01*
X111782259Y-128277049D01*
X111925637Y-127931758D01*
X111925963Y-127557882D01*
X111783188Y-127212341D01*
X111519049Y-126947741D01*
X111173758Y-126804363D01*
X110905681Y-126804129D01*
X108797302Y-124695750D01*
X110740000Y-124695750D01*
X110740000Y-126036309D01*
X110836673Y-126269698D01*
X111015301Y-126448327D01*
X111248690Y-126545000D01*
X111589250Y-126545000D01*
X111748000Y-126386250D01*
X111748000Y-124537000D01*
X110898750Y-124537000D01*
X110740000Y-124695750D01*
X108797302Y-124695750D01*
X108494776Y-124393224D01*
X108239325Y-124222537D01*
X107938000Y-124162600D01*
X107468475Y-124162600D01*
X107440862Y-124095771D01*
X107025464Y-123679647D01*
X107205425Y-123500000D01*
X109208000Y-123500000D01*
X109625125Y-123417029D01*
X109978746Y-123180746D01*
X110486746Y-122672747D01*
X110723029Y-122319125D01*
X110737779Y-122244971D01*
X110764917Y-122108537D01*
X110771838Y-122145317D01*
X110910910Y-122361441D01*
X110979006Y-122407969D01*
X110836673Y-122550302D01*
X110740000Y-122783691D01*
X110740000Y-124124250D01*
X110898750Y-124283000D01*
X111748000Y-124283000D01*
X111748000Y-124263000D01*
X112002000Y-124263000D01*
X112002000Y-124283000D01*
X112022000Y-124283000D01*
X112022000Y-124537000D01*
X112002000Y-124537000D01*
X112002000Y-126386250D01*
X112160750Y-126545000D01*
X112501310Y-126545000D01*
X112734699Y-126448327D01*
X112913327Y-126269698D01*
X112944000Y-126195647D01*
X112944000Y-129594507D01*
X112115948Y-130422560D01*
X112010000Y-130422560D01*
X111774683Y-130466838D01*
X111754229Y-130480000D01*
X110250000Y-130480000D01*
X110250000Y-129490000D01*
X110167029Y-129072875D01*
X109930746Y-128719254D01*
X109577440Y-128365948D01*
X109577440Y-128260000D01*
X109533162Y-128024683D01*
X109394090Y-127808559D01*
X109181890Y-127663569D01*
X108930000Y-127612560D01*
X107930000Y-127612560D01*
X107694683Y-127656838D01*
X107478559Y-127795910D01*
X107432031Y-127864006D01*
X107289698Y-127721673D01*
X107056309Y-127625000D01*
X106715750Y-127625000D01*
X106557000Y-127783750D01*
X106557000Y-128633000D01*
X106577000Y-128633000D01*
X106577000Y-128887000D01*
X106557000Y-128887000D01*
X106557000Y-129736250D01*
X106715750Y-129895000D01*
X107056309Y-129895000D01*
X107289698Y-129798327D01*
X107430936Y-129657090D01*
X107465910Y-129711441D01*
X107678110Y-129856431D01*
X107930000Y-129907440D01*
X108035948Y-129907440D01*
X108070000Y-129941492D01*
X108070000Y-130709495D01*
X107924683Y-130736838D01*
X107708559Y-130875910D01*
X107563569Y-131088110D01*
X107512560Y-131340000D01*
X107512560Y-132340000D01*
X107556838Y-132575317D01*
X107695910Y-132791441D01*
X107764006Y-132837969D01*
X107621673Y-132980302D01*
X107525000Y-133213691D01*
X107525000Y-133554250D01*
X107683750Y-133713000D01*
X109033000Y-133713000D01*
X109033000Y-133693000D01*
X109287000Y-133693000D01*
X109287000Y-133713000D01*
X110636250Y-133713000D01*
X110795000Y-133554250D01*
X110795000Y-133213691D01*
X110698327Y-132980302D01*
X110557090Y-132839064D01*
X110611441Y-132804090D01*
X110709893Y-132660000D01*
X111521975Y-132660000D01*
X111471673Y-132710302D01*
X111375000Y-132943691D01*
X111375000Y-133284250D01*
X111533750Y-133443000D01*
X112383000Y-133443000D01*
X112383000Y-133423000D01*
X112637000Y-133423000D01*
X112637000Y-133443000D01*
X113486250Y-133443000D01*
X113645000Y-133284250D01*
X113645000Y-132943691D01*
X113548327Y-132710302D01*
X113407090Y-132569064D01*
X113461441Y-132534090D01*
X113606431Y-132321890D01*
X113657440Y-132070000D01*
X113657440Y-131964052D01*
X114804746Y-130816747D01*
X115041029Y-130463125D01*
X115071880Y-130308026D01*
X115124000Y-130046000D01*
X115124000Y-127790000D01*
X115262560Y-127790000D01*
X115262560Y-129890000D01*
X115306838Y-130125317D01*
X115445910Y-130341441D01*
X115658110Y-130486431D01*
X115910000Y-130537440D01*
X117310000Y-130537440D01*
X117545317Y-130493162D01*
X117761441Y-130354090D01*
X117906431Y-130141890D01*
X117957440Y-129890000D01*
X117957440Y-127790000D01*
X117913162Y-127554683D01*
X117774090Y-127338559D01*
X117561890Y-127193569D01*
X117310000Y-127142560D01*
X115910000Y-127142560D01*
X115674683Y-127186838D01*
X115458559Y-127325910D01*
X115313569Y-127538110D01*
X115262560Y-127790000D01*
X115124000Y-127790000D01*
X115124000Y-126040000D01*
X116288548Y-126040000D01*
X116295910Y-126051441D01*
X116508110Y-126196431D01*
X116760000Y-126247440D01*
X118260000Y-126247440D01*
X118495317Y-126203162D01*
X118711441Y-126064090D01*
X118856431Y-125851890D01*
X118859081Y-125838803D01*
X118995910Y-126051441D01*
X119208110Y-126196431D01*
X119460000Y-126247440D01*
X119965947Y-126247440D01*
X120020000Y-126301493D01*
X120020000Y-127286374D01*
X119958559Y-127325910D01*
X119813569Y-127538110D01*
X119762560Y-127790000D01*
X119762560Y-129890000D01*
X119806838Y-130125317D01*
X119945910Y-130341441D01*
X120158110Y-130486431D01*
X120410000Y-130537440D01*
X121810000Y-130537440D01*
X122045317Y-130493162D01*
X122261441Y-130354090D01*
X122406431Y-130141890D01*
X122457440Y-129890000D01*
X122457440Y-129627400D01*
X122828793Y-129627400D01*
X122991201Y-129694838D01*
X123363167Y-129695162D01*
X123706943Y-129553117D01*
X123970192Y-129290327D01*
X124112838Y-128946799D01*
X124113162Y-128574833D01*
X123971117Y-128231057D01*
X123708327Y-127967808D01*
X123364799Y-127825162D01*
X122992833Y-127824838D01*
X122649057Y-127966883D01*
X122563190Y-128052600D01*
X122457440Y-128052600D01*
X122457440Y-127790000D01*
X122413162Y-127554683D01*
X122274090Y-127338559D01*
X122200000Y-127287935D01*
X122200000Y-125850000D01*
X122117029Y-125432875D01*
X122011710Y-125275254D01*
X121880746Y-125079253D01*
X121607440Y-124805947D01*
X121607440Y-124300000D01*
X121563162Y-124064683D01*
X121424090Y-123848559D01*
X121211890Y-123703569D01*
X120960000Y-123652560D01*
X120348933Y-123652560D01*
X120501493Y-123500000D01*
X123408508Y-123500000D01*
X125002560Y-125094053D01*
X125002560Y-125600000D01*
X125046838Y-125835317D01*
X125185910Y-126051441D01*
X125398110Y-126196431D01*
X125650000Y-126247440D01*
X126155948Y-126247440D01*
X126406000Y-126497492D01*
X126406000Y-127184276D01*
X126200000Y-127142560D01*
X124800000Y-127142560D01*
X124564683Y-127186838D01*
X124348559Y-127325910D01*
X124203569Y-127538110D01*
X124152560Y-127790000D01*
X124152560Y-129890000D01*
X124196838Y-130125317D01*
X124335910Y-130341441D01*
X124548110Y-130486431D01*
X124800000Y-130537440D01*
X126200000Y-130537440D01*
X126435317Y-130493162D01*
X126613037Y-130378802D01*
X126725254Y-130546746D01*
X127995253Y-131816746D01*
X128334717Y-132043569D01*
X128348875Y-132053029D01*
X128766000Y-132136000D01*
X132362181Y-132136000D01*
X132330000Y-132213691D01*
X132330000Y-132554250D01*
X132488750Y-132713000D01*
X133338000Y-132713000D01*
X133338000Y-132693000D01*
X133592000Y-132693000D01*
X133592000Y-132713000D01*
X134441250Y-132713000D01*
X134600000Y-132554250D01*
X134600000Y-132513691D01*
X134955000Y-132513691D01*
X134955000Y-132654250D01*
X135113750Y-132813000D01*
X135763000Y-132813000D01*
X135763000Y-132163750D01*
X135604250Y-132005000D01*
X135463690Y-132005000D01*
X135230301Y-132101673D01*
X135051673Y-132280302D01*
X134955000Y-132513691D01*
X134600000Y-132513691D01*
X134600000Y-132213691D01*
X134503327Y-131980302D01*
X134324699Y-131801673D01*
X134261144Y-131775348D01*
X134494052Y-131542440D01*
X134600000Y-131542440D01*
X134835317Y-131498162D01*
X134855771Y-131485000D01*
X135878698Y-131485000D01*
X135888110Y-131491431D01*
X136140000Y-131542440D01*
X137140000Y-131542440D01*
X137375317Y-131498162D01*
X137376600Y-131497336D01*
X137376600Y-131839848D01*
X137223888Y-131992560D01*
X137090000Y-131992560D01*
X136854683Y-132036838D01*
X136638559Y-132175910D01*
X136632623Y-132184598D01*
X136549699Y-132101673D01*
X136316310Y-132005000D01*
X136175750Y-132005000D01*
X136017000Y-132163750D01*
X136017000Y-132813000D01*
X136037000Y-132813000D01*
X136037000Y-133030000D01*
X134504250Y-133030000D01*
X134441250Y-132967000D01*
X133592000Y-132967000D01*
X133592000Y-132987000D01*
X133338000Y-132987000D01*
X133338000Y-132967000D01*
X132488750Y-132967000D01*
X132330000Y-133125750D01*
X132330000Y-133466309D01*
X132426673Y-133699698D01*
X132567910Y-133840936D01*
X132513559Y-133875910D01*
X132368569Y-134088110D01*
X132317560Y-134340000D01*
X132317560Y-135340000D01*
X132361838Y-135575317D01*
X132500910Y-135791441D01*
X132580000Y-135845481D01*
X132580000Y-138172421D01*
X131335000Y-139417421D01*
X131335000Y-139125750D01*
X131176250Y-138967000D01*
X130127000Y-138967000D01*
X130127000Y-140366250D01*
X130256585Y-140495835D01*
X129923420Y-140829000D01*
X129020000Y-140829000D01*
X128681325Y-140896367D01*
X128394210Y-141088210D01*
X128394208Y-141088213D01*
X125232211Y-144250209D01*
X124867363Y-143884722D01*
X124266648Y-143635284D01*
X123616205Y-143634716D01*
X123015057Y-143883106D01*
X122554722Y-144342637D01*
X122305284Y-144943352D01*
X122304973Y-145299895D01*
X121469868Y-146135000D01*
X117467440Y-146135000D01*
X117467440Y-145770000D01*
X117423162Y-145534683D01*
X117284090Y-145318559D01*
X117215994Y-145272031D01*
X117358327Y-145129698D01*
X117455000Y-144896309D01*
X117455000Y-143555750D01*
X117296250Y-143397000D01*
X116447000Y-143397000D01*
X116447000Y-143417000D01*
X116193000Y-143417000D01*
X116193000Y-143397000D01*
X115343750Y-143397000D01*
X115185000Y-143555750D01*
X115185000Y-144896309D01*
X115281673Y-145129698D01*
X115422910Y-145270936D01*
X115368559Y-145305910D01*
X115223569Y-145518110D01*
X115172560Y-145770000D01*
X115172560Y-146135000D01*
X111170132Y-146135000D01*
X110334975Y-145299843D01*
X110335284Y-144946205D01*
X110086894Y-144345057D01*
X109627363Y-143884722D01*
X109520000Y-143840141D01*
X109520000Y-141643691D01*
X115185000Y-141643691D01*
X115185000Y-142984250D01*
X115343750Y-143143000D01*
X116193000Y-143143000D01*
X116193000Y-141293750D01*
X116447000Y-141293750D01*
X116447000Y-143143000D01*
X117296250Y-143143000D01*
X117455000Y-142984250D01*
X117455000Y-141643691D01*
X117358327Y-141410302D01*
X117179699Y-141231673D01*
X116946310Y-141135000D01*
X116605750Y-141135000D01*
X116447000Y-141293750D01*
X116193000Y-141293750D01*
X116034250Y-141135000D01*
X115693690Y-141135000D01*
X115460301Y-141231673D01*
X115281673Y-141410302D01*
X115185000Y-141643691D01*
X109520000Y-141643691D01*
X109520000Y-140055000D01*
X112240000Y-140055000D01*
X112674346Y-139968603D01*
X112930509Y-139797440D01*
X113010000Y-139797440D01*
X113245317Y-139753162D01*
X113461441Y-139614090D01*
X113606431Y-139401890D01*
X113657440Y-139150000D01*
X113657440Y-138150000D01*
X113613162Y-137914683D01*
X113532931Y-137790000D01*
X115262560Y-137790000D01*
X115262560Y-139890000D01*
X115306838Y-140125317D01*
X115445910Y-140341441D01*
X115658110Y-140486431D01*
X115910000Y-140537440D01*
X117310000Y-140537440D01*
X117545317Y-140493162D01*
X117761441Y-140354090D01*
X117906431Y-140141890D01*
X117957440Y-139890000D01*
X117957440Y-139125750D01*
X119775000Y-139125750D01*
X119775000Y-140016309D01*
X119871673Y-140249698D01*
X120050301Y-140428327D01*
X120283690Y-140525000D01*
X120824250Y-140525000D01*
X120983000Y-140366250D01*
X120983000Y-138967000D01*
X121237000Y-138967000D01*
X121237000Y-140366250D01*
X121395750Y-140525000D01*
X121936310Y-140525000D01*
X122169699Y-140428327D01*
X122348327Y-140249698D01*
X122445000Y-140016309D01*
X122445000Y-139125750D01*
X122286250Y-138967000D01*
X121237000Y-138967000D01*
X120983000Y-138967000D01*
X119933750Y-138967000D01*
X119775000Y-139125750D01*
X117957440Y-139125750D01*
X117957440Y-137790000D01*
X117933674Y-137663691D01*
X119775000Y-137663691D01*
X119775000Y-138554250D01*
X119933750Y-138713000D01*
X120983000Y-138713000D01*
X120983000Y-137313750D01*
X121237000Y-137313750D01*
X121237000Y-138713000D01*
X122286250Y-138713000D01*
X122445000Y-138554250D01*
X122445000Y-137790000D01*
X124152560Y-137790000D01*
X124152560Y-139890000D01*
X124196838Y-140125317D01*
X124335910Y-140341441D01*
X124548110Y-140486431D01*
X124800000Y-140537440D01*
X126200000Y-140537440D01*
X126435317Y-140493162D01*
X126651441Y-140354090D01*
X126796431Y-140141890D01*
X126847440Y-139890000D01*
X126847440Y-139125750D01*
X128665000Y-139125750D01*
X128665000Y-140016309D01*
X128761673Y-140249698D01*
X128940301Y-140428327D01*
X129173690Y-140525000D01*
X129714250Y-140525000D01*
X129873000Y-140366250D01*
X129873000Y-138967000D01*
X128823750Y-138967000D01*
X128665000Y-139125750D01*
X126847440Y-139125750D01*
X126847440Y-137790000D01*
X126823674Y-137663691D01*
X128665000Y-137663691D01*
X128665000Y-138554250D01*
X128823750Y-138713000D01*
X129873000Y-138713000D01*
X129873000Y-137313750D01*
X130127000Y-137313750D01*
X130127000Y-138713000D01*
X131176250Y-138713000D01*
X131335000Y-138554250D01*
X131335000Y-137663691D01*
X131238327Y-137430302D01*
X131059699Y-137251673D01*
X130826310Y-137155000D01*
X130285750Y-137155000D01*
X130127000Y-137313750D01*
X129873000Y-137313750D01*
X129714250Y-137155000D01*
X129173690Y-137155000D01*
X128940301Y-137251673D01*
X128761673Y-137430302D01*
X128665000Y-137663691D01*
X126823674Y-137663691D01*
X126803162Y-137554683D01*
X126664090Y-137338559D01*
X126451890Y-137193569D01*
X126200000Y-137142560D01*
X124800000Y-137142560D01*
X124564683Y-137186838D01*
X124348559Y-137325910D01*
X124203569Y-137538110D01*
X124152560Y-137790000D01*
X122445000Y-137790000D01*
X122445000Y-137663691D01*
X122348327Y-137430302D01*
X122169699Y-137251673D01*
X121936310Y-137155000D01*
X121395750Y-137155000D01*
X121237000Y-137313750D01*
X120983000Y-137313750D01*
X120824250Y-137155000D01*
X120283690Y-137155000D01*
X120050301Y-137251673D01*
X119871673Y-137430302D01*
X119775000Y-137663691D01*
X117933674Y-137663691D01*
X117913162Y-137554683D01*
X117774090Y-137338559D01*
X117561890Y-137193569D01*
X117310000Y-137142560D01*
X115910000Y-137142560D01*
X115674683Y-137186838D01*
X115458559Y-137325910D01*
X115313569Y-137538110D01*
X115262560Y-137790000D01*
X113532931Y-137790000D01*
X113474090Y-137698559D01*
X113405994Y-137652031D01*
X113548327Y-137509698D01*
X113645000Y-137276309D01*
X113645000Y-136935750D01*
X113486250Y-136777000D01*
X112637000Y-136777000D01*
X112637000Y-136797000D01*
X112383000Y-136797000D01*
X112383000Y-136777000D01*
X111533750Y-136777000D01*
X111375000Y-136935750D01*
X111375000Y-137276309D01*
X111471673Y-137509698D01*
X111612910Y-137650936D01*
X111558559Y-137685910D01*
X111490854Y-137785000D01*
X109520000Y-137785000D01*
X109520000Y-137021492D01*
X109554052Y-136987440D01*
X110160000Y-136987440D01*
X110395317Y-136943162D01*
X110611441Y-136804090D01*
X110756431Y-136591890D01*
X110807440Y-136340000D01*
X110807440Y-136023691D01*
X111375000Y-136023691D01*
X111375000Y-136364250D01*
X111533750Y-136523000D01*
X112383000Y-136523000D01*
X112383000Y-135673750D01*
X112637000Y-135673750D01*
X112637000Y-136523000D01*
X113486250Y-136523000D01*
X113645000Y-136364250D01*
X113645000Y-136023691D01*
X113548327Y-135790302D01*
X113369699Y-135611673D01*
X113136310Y-135515000D01*
X112795750Y-135515000D01*
X112637000Y-135673750D01*
X112383000Y-135673750D01*
X112224250Y-135515000D01*
X111883690Y-135515000D01*
X111650301Y-135611673D01*
X111471673Y-135790302D01*
X111375000Y-136023691D01*
X110807440Y-136023691D01*
X110807440Y-135340000D01*
X110763162Y-135104683D01*
X110624090Y-134888559D01*
X110555994Y-134842031D01*
X110698327Y-134699698D01*
X110795000Y-134466309D01*
X110795000Y-134125750D01*
X110636250Y-133967000D01*
X109287000Y-133967000D01*
X109287000Y-133987000D01*
X109033000Y-133987000D01*
X109033000Y-133967000D01*
X107683750Y-133967000D01*
X107525000Y-134125750D01*
X107525000Y-134466309D01*
X107621673Y-134699698D01*
X107762910Y-134840936D01*
X107708559Y-134875910D01*
X107563569Y-135088110D01*
X107512560Y-135340000D01*
X107512560Y-136018796D01*
X107422971Y-136152875D01*
X107340000Y-136570000D01*
X107340000Y-137931975D01*
X107289698Y-137881673D01*
X107056309Y-137785000D01*
X106715750Y-137785000D01*
X106557000Y-137943750D01*
X106557000Y-138793000D01*
X106577000Y-138793000D01*
X106577000Y-139047000D01*
X106557000Y-139047000D01*
X106557000Y-139896250D01*
X106715750Y-140055000D01*
X107056309Y-140055000D01*
X107289698Y-139958327D01*
X107340000Y-139908025D01*
X107340000Y-144317403D01*
X107314722Y-144342637D01*
X107065284Y-144943352D01*
X107064716Y-145593795D01*
X107313106Y-146194943D01*
X107772637Y-146655278D01*
X108373352Y-146904716D01*
X108729895Y-146905027D01*
X109897434Y-148072566D01*
X110265654Y-148318603D01*
X110700000Y-148405000D01*
X115172560Y-148405000D01*
X115172560Y-148770000D01*
X115216838Y-149005317D01*
X115355910Y-149221441D01*
X115456249Y-149290000D01*
X100710000Y-149290000D01*
X100710000Y-146422532D01*
X102647073Y-146422532D01*
X102745736Y-146689387D01*
X103355461Y-146915908D01*
X104005460Y-146891856D01*
X104494264Y-146689387D01*
X104592927Y-146422532D01*
X103620000Y-145449605D01*
X102647073Y-146422532D01*
X100710000Y-146422532D01*
X100710000Y-145005461D01*
X101974092Y-145005461D01*
X101998144Y-145655460D01*
X102200613Y-146144264D01*
X102467468Y-146242927D01*
X103440395Y-145270000D01*
X103799605Y-145270000D01*
X104772532Y-146242927D01*
X105039387Y-146144264D01*
X105265908Y-145534539D01*
X105241856Y-144884540D01*
X105039387Y-144395736D01*
X104772532Y-144297073D01*
X103799605Y-145270000D01*
X103440395Y-145270000D01*
X102467468Y-144297073D01*
X102200613Y-144395736D01*
X101974092Y-145005461D01*
X100710000Y-145005461D01*
X100710000Y-144117468D01*
X102647073Y-144117468D01*
X103620000Y-145090395D01*
X104592927Y-144117468D01*
X104494264Y-143850613D01*
X103884539Y-143624092D01*
X103234540Y-143648144D01*
X102745736Y-143850613D01*
X102647073Y-144117468D01*
X100710000Y-144117468D01*
X100710000Y-139205750D01*
X105295000Y-139205750D01*
X105295000Y-139546310D01*
X105391673Y-139779699D01*
X105570302Y-139958327D01*
X105803691Y-140055000D01*
X106144250Y-140055000D01*
X106303000Y-139896250D01*
X106303000Y-139047000D01*
X105453750Y-139047000D01*
X105295000Y-139205750D01*
X100710000Y-139205750D01*
X100710000Y-138293690D01*
X105295000Y-138293690D01*
X105295000Y-138634250D01*
X105453750Y-138793000D01*
X106303000Y-138793000D01*
X106303000Y-137943750D01*
X106144250Y-137785000D01*
X105803691Y-137785000D01*
X105570302Y-137881673D01*
X105391673Y-138060301D01*
X105295000Y-138293690D01*
X100710000Y-138293690D01*
X100710000Y-134125750D01*
X101525000Y-134125750D01*
X101525000Y-135466309D01*
X101621673Y-135699698D01*
X101800301Y-135878327D01*
X102033690Y-135975000D01*
X102874250Y-135975000D01*
X103033000Y-135816250D01*
X103033000Y-133967000D01*
X103287000Y-133967000D01*
X103287000Y-135816250D01*
X103445750Y-135975000D01*
X104286310Y-135975000D01*
X104519699Y-135878327D01*
X104698327Y-135699698D01*
X104795000Y-135466309D01*
X104795000Y-134125750D01*
X104636250Y-133967000D01*
X103287000Y-133967000D01*
X103033000Y-133967000D01*
X101683750Y-133967000D01*
X101525000Y-134125750D01*
X100710000Y-134125750D01*
X100710000Y-133855750D01*
X111375000Y-133855750D01*
X111375000Y-134196309D01*
X111471673Y-134429698D01*
X111650301Y-134608327D01*
X111883690Y-134705000D01*
X112224250Y-134705000D01*
X112383000Y-134546250D01*
X112383000Y-133697000D01*
X112637000Y-133697000D01*
X112637000Y-134546250D01*
X112795750Y-134705000D01*
X113136310Y-134705000D01*
X113369699Y-134608327D01*
X113548327Y-134429698D01*
X113645000Y-134196309D01*
X113645000Y-133855750D01*
X113486250Y-133697000D01*
X112637000Y-133697000D01*
X112383000Y-133697000D01*
X111533750Y-133697000D01*
X111375000Y-133855750D01*
X100710000Y-133855750D01*
X100710000Y-132213691D01*
X101525000Y-132213691D01*
X101525000Y-133554250D01*
X101683750Y-133713000D01*
X103033000Y-133713000D01*
X103033000Y-131863750D01*
X103287000Y-131863750D01*
X103287000Y-133713000D01*
X104636250Y-133713000D01*
X104795000Y-133554250D01*
X104795000Y-132213691D01*
X104698327Y-131980302D01*
X104519699Y-131801673D01*
X104286310Y-131705000D01*
X103445750Y-131705000D01*
X103287000Y-131863750D01*
X103033000Y-131863750D01*
X102874250Y-131705000D01*
X102033690Y-131705000D01*
X101800301Y-131801673D01*
X101621673Y-131980302D01*
X101525000Y-132213691D01*
X100710000Y-132213691D01*
X100710000Y-129045750D01*
X105295000Y-129045750D01*
X105295000Y-129386310D01*
X105391673Y-129619699D01*
X105570302Y-129798327D01*
X105803691Y-129895000D01*
X106144250Y-129895000D01*
X106303000Y-129736250D01*
X106303000Y-128887000D01*
X105453750Y-128887000D01*
X105295000Y-129045750D01*
X100710000Y-129045750D01*
X100710000Y-128133690D01*
X105295000Y-128133690D01*
X105295000Y-128474250D01*
X105453750Y-128633000D01*
X106303000Y-128633000D01*
X106303000Y-127783750D01*
X106144250Y-127625000D01*
X105803691Y-127625000D01*
X105570302Y-127721673D01*
X105391673Y-127900301D01*
X105295000Y-128133690D01*
X100710000Y-128133690D01*
X100710000Y-126012060D01*
X102737545Y-126012060D01*
X102820884Y-126265953D01*
X103385306Y-126471590D01*
X103985458Y-126445579D01*
X104419116Y-126265953D01*
X104502455Y-126012060D01*
X103620000Y-125129605D01*
X102737545Y-126012060D01*
X100710000Y-126012060D01*
X100710000Y-124715306D01*
X102098410Y-124715306D01*
X102124421Y-125315458D01*
X102304047Y-125749116D01*
X102557940Y-125832455D01*
X103440395Y-124950000D01*
X102557940Y-124067545D01*
X102304047Y-124150884D01*
X102098410Y-124715306D01*
X100710000Y-124715306D01*
X100710000Y-100710000D01*
X126466980Y-100710000D01*
X126047269Y-100990442D01*
G36*
X137740000Y-115842440D02*
X137850208Y-115842440D01*
X137732363Y-116126242D01*
X137732037Y-116500118D01*
X137874812Y-116845659D01*
X138138951Y-117110259D01*
X138484242Y-117253637D01*
X138858118Y-117253963D01*
X139203659Y-117111188D01*
X139468259Y-116847049D01*
X139611637Y-116501758D01*
X139611649Y-116487903D01*
X139721552Y-116378000D01*
X141426895Y-116378000D01*
X141517910Y-116519441D01*
X141586006Y-116565969D01*
X141443673Y-116708302D01*
X141347000Y-116941691D01*
X141347000Y-117282250D01*
X141505750Y-117441000D01*
X142355000Y-117441000D01*
X142355000Y-117421000D01*
X142609000Y-117421000D01*
X142609000Y-117441000D01*
X142629000Y-117441000D01*
X142629000Y-117695000D01*
X142609000Y-117695000D01*
X142609000Y-118544250D01*
X142767750Y-118703000D01*
X143108310Y-118703000D01*
X143218600Y-118657316D01*
X143218600Y-118859082D01*
X143058000Y-118826560D01*
X141558000Y-118826560D01*
X141322683Y-118870838D01*
X141106559Y-119009910D01*
X140961569Y-119222110D01*
X140954809Y-119255490D01*
X140896327Y-119114301D01*
X140717698Y-118935673D01*
X140484309Y-118839000D01*
X139893750Y-118839000D01*
X139735000Y-118997750D01*
X139735000Y-119997000D01*
X139755000Y-119997000D01*
X139755000Y-120251000D01*
X139735000Y-120251000D01*
X139735000Y-121250250D01*
X139893750Y-121409000D01*
X140484309Y-121409000D01*
X140717698Y-121312327D01*
X140896327Y-121133699D01*
X140952654Y-120997713D01*
X140954838Y-121009317D01*
X141093910Y-121225441D01*
X141306110Y-121370431D01*
X141498000Y-121409290D01*
X141498000Y-121486488D01*
X141401247Y-121583241D01*
X141401244Y-121583243D01*
X139369244Y-123615244D01*
X139193658Y-123878026D01*
X139132000Y-124188000D01*
X139132000Y-126550666D01*
X139056683Y-126564838D01*
X138951400Y-126632586D01*
X138951400Y-121409000D01*
X139322250Y-121409000D01*
X139481000Y-121250250D01*
X139481000Y-120251000D01*
X139461000Y-120251000D01*
X139461000Y-119997000D01*
X139481000Y-119997000D01*
X139481000Y-118997750D01*
X139322250Y-118839000D01*
X138731691Y-118839000D01*
X138498302Y-118935673D01*
X138319673Y-119114301D01*
X138223000Y-119347690D01*
X138223000Y-119577448D01*
X137480247Y-118834695D01*
X137690259Y-118625049D01*
X137833637Y-118279758D01*
X137833963Y-117905882D01*
X137812423Y-117853750D01*
X141347000Y-117853750D01*
X141347000Y-118194309D01*
X141443673Y-118427698D01*
X141622301Y-118606327D01*
X141855690Y-118703000D01*
X142196250Y-118703000D01*
X142355000Y-118544250D01*
X142355000Y-117695000D01*
X141505750Y-117695000D01*
X141347000Y-117853750D01*
X137812423Y-117853750D01*
X137691188Y-117560341D01*
X137677400Y-117546529D01*
X137677400Y-115829763D01*
X137740000Y-115842440D01*
X137740000Y-115842440D01*
G37*
X137740000Y-115842440D02*
X137850208Y-115842440D01*
X137732363Y-116126242D01*
X137732037Y-116500118D01*
X137874812Y-116845659D01*
X138138951Y-117110259D01*
X138484242Y-117253637D01*
X138858118Y-117253963D01*
X139203659Y-117111188D01*
X139468259Y-116847049D01*
X139611637Y-116501758D01*
X139611649Y-116487903D01*
X139721552Y-116378000D01*
X141426895Y-116378000D01*
X141517910Y-116519441D01*
X141586006Y-116565969D01*
X141443673Y-116708302D01*
X141347000Y-116941691D01*
X141347000Y-117282250D01*
X141505750Y-117441000D01*
X142355000Y-117441000D01*
X142355000Y-117421000D01*
X142609000Y-117421000D01*
X142609000Y-117441000D01*
X142629000Y-117441000D01*
X142629000Y-117695000D01*
X142609000Y-117695000D01*
X142609000Y-118544250D01*
X142767750Y-118703000D01*
X143108310Y-118703000D01*
X143218600Y-118657316D01*
X143218600Y-118859082D01*
X143058000Y-118826560D01*
X141558000Y-118826560D01*
X141322683Y-118870838D01*
X141106559Y-119009910D01*
X140961569Y-119222110D01*
X140954809Y-119255490D01*
X140896327Y-119114301D01*
X140717698Y-118935673D01*
X140484309Y-118839000D01*
X139893750Y-118839000D01*
X139735000Y-118997750D01*
X139735000Y-119997000D01*
X139755000Y-119997000D01*
X139755000Y-120251000D01*
X139735000Y-120251000D01*
X139735000Y-121250250D01*
X139893750Y-121409000D01*
X140484309Y-121409000D01*
X140717698Y-121312327D01*
X140896327Y-121133699D01*
X140952654Y-120997713D01*
X140954838Y-121009317D01*
X141093910Y-121225441D01*
X141306110Y-121370431D01*
X141498000Y-121409290D01*
X141498000Y-121486488D01*
X141401247Y-121583241D01*
X141401244Y-121583243D01*
X139369244Y-123615244D01*
X139193658Y-123878026D01*
X139132000Y-124188000D01*
X139132000Y-126550666D01*
X139056683Y-126564838D01*
X138951400Y-126632586D01*
X138951400Y-121409000D01*
X139322250Y-121409000D01*
X139481000Y-121250250D01*
X139481000Y-120251000D01*
X139461000Y-120251000D01*
X139461000Y-119997000D01*
X139481000Y-119997000D01*
X139481000Y-118997750D01*
X139322250Y-118839000D01*
X138731691Y-118839000D01*
X138498302Y-118935673D01*
X138319673Y-119114301D01*
X138223000Y-119347690D01*
X138223000Y-119577448D01*
X137480247Y-118834695D01*
X137690259Y-118625049D01*
X137833637Y-118279758D01*
X137833963Y-117905882D01*
X137812423Y-117853750D01*
X141347000Y-117853750D01*
X141347000Y-118194309D01*
X141443673Y-118427698D01*
X141622301Y-118606327D01*
X141855690Y-118703000D01*
X142196250Y-118703000D01*
X142355000Y-118544250D01*
X142355000Y-117695000D01*
X141505750Y-117695000D01*
X141347000Y-117853750D01*
X137812423Y-117853750D01*
X137691188Y-117560341D01*
X137677400Y-117546529D01*
X137677400Y-115829763D01*
X137740000Y-115842440D01*
G36*
X131790000Y-113892440D02*
X132106008Y-113892440D01*
X131720888Y-114277560D01*
X131425000Y-114277560D01*
X131189683Y-114321838D01*
X130973559Y-114460910D01*
X130927031Y-114529006D01*
X130784698Y-114386673D01*
X130551309Y-114290000D01*
X130210750Y-114290000D01*
X130052000Y-114448750D01*
X130052000Y-115298000D01*
X130072000Y-115298000D01*
X130072000Y-115552000D01*
X130052000Y-115552000D01*
X130052000Y-116401250D01*
X130210750Y-116560000D01*
X130551309Y-116560000D01*
X130784698Y-116463327D01*
X130835000Y-116413025D01*
X130835000Y-117275508D01*
X125629254Y-122481254D01*
X125566566Y-122575073D01*
X124630746Y-121639254D01*
X124277125Y-121402971D01*
X123860000Y-121320000D01*
X120050000Y-121320000D01*
X119632875Y-121402971D01*
X119279253Y-121639254D01*
X117265948Y-123652560D01*
X116760000Y-123652560D01*
X116524683Y-123696838D01*
X116308559Y-123835910D01*
X116292099Y-123860000D01*
X115124000Y-123860000D01*
X115124000Y-122569000D01*
X115041029Y-122151875D01*
X114804746Y-121798254D01*
X113022440Y-120015948D01*
X113022440Y-118910000D01*
X112978162Y-118674683D01*
X112839090Y-118458559D01*
X112626890Y-118313569D01*
X112375000Y-118262560D01*
X111375000Y-118262560D01*
X111139683Y-118306838D01*
X110923559Y-118445910D01*
X110778569Y-118658110D01*
X110753886Y-118780000D01*
X107250000Y-118780000D01*
X107250000Y-118375502D01*
X107439370Y-118186463D01*
X107669738Y-117631675D01*
X107670262Y-117030960D01*
X107489465Y-116593400D01*
X113707848Y-116593400D01*
X116271224Y-119156776D01*
X116526675Y-119327463D01*
X116828000Y-119387400D01*
X122924000Y-119387400D01*
X123225325Y-119327463D01*
X123480776Y-119156776D01*
X126926802Y-115710750D01*
X128790000Y-115710750D01*
X128790000Y-116051310D01*
X128886673Y-116284699D01*
X129065302Y-116463327D01*
X129298691Y-116560000D01*
X129639250Y-116560000D01*
X129798000Y-116401250D01*
X129798000Y-115552000D01*
X128948750Y-115552000D01*
X128790000Y-115710750D01*
X126926802Y-115710750D01*
X127838862Y-114798690D01*
X128790000Y-114798690D01*
X128790000Y-115139250D01*
X128948750Y-115298000D01*
X129798000Y-115298000D01*
X129798000Y-114448750D01*
X129639250Y-114290000D01*
X129298691Y-114290000D01*
X129065302Y-114386673D01*
X128886673Y-114565301D01*
X128790000Y-114798690D01*
X127838862Y-114798690D01*
X128755152Y-113882400D01*
X131740421Y-113882400D01*
X131790000Y-113892440D01*
X131790000Y-113892440D01*
G37*
X131790000Y-113892440D02*
X132106008Y-113892440D01*
X131720888Y-114277560D01*
X131425000Y-114277560D01*
X131189683Y-114321838D01*
X130973559Y-114460910D01*
X130927031Y-114529006D01*
X130784698Y-114386673D01*
X130551309Y-114290000D01*
X130210750Y-114290000D01*
X130052000Y-114448750D01*
X130052000Y-115298000D01*
X130072000Y-115298000D01*
X130072000Y-115552000D01*
X130052000Y-115552000D01*
X130052000Y-116401250D01*
X130210750Y-116560000D01*
X130551309Y-116560000D01*
X130784698Y-116463327D01*
X130835000Y-116413025D01*
X130835000Y-117275508D01*
X125629254Y-122481254D01*
X125566566Y-122575073D01*
X124630746Y-121639254D01*
X124277125Y-121402971D01*
X123860000Y-121320000D01*
X120050000Y-121320000D01*
X119632875Y-121402971D01*
X119279253Y-121639254D01*
X117265948Y-123652560D01*
X116760000Y-123652560D01*
X116524683Y-123696838D01*
X116308559Y-123835910D01*
X116292099Y-123860000D01*
X115124000Y-123860000D01*
X115124000Y-122569000D01*
X115041029Y-122151875D01*
X114804746Y-121798254D01*
X113022440Y-120015948D01*
X113022440Y-118910000D01*
X112978162Y-118674683D01*
X112839090Y-118458559D01*
X112626890Y-118313569D01*
X112375000Y-118262560D01*
X111375000Y-118262560D01*
X111139683Y-118306838D01*
X110923559Y-118445910D01*
X110778569Y-118658110D01*
X110753886Y-118780000D01*
X107250000Y-118780000D01*
X107250000Y-118375502D01*
X107439370Y-118186463D01*
X107669738Y-117631675D01*
X107670262Y-117030960D01*
X107489465Y-116593400D01*
X113707848Y-116593400D01*
X116271224Y-119156776D01*
X116526675Y-119327463D01*
X116828000Y-119387400D01*
X122924000Y-119387400D01*
X123225325Y-119327463D01*
X123480776Y-119156776D01*
X126926802Y-115710750D01*
X128790000Y-115710750D01*
X128790000Y-116051310D01*
X128886673Y-116284699D01*
X129065302Y-116463327D01*
X129298691Y-116560000D01*
X129639250Y-116560000D01*
X129798000Y-116401250D01*
X129798000Y-115552000D01*
X128948750Y-115552000D01*
X128790000Y-115710750D01*
X126926802Y-115710750D01*
X127838862Y-114798690D01*
X128790000Y-114798690D01*
X128790000Y-115139250D01*
X128948750Y-115298000D01*
X129798000Y-115298000D01*
X129798000Y-114448750D01*
X129639250Y-114290000D01*
X129298691Y-114290000D01*
X129065302Y-114386673D01*
X128886673Y-114565301D01*
X128790000Y-114798690D01*
X127838862Y-114798690D01*
X128755152Y-113882400D01*
X131740421Y-113882400D01*
X131790000Y-113892440D01*
G36*
X134488110Y-107291431D02*
X134609830Y-107316080D01*
X134623750Y-107330000D01*
X134666310Y-107330000D01*
X134670335Y-107328333D01*
X134740000Y-107342440D01*
X135040000Y-107342440D01*
X135143671Y-107322933D01*
X135240000Y-107342440D01*
X135540000Y-107342440D01*
X135643671Y-107322933D01*
X135740000Y-107342440D01*
X136040000Y-107342440D01*
X136143671Y-107322933D01*
X136240000Y-107342440D01*
X136540000Y-107342440D01*
X136643671Y-107322933D01*
X136740000Y-107342440D01*
X137040000Y-107342440D01*
X137143671Y-107322933D01*
X137240000Y-107342440D01*
X137540000Y-107342440D01*
X137643671Y-107322933D01*
X137716581Y-107337698D01*
X137690537Y-107376675D01*
X137630600Y-107678000D01*
X137630600Y-108440000D01*
X137690537Y-108741325D01*
X137861224Y-108996776D01*
X138369224Y-109504776D01*
X138624675Y-109675463D01*
X138926000Y-109735400D01*
X139642560Y-109735400D01*
X139642560Y-109745000D01*
X139662067Y-109848671D01*
X139642560Y-109945000D01*
X139642560Y-110245000D01*
X139662067Y-110348671D01*
X139642560Y-110445000D01*
X139642560Y-110745000D01*
X139662067Y-110848671D01*
X139642560Y-110945000D01*
X139642560Y-111245000D01*
X139662067Y-111348671D01*
X139642560Y-111445000D01*
X139642560Y-111745000D01*
X139662067Y-111848671D01*
X139642560Y-111945000D01*
X139642560Y-112245000D01*
X139662067Y-112348671D01*
X139642560Y-112445000D01*
X139642560Y-112745000D01*
X139662067Y-112848671D01*
X139642560Y-112945000D01*
X139642560Y-113245000D01*
X139666685Y-113373214D01*
X139540000Y-113347560D01*
X139240000Y-113347560D01*
X139168677Y-113360980D01*
X139166310Y-113360000D01*
X139123750Y-113360000D01*
X139112129Y-113371621D01*
X139004683Y-113391838D01*
X138890022Y-113465620D01*
X138791890Y-113398569D01*
X138670170Y-113373920D01*
X138656250Y-113360000D01*
X138613690Y-113360000D01*
X138609665Y-113361667D01*
X138540000Y-113347560D01*
X138240000Y-113347560D01*
X138136329Y-113367067D01*
X138040000Y-113347560D01*
X137740000Y-113347560D01*
X137636329Y-113367067D01*
X137540000Y-113347560D01*
X137240000Y-113347560D01*
X137136329Y-113367067D01*
X137040000Y-113347560D01*
X136740000Y-113347560D01*
X136636329Y-113367067D01*
X136540000Y-113347560D01*
X136240000Y-113347560D01*
X136136329Y-113367067D01*
X136040000Y-113347560D01*
X135740000Y-113347560D01*
X135636329Y-113367067D01*
X135540000Y-113347560D01*
X135240000Y-113347560D01*
X135136329Y-113367067D01*
X135040000Y-113347560D01*
X134740000Y-113347560D01*
X134636329Y-113367067D01*
X134614188Y-113362584D01*
X134633400Y-113266000D01*
X134633400Y-111996000D01*
X134573463Y-111694675D01*
X134402776Y-111439224D01*
X134001776Y-111038224D01*
X133746325Y-110867537D01*
X133625000Y-110843404D01*
X133625000Y-110818691D01*
X133623332Y-110814665D01*
X133637440Y-110745000D01*
X133637440Y-110445000D01*
X133617933Y-110341329D01*
X133637440Y-110245000D01*
X133637440Y-109945000D01*
X133617933Y-109841329D01*
X133637440Y-109745000D01*
X133637440Y-109445000D01*
X133617933Y-109341329D01*
X133637440Y-109245000D01*
X133637440Y-108945000D01*
X133617933Y-108841329D01*
X133637440Y-108745000D01*
X133637440Y-108445000D01*
X133617933Y-108341329D01*
X133637440Y-108245000D01*
X133637440Y-107945000D01*
X133617933Y-107841329D01*
X133637440Y-107745000D01*
X133637440Y-107445000D01*
X133613315Y-107316786D01*
X133740000Y-107342440D01*
X134040000Y-107342440D01*
X134111323Y-107329020D01*
X134113690Y-107330000D01*
X134156250Y-107330000D01*
X134167871Y-107318379D01*
X134275317Y-107298162D01*
X134389978Y-107224380D01*
X134488110Y-107291431D01*
X134488110Y-107291431D01*
G37*
X134488110Y-107291431D02*
X134609830Y-107316080D01*
X134623750Y-107330000D01*
X134666310Y-107330000D01*
X134670335Y-107328333D01*
X134740000Y-107342440D01*
X135040000Y-107342440D01*
X135143671Y-107322933D01*
X135240000Y-107342440D01*
X135540000Y-107342440D01*
X135643671Y-107322933D01*
X135740000Y-107342440D01*
X136040000Y-107342440D01*
X136143671Y-107322933D01*
X136240000Y-107342440D01*
X136540000Y-107342440D01*
X136643671Y-107322933D01*
X136740000Y-107342440D01*
X137040000Y-107342440D01*
X137143671Y-107322933D01*
X137240000Y-107342440D01*
X137540000Y-107342440D01*
X137643671Y-107322933D01*
X137716581Y-107337698D01*
X137690537Y-107376675D01*
X137630600Y-107678000D01*
X137630600Y-108440000D01*
X137690537Y-108741325D01*
X137861224Y-108996776D01*
X138369224Y-109504776D01*
X138624675Y-109675463D01*
X138926000Y-109735400D01*
X139642560Y-109735400D01*
X139642560Y-109745000D01*
X139662067Y-109848671D01*
X139642560Y-109945000D01*
X139642560Y-110245000D01*
X139662067Y-110348671D01*
X139642560Y-110445000D01*
X139642560Y-110745000D01*
X139662067Y-110848671D01*
X139642560Y-110945000D01*
X139642560Y-111245000D01*
X139662067Y-111348671D01*
X139642560Y-111445000D01*
X139642560Y-111745000D01*
X139662067Y-111848671D01*
X139642560Y-111945000D01*
X139642560Y-112245000D01*
X139662067Y-112348671D01*
X139642560Y-112445000D01*
X139642560Y-112745000D01*
X139662067Y-112848671D01*
X139642560Y-112945000D01*
X139642560Y-113245000D01*
X139666685Y-113373214D01*
X139540000Y-113347560D01*
X139240000Y-113347560D01*
X139168677Y-113360980D01*
X139166310Y-113360000D01*
X139123750Y-113360000D01*
X139112129Y-113371621D01*
X139004683Y-113391838D01*
X138890022Y-113465620D01*
X138791890Y-113398569D01*
X138670170Y-113373920D01*
X138656250Y-113360000D01*
X138613690Y-113360000D01*
X138609665Y-113361667D01*
X138540000Y-113347560D01*
X138240000Y-113347560D01*
X138136329Y-113367067D01*
X138040000Y-113347560D01*
X137740000Y-113347560D01*
X137636329Y-113367067D01*
X137540000Y-113347560D01*
X137240000Y-113347560D01*
X137136329Y-113367067D01*
X137040000Y-113347560D01*
X136740000Y-113347560D01*
X136636329Y-113367067D01*
X136540000Y-113347560D01*
X136240000Y-113347560D01*
X136136329Y-113367067D01*
X136040000Y-113347560D01*
X135740000Y-113347560D01*
X135636329Y-113367067D01*
X135540000Y-113347560D01*
X135240000Y-113347560D01*
X135136329Y-113367067D01*
X135040000Y-113347560D01*
X134740000Y-113347560D01*
X134636329Y-113367067D01*
X134614188Y-113362584D01*
X134633400Y-113266000D01*
X134633400Y-111996000D01*
X134573463Y-111694675D01*
X134402776Y-111439224D01*
X134001776Y-111038224D01*
X133746325Y-110867537D01*
X133625000Y-110843404D01*
X133625000Y-110818691D01*
X133623332Y-110814665D01*
X133637440Y-110745000D01*
X133637440Y-110445000D01*
X133617933Y-110341329D01*
X133637440Y-110245000D01*
X133637440Y-109945000D01*
X133617933Y-109841329D01*
X133637440Y-109745000D01*
X133637440Y-109445000D01*
X133617933Y-109341329D01*
X133637440Y-109245000D01*
X133637440Y-108945000D01*
X133617933Y-108841329D01*
X133637440Y-108745000D01*
X133637440Y-108445000D01*
X133617933Y-108341329D01*
X133637440Y-108245000D01*
X133637440Y-107945000D01*
X133617933Y-107841329D01*
X133637440Y-107745000D01*
X133637440Y-107445000D01*
X133613315Y-107316786D01*
X133740000Y-107342440D01*
X134040000Y-107342440D01*
X134111323Y-107329020D01*
X134113690Y-107330000D01*
X134156250Y-107330000D01*
X134167871Y-107318379D01*
X134275317Y-107298162D01*
X134389978Y-107224380D01*
X134488110Y-107291431D01*
G36*
X131330000Y-102439250D02*
X131488750Y-102598000D01*
X132338000Y-102598000D01*
X132338000Y-102578000D01*
X132592000Y-102578000D01*
X132592000Y-102598000D01*
X132612000Y-102598000D01*
X132612000Y-102852000D01*
X132592000Y-102852000D01*
X132592000Y-103701250D01*
X132750750Y-103860000D01*
X133091309Y-103860000D01*
X133324698Y-103763327D01*
X133465936Y-103622090D01*
X133500910Y-103676441D01*
X133713110Y-103821431D01*
X133965000Y-103872440D01*
X134498888Y-103872440D01*
X135102600Y-104476152D01*
X135102600Y-104860237D01*
X135040000Y-104847560D01*
X134740000Y-104847560D01*
X134668677Y-104860980D01*
X134666310Y-104860000D01*
X134623750Y-104860000D01*
X134612129Y-104871621D01*
X134504683Y-104891838D01*
X134390022Y-104965620D01*
X134291890Y-104898569D01*
X134170170Y-104873920D01*
X134156250Y-104860000D01*
X134113690Y-104860000D01*
X134109665Y-104861667D01*
X134040000Y-104847560D01*
X133740000Y-104847560D01*
X133504683Y-104891838D01*
X133288559Y-105030910D01*
X133143569Y-105243110D01*
X133130509Y-105307600D01*
X132674054Y-105307600D01*
X132647162Y-105164683D01*
X132634000Y-105144229D01*
X132634000Y-104710434D01*
X132649999Y-104630000D01*
X132567029Y-104212875D01*
X132330746Y-103859254D01*
X132240378Y-103798872D01*
X132338000Y-103701250D01*
X132338000Y-102852000D01*
X131488750Y-102852000D01*
X131330000Y-103010750D01*
X131330000Y-103351310D01*
X131419717Y-103567905D01*
X131142875Y-103622971D01*
X131115366Y-103641352D01*
X131165000Y-103391827D01*
X131165000Y-102395868D01*
X131330000Y-102230868D01*
X131330000Y-102439250D01*
X131330000Y-102439250D01*
G37*
X131330000Y-102439250D02*
X131488750Y-102598000D01*
X132338000Y-102598000D01*
X132338000Y-102578000D01*
X132592000Y-102578000D01*
X132592000Y-102598000D01*
X132612000Y-102598000D01*
X132612000Y-102852000D01*
X132592000Y-102852000D01*
X132592000Y-103701250D01*
X132750750Y-103860000D01*
X133091309Y-103860000D01*
X133324698Y-103763327D01*
X133465936Y-103622090D01*
X133500910Y-103676441D01*
X133713110Y-103821431D01*
X133965000Y-103872440D01*
X134498888Y-103872440D01*
X135102600Y-104476152D01*
X135102600Y-104860237D01*
X135040000Y-104847560D01*
X134740000Y-104847560D01*
X134668677Y-104860980D01*
X134666310Y-104860000D01*
X134623750Y-104860000D01*
X134612129Y-104871621D01*
X134504683Y-104891838D01*
X134390022Y-104965620D01*
X134291890Y-104898569D01*
X134170170Y-104873920D01*
X134156250Y-104860000D01*
X134113690Y-104860000D01*
X134109665Y-104861667D01*
X134040000Y-104847560D01*
X133740000Y-104847560D01*
X133504683Y-104891838D01*
X133288559Y-105030910D01*
X133143569Y-105243110D01*
X133130509Y-105307600D01*
X132674054Y-105307600D01*
X132647162Y-105164683D01*
X132634000Y-105144229D01*
X132634000Y-104710434D01*
X132649999Y-104630000D01*
X132567029Y-104212875D01*
X132330746Y-103859254D01*
X132240378Y-103798872D01*
X132338000Y-103701250D01*
X132338000Y-102852000D01*
X131488750Y-102852000D01*
X131330000Y-103010750D01*
X131330000Y-103351310D01*
X131419717Y-103567905D01*
X131142875Y-103622971D01*
X131115366Y-103641352D01*
X131165000Y-103391827D01*
X131165000Y-102395868D01*
X131330000Y-102230868D01*
X131330000Y-102439250D01*
M02*
