M48
INCH,TZ
T10C0.037
T11C0.012
T12C0.016
T13C0.039
T14C0.051
%
T10
X055429Y-56390
X057161Y-56390
T11
X043695Y-50293
X050395Y-45493
X051795Y-41193
X051795Y-49193
X051895Y-49993
X051995Y-46293
X052795Y-41093
X053095Y-43293
X053595Y-46093
X053895Y-46493
X054595Y-45793
X054795Y-42593
X054795Y-44393
X056095Y-43793
X056395Y-41793
X056395Y-43593
X057395Y-54393
T12
X048495Y-50693
X050795Y-43793
X055095Y-46293
T13
X040795Y-44693
X040795Y-46193
X040795Y-47193
X040795Y-48193
X040795Y-49193
X041795Y-44693
X041795Y-46193
X041795Y-47193
X041795Y-48193
X041795Y-49193
X050045Y-40443
X051045Y-40443
X054295Y-40443
X055295Y-40443
X056295Y-40443
X057295Y-40443
X057795Y-50193
X057795Y-51193
X057795Y-52193
X057795Y-53193
X058295Y-40443
T14
X040795Y-57193
X042795Y-57193
X048795Y-57193
X050795Y-57193
X052795Y-57193
M30

