  0
SECTION
  2
HEADER
  9
$ACADVER
  1
AC1032
  9
$ACADMAINTVER
 90
       55
  9
$DWGCODEPAGE
  3
ISO8859-1
  9
$LASTSAVEDBY
  1
Peter
  9
$REQUIREDVERSIONS
160
                 0
  9
$INSBASE
 10
0.0
 20
0.0
 30
0.0
  9
$EXTMIN
 10
1.000000000000000E+20
 20
1.000000000000000E+20
 30
1.000000000000000E+20
  9
$EXTMAX
 10
-1.000000000000000E+20
 20
-1.000000000000000E+20
 30
-1.000000000000000E+20
  9
$LIMMIN
 10
0.0
 20
0.0
  9
$LIMMAX
 10
420.0
 20
297.0
  9
$ORTHOMODE
 70
     0
  9
$REGENMODE
 70
     1
  9
$FILLMODE
 70
     1
  9
$QTEXTMODE
 70
     0
  9
$MIRRTEXT
 70
     1
  9
$LTSCALE
 40
1.0
  9
$ATTMODE
 70
     1
  9
$TEXTSIZE
 40
2.5
  9
$TRACEWID
 40
1.0
  9
$TEXTSTYLE
  7
Standard
  9
$CLAYER
  8
0
  9
$CELTYPE
  6
ByLayer
  9
$CECOLOR
 62
   256
  9
$CELTSCALE
 40
1.0
  9
$DISPSILH
 70
     0
  9
$DIMSCALE
 40
1.0
  9
$DIMASZ
 40
2.5
  9
$DIMEXO
 40
0.625
  9
$DIMDLI
 40
3.75
  9
$DIMRND
 40
0.0
  9
$DIMDLE
 40
0.0
  9
$DIMEXE
 40
1.25
  9
$DIMTP
 40
0.0
  9
$DIMTM
 40
0.0
  9
$DIMTXT
 40
2.5
  9
$DIMCEN
 40
2.5
  9
$DIMTSZ
 40
0.0
  9
$DIMTOL
 70
     0
  9
$DIMLIM
 70
     0
  9
$DIMTIH
 70
     0
  9
$DIMTOH
 70
     0
  9
$DIMSE1
 70
     0
  9
$DIMSE2
 70
     0
  9
$DIMTAD
 70
     1
  9
$DIMZIN
 70
     8
  9
$DIMBLK
  1

  9
$DIMASO
 70
     1
  9
$DIMSHO
 70
     1
  9
$DIMPOST
  1

  9
$DIMAPOST
  1

  9
$DIMALT
 70
     0
  9
$DIMALTD
 70
     3
  9
$DIMALTF
 40
0.03937007874016
  9
$DIMLFAC
 40
1.0
  9
$DIMTOFL
 70
     1
  9
$DIMTVP
 40
0.0
  9
$DIMTIX
 70
     0
  9
$DIMSOXD
 70
     0
  9
$DIMSAH
 70
     0
  9
$DIMBLK1
  1

  9
$DIMBLK2
  1

  9
$DIMSTYLE
  2
ISO-25
  9
$DIMCLRD
 70
     0
  9
$DIMCLRE
 70
     0
  9
$DIMCLRT
 70
     0
  9
$DIMTFAC
 40
1.0
  9
$DIMGAP
 40
0.625
  9
$DIMJUST
 70
     0
  9
$DIMSD1
 70
     0
  9
$DIMSD2
 70
     0
  9
$DIMTOLJ
 70
     0
  9
$DIMTZIN
 70
     8
  9
$DIMALTZ
 70
     0
  9
$DIMALTTZ
 70
     0
  9
$DIMUPT
 70
     0
  9
$DIMDEC
 70
     2
  9
$DIMTDEC
 70
     2
  9
$DIMALTU
 70
     2
  9
$DIMALTTD
 70
     3
  9
$DIMTXSTY
  7
Standard
  9
$DIMAUNIT
 70
     0
  9
$DIMADEC
 70
     0
  9
$DIMALTRND
 40
0.0
  9
$DIMAZIN
 70
     0
  9
$DIMDSEP
 70
    44
  9
$DIMATFIT
 70
     3
  9
$DIMFRAC
 70
     0
  9
$DIMLDRBLK
  1

  9
$DIMLUNIT
 70
     2
  9
$DIMLWD
 70
    -2
  9
$DIMLWE
 70
    -2
  9
$DIMTMOVE
 70
     0
  9
$DIMFXL
 40
1.0
  9
$DIMFXLON
 70
     0
  9
$DIMJOGANG
 40
0.7853981633974483
  9
$DIMTFILL
 70
     0
  9
$DIMTFILLCLR
 70
     0
  9
$DIMARCSYM
 70
     0
  9
$DIMLTYPE
  6

  9
$DIMLTEX1
  6

  9
$DIMLTEX2
  6

  9
$DIMTXTDIRECTION
 70
     0
  9
$LUNITS
 70
     2
  9
$LUPREC
 70
     4
  9
$SKETCHINC
 40
1.0
  9
$FILLETRAD
 40
0.0
  9
$AUNITS
 70
     0
  9
$AUPREC
 70
     0
  9
$MENU
  1
.
  9
$ELEVATION
 40
0.0
  9
$PELEVATION
 40
0.0
  9
$THICKNESS
 40
0.0
  9
$LIMCHECK
 70
     0
  9
$CHAMFERA
 40
0.0
  9
$CHAMFERB
 40
0.0
  9
$CHAMFERC
 40
0.0
  9
$CHAMFERD
 40
0.0
  9
$SKPOLY
 70
     0
  9
$TDCREATE
 40
2460709.741151424
  9
$TDUCREATE
 40
2460709.699484757
  9
$TDUPDATE
 40
2460709.741151493
  9
$TDUUPDATE
 40
2460709.699484827
  9
$TDINDWG
 40
0.0000000116
  9
$TDUSRTIMER
 40
0.0000000116
  9
$USRTIMER
 70
     1
  9
$ANGBASE
 50
0.0
  9
$ANGDIR
 70
     0
  9
$PDMODE
 70
     0
  9
$PDSIZE
 40
0.0
  9
$PLINEWID
 40
0.0
  9
$SPLFRAME
 70
     0
  9
$SPLINETYPE
 70
     6
  9
$SPLINESEGS
 70
     8
  9
$HANDSEED
  5
E1
  9
$SURFTAB1
 70
     6
  9
$SURFTAB2
 70
     6
  9
$SURFTYPE
 70
     6
  9
$SURFU
 70
     6
  9
$SURFV
 70
     6
  9
$UCSBASE
  2

  9
$UCSNAME
  2

  9
$UCSORG
 10
0.0
 20
0.0
 30
0.0
  9
$UCSXDIR
 10
1.0
 20
0.0
 30
0.0
  9
$UCSYDIR
 10
0.0
 20
1.0
 30
0.0
  9
$UCSORTHOREF
  2

  9
$UCSORTHOVIEW
 70
     0
  9
$UCSORGTOP
 10
0.0
 20
0.0
 30
0.0
  9
$UCSORGBOTTOM
 10
0.0
 20
0.0
 30
0.0
  9
$UCSORGLEFT
 10
0.0
 20
0.0
 30
0.0
  9
$UCSORGRIGHT
 10
0.0
 20
0.0
 30
0.0
  9
$UCSORGFRONT
 10
0.0
 20
0.0
 30
0.0
  9
$UCSORGBACK
 10
0.0
 20
0.0
 30
0.0
  9
$PUCSBASE
  2

  9
$PUCSNAME
  2

  9
$PUCSORG
 10
0.0
 20
0.0
 30
0.0
  9
$PUCSXDIR
 10
1.0
 20
0.0
 30
0.0
  9
$PUCSYDIR
 10
0.0
 20
1.0
 30
0.0
  9
$PUCSORTHOREF
  2

  9
$PUCSORTHOVIEW
 70
     0
  9
$PUCSORGTOP
 10
0.0
 20
0.0
 30
0.0
  9
$PUCSORGBOTTOM
 10
0.0
 20
0.0
 30
0.0
  9
$PUCSORGLEFT
 10
0.0
 20
0.0
 30
0.0
  9
$PUCSORGRIGHT
 10
0.0
 20
0.0
 30
0.0
  9
$PUCSORGFRONT
 10
0.0
 20
0.0
 30
0.0
  9
$PUCSORGBACK
 10
0.0
 20
0.0
 30
0.0
  9
$USERI1
 70
     0
  9
$USERI2
 70
     0
  9
$USERI3
 70
     0
  9
$USERI4
 70
     0
  9
$USERI5
 70
     0
  9
$USERR1
 40
0.0
  9
$USERR2
 40
0.0
  9
$USERR3
 40
0.0
  9
$USERR4
 40
0.0
  9
$USERR5
 40
0.0
  9
$WORLDVIEW
 70
     1
  9
$SHADEDGE
 70
     3
  9
$SHADEDIF
 70
    70
  9
$TILEMODE
 70
     1
  9
$MAXACTVP
 70
    64
  9
$PINSBASE
 10
0.0
 20
0.0
 30
0.0
  9
$PLIMCHECK
 70
     0
  9
$PEXTMIN
 10
218.0846666666667
 20
218.0846666666668
 30
0.0
  9
$PEXTMAX
 10
0.0
 20
0.0
 30
0.0
  9
$PLIMMIN
 10
-20.0
 20
-7.5
  9
$PLIMMAX
 10
277.0
 20
202.5
  9
$UNITMODE
 70
     0
  9
$VISRETAIN
 70
     1
  9
$PLINEGEN
 70
     0
  9
$PSLTSCALE
 70
     1
  9
$TREEDEPTH
 70
  3020
  9
$CMLSTYLE
  2
Standard
  9
$CMLJUST
 70
     0
  9
$CMLSCALE
 40
20.0
  9
$PROXYGRAPHICS
 70
     1
  9
$MEASUREMENT
 70
     1
  9
$CELWEIGHT
370
    -1
  9
$ENDCAPS
280
     0
  9
$JOINSTYLE
280
     0
  9
$LWDISPLAY
290
     0
  9
$INSUNITS
 70
     4
  9
$HYPERLINKBASE
  1

  9
$STYLESHEET
  1

  9
$XEDIT
290
     1
  9
$CEPSNTYPE
380
     0
  9
$PSTYLEMODE
290
     1
  9
$FINGERPRINTGUID
  2
{a037de89-c8de-4882-a694-7057a077098e}
  9
$VERSIONGUID
  2
{FAEB1C32-E019-11D5-929B-00C0DF256EC4}
  9
$EXTNAMES
290
     1
  9
$PSVPSCALE
 40
0.0
  9
$OLESTARTUP
290
     0
  9
$SORTENTS
280
   127
  9
$INDEXCTL
280
     0
  9
$HIDETEXT
280
     1
  9
$XCLIPFRAME
280
     2
  9
$HALOGAP
280
     0
  9
$OBSCOLOR
 70
   257
  9
$OBSLTYPE
280
     0
  9
$INTERSECTIONDISPLAY
280
     0
  9
$INTERSECTIONCOLOR
 70
   257
  9
$DIMASSOC
280
     2
  9
$PROJECTNAME
  1

  9
$CAMERADISPLAY
290
     0
  9
$LENSLENGTH
 40
50.0
  9
$CAMERAHEIGHT
 40
0.0
  9
$STEPSPERSEC
 40
2.0
  9
$STEPSIZE
 40
6.0
  9
$3DDWFPREC
 40
2.0
  9
$PSOLWIDTH
 40
5.0
  9
$PSOLHEIGHT
 40
80.0
  9
$LOFTANG1
 40
1.570796326794897
  9
$LOFTANG2
 40
1.570796326794897
  9
$LOFTMAG1
 40
0.0
  9
$LOFTMAG2
 40
0.0
  9
$LOFTPARAM
 70
     7
  9
$LOFTNORMALS
280
     1
  9
$LATITUDE
 40
37.795
  9
$LONGITUDE
 40
-122.394
  9
$NORTHDIRECTION
 40
0.0
  9
$TIMEZONE
 70
 -8000
  9
$LIGHTGLYPHDISPLAY
280
     1
  9
$TILEMODELIGHTSYNCH
280
     1
  9
$CMATERIAL
347
44
  9
$SOLIDHIST
280
     0
  9
$SHOWHIST
280
     1
  9
$DWFFRAME
280
     2
  9
$DGNFRAME
280
     2
  9
$REALWORLDSCALE
290
     1
  9
$INTERFERECOLOR
 62
   256
  9
$CSHADOW
280
     0
  9
$SHADOWPLANELOCATION
 40
0.0
  0
ENDSEC
  0
SECTION
  2
CLASSES
  0
CLASS
  1
ACDBDICTIONARYWDFLT
  2
AcDbDictionaryWithDefault
  3
ObjectDBX Classes
 90
        0
 91
        3
280
     0
281
     0
  0
CLASS
  1
VISUALSTYLE
  2
AcDbVisualStyle
  3
ObjectDBX Classes
 90
     4095
 91
        3
280
     0
281
     0
  0
CLASS
  1
MATERIAL
  2
AcDbMaterial
  3
ObjectDBX Classes
 90
     1153
 91
        3
280
     0
281
     0
  0
CLASS
  1
SCALE
  2
AcDbScale
  3
ObjectDBX Classes
 90
     1153
 91
        3
280
     0
281
     0
  0
CLASS
  1
TABLESTYLE
  2
AcDbTableStyle
  3
ObjectDBX Classes
 90
     4095
 91
        3
280
     0
281
     0
  0
CLASS
  1
MLEADERSTYLE
  2
AcDbMLeaderStyle
  3
ACDB_MLEADERSTYLE_CLASS
 90
     4095
 91
        3
280
     0
281
     0
  0
CLASS
  1
SUN
  2
AcDbSun
  3
SCENEOE
 90
     1153
 91
        3
280
     0
281
     0
  0
CLASS
  1
DICTIONARYVAR
  2
AcDbDictionaryVar
  3
ObjectDBX Classes
 90
        0
 91
        3
280
     0
281
     0
  0
CLASS
  1
CELLSTYLEMAP
  2
AcDbCellStyleMap
  3
ObjectDBX Classes
 90
     1152
 91
        3
280
     0
281
     0
  0
ENDSEC
  0
SECTION
  2
TABLES
  0
TABLE
  2
VPORT
  5
8
330
0
100
AcDbSymbolTable
 70
     1
  0
VPORT
  5
29
330
8
100
AcDbSymbolTableRecord
100
AcDbViewportTableRecord
  2
*Active
 70
     0
 10
0.0
 20
0.0
 11
1.0
 21
1.0
 12
148.5
 22
109.0423333333334
 13
0.0
 23
0.0
 14
10.0
 24
10.0
 15
10.0
 25
10.0
 16
0.0
 26
0.0
 36
1.0
 17
0.0
 27
0.0
 37
0.0
 40
218.0846666666667
 41
1.972972972850329
 42
50.0
 43
0.0
 44
0.0
 50
0.0
 51
0.0
 71
     0
 72
   100
 73
     1
 74
     3
 75
     0
 76
     0
 77
     0
 78
     0
281
     0
 65
     1
110
0.0
120
0.0
130
0.0
111
1.0
121
0.0
131
0.0
112
0.0
122
1.0
132
0.0
 79
     0
146
0.0
348
2F
 60
     3
 61
     5
292
     1
282
     1
141
0.0
142
0.0
 63
   250
361
5D
  0
ENDTAB
  0
TABLE
  2
LTYPE
  5
5
330
0
100
AcDbSymbolTable
 70
     1
  0
LTYPE
  5
14
330
5
100
AcDbSymbolTableRecord
100
AcDbLinetypeTableRecord
  2
ByBlock
 70
     0
  3

 72
    65
 73
     0
 40
0.0
  0
LTYPE
  5
15
330
5
100
AcDbSymbolTableRecord
100
AcDbLinetypeTableRecord
  2
ByLayer
 70
     0
  3

 72
    65
 73
     0
 40
0.0
  0
LTYPE
  5
16
330
5
100
AcDbSymbolTableRecord
100
AcDbLinetypeTableRecord
  2
Continuous
 70
     0
  3
Solid line
 72
    65
 73
     0
 40
0.0
  0
ENDTAB
  0
TABLE
  2
LAYER
  5
2
330
0
100
AcDbSymbolTable
 70
     1
  0
LAYER
  5
10
330
2
100
AcDbSymbolTableRecord
100
AcDbLayerTableRecord
  2
0
 70
     0
 62
     7
  6
Continuous
370
    -3
390
F
347
46
348
0
  0
ENDTAB
  0
TABLE
  2
STYLE
  5
3
330
0
100
AcDbSymbolTable
 70
     1
  0
STYLE
  5
11
330
3
100
AcDbSymbolTableRecord
100
AcDbTextStyleTableRecord
  2
Standard
 70
     0
 40
0.0
 41
1.0
 50
0.0
 71
     0
 42
2.5
  3
txt
  4

  0
ENDTAB
  0
TABLE
  2
VIEW
  5
6
330
0
100
AcDbSymbolTable
 70
     0
  0
ENDTAB
  0
TABLE
  2
UCS
  5
7
330
0
100
AcDbSymbolTable
 70
     0
  0
ENDTAB
  0
TABLE
  2
APPID
  5
9
330
0
100
AcDbSymbolTable
 70
     1
  0
APPID
  5
12
330
9
100
AcDbSymbolTableRecord
100
AcDbRegAppTableRecord
  2
ACAD
 70
     0
  0
ENDTAB
  0
TABLE
  2
DIMSTYLE
  5
A
330
0
100
AcDbSymbolTable
 70
     1
100
AcDbDimStyleTable
  0
DIMSTYLE
105
27
330
A
100
AcDbSymbolTableRecord
100
AcDbDimStyleTableRecord
  2
ISO-25
 70
     0
 41
2.5
 42
0.625
 43
3.75
 44
1.25
 73
     0
 74
     0
 77
     1
 78
     8
140
2.5
141
2.5
143
0.03937007874016
147
0.625
171
     3
172
     1
178
     0
271
     2
272
     2
274
     3
278
    44
283
     0
284
     8
340
11
  0
ENDTAB
  0
TABLE
  2
BLOCK_RECORD
  5
1
330
0
100
AcDbSymbolTable
 70
     0
  0
BLOCK_RECORD
  5
1F
330
1
100
AcDbSymbolTableRecord
100
AcDbBlockTableRecord
  2
*Model_Space
340
22
 70
     0
280
     1
281
     0
  0
BLOCK_RECORD
  5
CE
330
1
100
AcDbSymbolTableRecord
100
AcDbBlockTableRecord
  2
*Paper_Space
340
CF
 70
     0
280
     1
281
     0
  0
ENDTAB
  0
ENDSEC
  0
SECTION
  2
BLOCKS
  0
BLOCK
  5
20
330
1F
100
AcDbEntity
  8
0
100
AcDbBlockBegin
  2
*Model_Space
 70
     0
 10
0.0
 20
0.0
 30
0.0
  3
*Model_Space
  1

  0
ENDBLK
  5
21
330
1F
100
AcDbEntity
  8
0
100
AcDbBlockEnd
  0
BLOCK
  5
D0
330
CE
100
AcDbEntity
 67
     1
  8
0
100
AcDbBlockBegin
  2
*Paper_Space
 70
     0
 10
0.0
 20
0.0
 30
0.0
  3
*Paper_Space
  1

  0
ENDBLK
  5
D1
330
CE
100
AcDbEntity
 67
     1
  8
0
100
AcDbBlockEnd
  0
ENDSEC
  0
SECTION
  2
ENTITIES
  0
LWPOLYLINE
  5
5E
330
1F
100
AcDbEntity
  8
0
  6
Continuous
 62
    18
420
        0
370
     9
100
AcDbPolyline
 90
        5
 70
     1
 43
0.0
 10
257.5
 20
218.0423333333335
 10
257.5
 20
0.0423333333333744
 10
39.49999999999998
 20
0.0423333333333744
 10
39.49999999999998
 20
218.0423333333335
 10
257.5
 20
218.0423333333335
  0
SPLINE
  5
5F
330
1F
100
AcDbEntity
  8
0
  6
Continuous
 62
    18
420
        0
370
     9
100
AcDbSpline
210
0.0
220
0.0
230
1.0
 70
    11
 71
     3
 72
    17
 73
    13
 74
     0
 42
0.000000001
 43
0.0
 40
0.0
 40
0.0
 40
0.0
 40
0.0
 40
1.0
 40
1.0
 40
1.0
 40
2.0
 40
2.0
 40
2.0
 40
3.0
 40
3.0
 40
3.0
 40
4.0
 40
4.0
 40
4.0
 40
4.0
 10
65.16499999999999
 20
191.5723333333333
 30
0.0
 10
69.304362683705
 20
191.5723333333333
 30
0.0
 10
72.66499999999999
 20
188.2116960170383
 30
0.0
 10
72.66499999999999
 20
184.0723333333332
 30
0.0
 10
72.66499999999999
 20
179.9329706496283
 30
0.0
 10
69.304362683705
 20
176.5723333333333
 30
0.0
 10
65.16499999999999
 20
176.5723333333333
 30
0.0
 10
61.02563731629499
 20
176.5723333333333
 30
0.0
 10
57.66499999999998
 20
179.9329706496283
 30
0.0
 10
57.66499999999998
 20
184.0723333333332
 30
0.0
 10
57.66499999999998
 20
188.2116960170383
 30
0.0
 10
61.02563731629499
 20
191.5723333333333
 30
0.0
 10
65.16499999999999
 20
191.5723333333333
 30
0.0
  0
SPLINE
  5
60
330
1F
100
AcDbEntity
  8
0
  6
Continuous
 62
    18
420
        0
370
     9
100
AcDbSpline
210
0.0
220
0.0
230
1.0
 70
    11
 71
     3
 72
    17
 73
    13
 74
     0
 42
0.000000001
 43
0.0
 40
0.0
 40
0.0
 40
0.0
 40
0.0
 40
1.0
 40
1.0
 40
1.0
 40
2.0
 40
2.0
 40
2.0
 40
3.0
 40
3.0
 40
3.0
 40
4.0
 40
4.0
 40
4.0
 40
4.0
 10
81.825
 20
191.5723333333333
 30
0.0
 10
85.964362683705
 20
191.5723333333333
 30
0.0
 10
89.32499999999999
 20
188.2116960170383
 30
0.0
 10
89.32499999999999
 20
184.0723333333332
 30
0.0
 10
89.32499999999999
 20
179.9329706496283
 30
0.0
 10
85.964362683705
 20
176.5723333333333
 30
0.0
 10
81.825
 20
176.5723333333333
 30
0.0
 10
77.685637316295
 20
176.5723333333333
 30
0.0
 10
74.32499999999999
 20
179.9329706496283
 30
0.0
 10
74.32499999999999
 20
184.0723333333332
 30
0.0
 10
74.32499999999999
 20
188.2116960170383
 30
0.0
 10
77.685637316295
 20
191.5723333333333
 30
0.0
 10
81.825
 20
191.5723333333333
 30
0.0
  0
SPLINE
  5
61
330
1F
100
AcDbEntity
  8
0
  6
Continuous
 62
    18
420
        0
370
     9
100
AcDbSpline
210
0.0
220
0.0
230
1.0
 70
    11
 71
     3
 72
    17
 73
    13
 74
     0
 42
0.000000001
 43
0.0
 40
0.0
 40
0.0
 40
0.0
 40
0.0
 40
1.0
 40
1.0
 40
1.0
 40
2.0
 40
2.0
 40
2.0
 40
3.0
 40
3.0
 40
3.0
 40
4.0
 40
4.0
 40
4.0
 40
4.0
 10
98.48499999999999
 20
191.5723333333333
 30
0.0
 10
102.624362683705
 20
191.5723333333333
 30
0.0
 10
105.985
 20
188.2116960170383
 30
0.0
 10
105.985
 20
184.0723333333332
 30
0.0
 10
105.985
 20
179.9329706496283
 30
0.0
 10
102.624362683705
 20
176.5723333333333
 30
0.0
 10
98.48499999999999
 20
176.5723333333333
 30
0.0
 10
94.34563731629498
 20
176.5723333333333
 30
0.0
 10
90.98499999999999
 20
179.9329706496283
 30
0.0
 10
90.98499999999999
 20
184.0723333333332
 30
0.0
 10
90.98499999999999
 20
188.2116960170383
 30
0.0
 10
94.34563731629498
 20
191.5723333333333
 30
0.0
 10
98.48499999999999
 20
191.5723333333333
 30
0.0
  0
SPLINE
  5
62
330
1F
100
AcDbEntity
  8
0
  6
Continuous
 62
    18
420
        0
370
     9
100
AcDbSpline
210
0.0
220
0.0
230
1.0
 70
    11
 71
     3
 72
    17
 73
    13
 74
     0
 42
0.000000001
 43
0.0
 40
0.0
 40
0.0
 40
0.0
 40
0.0
 40
1.0
 40
1.0
 40
1.0
 40
2.0
 40
2.0
 40
2.0
 40
3.0
 40
3.0
 40
3.0
 40
4.0
 40
4.0
 40
4.0
 40
4.0
 10
115.145
 20
191.5723333333333
 30
0.0
 10
119.284362683705
 20
191.5723333333333
 30
0.0
 10
122.645
 20
188.2116960170383
 30
0.0
 10
122.645
 20
184.0723333333332
 30
0.0
 10
122.645
 20
179.9329706496283
 30
0.0
 10
119.284362683705
 20
176.5723333333333
 30
0.0
 10
115.145
 20
176.5723333333333
 30
0.0
 10
111.005637316295
 20
176.5723333333333
 30
0.0
 10
107.645
 20
179.9329706496283
 30
0.0
 10
107.645
 20
184.0723333333332
 30
0.0
 10
107.645
 20
188.2116960170383
 30
0.0
 10
111.005637316295
 20
191.5723333333333
 30
0.0
 10
115.145
 20
191.5723333333333
 30
0.0
  0
SPLINE
  5
63
330
1F
100
AcDbEntity
  8
0
  6
Continuous
 62
    18
420
        0
370
     9
100
AcDbSpline
210
0.0
220
0.0
230
1.0
 70
    11
 71
     3
 72
    17
 73
    13
 74
     0
 42
0.000000001
 43
0.0
 40
0.0
 40
0.0
 40
0.0
 40
0.0
 40
1.0
 40
1.0
 40
1.0
 40
2.0
 40
2.0
 40
2.0
 40
3.0
 40
3.0
 40
3.0
 40
4.0
 40
4.0
 40
4.0
 40
4.0
 10
131.805
 20
191.5723333333333
 30
0.0
 10
135.944362683705
 20
191.5723333333333
 30
0.0
 10
139.305
 20
188.2116960170383
 30
0.0
 10
139.305
 20
184.0723333333332
 30
0.0
 10
139.305
 20
179.9329706496283
 30
0.0
 10
135.944362683705
 20
176.5723333333333
 30
0.0
 10
131.805
 20
176.5723333333333
 30
0.0
 10
127.665637316295
 20
176.5723333333333
 30
0.0
 10
124.305
 20
179.9329706496283
 30
0.0
 10
124.305
 20
184.0723333333332
 30
0.0
 10
124.305
 20
188.2116960170383
 30
0.0
 10
127.665637316295
 20
191.5723333333333
 30
0.0
 10
131.805
 20
191.5723333333333
 30
0.0
  0
SPLINE
  5
64
330
1F
100
AcDbEntity
  8
0
  6
Continuous
 62
    18
420
        0
370
     9
100
AcDbSpline
210
0.0
220
0.0
230
1.0
 70
    11
 71
     3
 72
    17
 73
    13
 74
     0
 42
0.000000001
 43
0.0
 40
0.0
 40
0.0
 40
0.0
 40
0.0
 40
1.0
 40
1.0
 40
1.0
 40
2.0
 40
2.0
 40
2.0
 40
3.0
 40
3.0
 40
3.0
 40
4.0
 40
4.0
 40
4.0
 40
4.0
 10
148.465
 20
191.5723333333333
 30
0.0
 10
152.604362683705
 20
191.5723333333333
 30
0.0
 10
155.965
 20
188.2116960170383
 30
0.0
 10
155.965
 20
184.0723333333332
 30
0.0
 10
155.965
 20
179.9329706496283
 30
0.0
 10
152.604362683705
 20
176.5723333333333
 30
0.0
 10
148.465
 20
176.5723333333333
 30
0.0
 10
144.325637316295
 20
176.5723333333333
 30
0.0
 10
140.9649999999999
 20
179.9329706496283
 30
0.0
 10
140.9649999999999
 20
184.0723333333332
 30
0.0
 10
140.9649999999999
 20
188.2116960170383
 30
0.0
 10
144.325637316295
 20
191.5723333333333
 30
0.0
 10
148.465
 20
191.5723333333333
 30
0.0
  0
SPLINE
  5
65
330
1F
100
AcDbEntity
  8
0
  6
Continuous
 62
    18
420
        0
370
     9
100
AcDbSpline
210
0.0
220
0.0
230
1.0
 70
    11
 71
     3
 72
    17
 73
    13
 74
     0
 42
0.000000001
 43
0.0
 40
0.0
 40
0.0
 40
0.0
 40
0.0
 40
1.0
 40
1.0
 40
1.0
 40
2.0
 40
2.0
 40
2.0
 40
3.0
 40
3.0
 40
3.0
 40
4.0
 40
4.0
 40
4.0
 40
4.0
 10
165.125
 20
191.5723333333333
 30
0.0
 10
169.264362683705
 20
191.5723333333333
 30
0.0
 10
172.625
 20
188.2116960170383
 30
0.0
 10
172.625
 20
184.0723333333332
 30
0.0
 10
172.625
 20
179.9329706496283
 30
0.0
 10
169.264362683705
 20
176.5723333333333
 30
0.0
 10
165.125
 20
176.5723333333333
 30
0.0
 10
160.985637316295
 20
176.5723333333333
 30
0.0
 10
157.625
 20
179.9329706496283
 30
0.0
 10
157.625
 20
184.0723333333332
 30
0.0
 10
157.625
 20
188.2116960170383
 30
0.0
 10
160.985637316295
 20
191.5723333333333
 30
0.0
 10
165.125
 20
191.5723333333333
 30
0.0
  0
SPLINE
  5
66
330
1F
100
AcDbEntity
  8
0
  6
Continuous
 62
    18
420
        0
370
     9
100
AcDbSpline
210
0.0
220
0.0
230
1.0
 70
    11
 71
     3
 72
    17
 73
    13
 74
     0
 42
0.000000001
 43
0.0
 40
0.0
 40
0.0
 40
0.0
 40
0.0
 40
1.0
 40
1.0
 40
1.0
 40
2.0
 40
2.0
 40
2.0
 40
3.0
 40
3.0
 40
3.0
 40
4.0
 40
4.0
 40
4.0
 40
4.0
 10
181.7849999999999
 20
191.5723333333333
 30
0.0
 10
185.9243626837049
 20
191.5723333333333
 30
0.0
 10
189.2849999999999
 20
188.2116960170383
 30
0.0
 10
189.2849999999999
 20
184.0723333333332
 30
0.0
 10
189.2849999999999
 20
179.9329706496283
 30
0.0
 10
185.9243626837049
 20
176.5723333333333
 30
0.0
 10
181.7849999999999
 20
176.5723333333333
 30
0.0
 10
177.6456373162949
 20
176.5723333333333
 30
0.0
 10
174.2849999999999
 20
179.9329706496283
 30
0.0
 10
174.2849999999999
 20
184.0723333333332
 30
0.0
 10
174.2849999999999
 20
188.2116960170383
 30
0.0
 10
177.6456373162949
 20
191.5723333333333
 30
0.0
 10
181.7849999999999
 20
191.5723333333333
 30
0.0
  0
SPLINE
  5
67
330
1F
100
AcDbEntity
  8
0
  6
Continuous
 62
    18
420
        0
370
     9
100
AcDbSpline
210
0.0
220
0.0
230
1.0
 70
    11
 71
     3
 72
    17
 73
    13
 74
     0
 42
0.000000001
 43
0.0
 40
0.0
 40
0.0
 40
0.0
 40
0.0
 40
1.0
 40
1.0
 40
1.0
 40
2.0
 40
2.0
 40
2.0
 40
3.0
 40
3.0
 40
3.0
 40
4.0
 40
4.0
 40
4.0
 40
4.0
 10
198.4449999999999
 20
191.5723333333333
 30
0.0
 10
202.584362683705
 20
191.5723333333333
 30
0.0
 10
205.945
 20
188.2116960170383
 30
0.0
 10
205.945
 20
184.0723333333332
 30
0.0
 10
205.945
 20
179.9329706496283
 30
0.0
 10
202.584362683705
 20
176.5723333333333
 30
0.0
 10
198.4449999999999
 20
176.5723333333333
 30
0.0
 10
194.305637316295
 20
176.5723333333333
 30
0.0
 10
190.9449999999999
 20
179.9329706496283
 30
0.0
 10
190.9449999999999
 20
184.0723333333332
 30
0.0
 10
190.9449999999999
 20
188.2116960170383
 30
0.0
 10
194.305637316295
 20
191.5723333333333
 30
0.0
 10
198.4449999999999
 20
191.5723333333333
 30
0.0
  0
SPLINE
  5
68
330
1F
100
AcDbEntity
  8
0
  6
Continuous
 62
    18
420
        0
370
     9
100
AcDbSpline
210
0.0
220
0.0
230
1.0
 70
    11
 71
     3
 72
    17
 73
    13
 74
     0
 42
0.000000001
 43
0.0
 40
0.0
 40
0.0
 40
0.0
 40
0.0
 40
1.0
 40
1.0
 40
1.0
 40
2.0
 40
2.0
 40
2.0
 40
3.0
 40
3.0
 40
3.0
 40
4.0
 40
4.0
 40
4.0
 40
4.0
 10
215.105
 20
191.5723333333333
 30
0.0
 10
219.244362683705
 20
191.5723333333333
 30
0.0
 10
222.605
 20
188.2116960170383
 30
0.0
 10
222.605
 20
184.0723333333332
 30
0.0
 10
222.605
 20
179.9329706496283
 30
0.0
 10
219.244362683705
 20
176.5723333333333
 30
0.0
 10
215.105
 20
176.5723333333333
 30
0.0
 10
210.965637316295
 20
176.5723333333333
 30
0.0
 10
207.605
 20
179.9329706496283
 30
0.0
 10
207.605
 20
184.0723333333332
 30
0.0
 10
207.605
 20
188.2116960170383
 30
0.0
 10
210.965637316295
 20
191.5723333333333
 30
0.0
 10
215.105
 20
191.5723333333333
 30
0.0
  0
SPLINE
  5
69
330
1F
100
AcDbEntity
  8
0
  6
Continuous
 62
    18
420
        0
370
     9
100
AcDbSpline
210
0.0
220
0.0
230
1.0
 70
    11
 71
     3
 72
    17
 73
    13
 74
     0
 42
0.000000001
 43
0.0
 40
0.0
 40
0.0
 40
0.0
 40
0.0
 40
1.0
 40
1.0
 40
1.0
 40
2.0
 40
2.0
 40
2.0
 40
3.0
 40
3.0
 40
3.0
 40
4.0
 40
4.0
 40
4.0
 40
4.0
 10
65.16499999999999
 20
174.9123333333332
 30
0.0
 10
69.304362683705
 20
174.9123333333332
 30
0.0
 10
72.66499999999999
 20
171.5516960170382
 30
0.0
 10
72.66499999999999
 20
167.4123333333332
 30
0.0
 10
72.66499999999999
 20
163.2729706496282
 30
0.0
 10
69.304362683705
 20
159.9123333333332
 30
0.0
 10
65.16499999999999
 20
159.9123333333332
 30
0.0
 10
61.02563731629499
 20
159.9123333333332
 30
0.0
 10
57.66499999999998
 20
163.2729706496282
 30
0.0
 10
57.66499999999998
 20
167.4123333333332
 30
0.0
 10
57.66499999999998
 20
171.5516960170382
 30
0.0
 10
61.02563731629499
 20
174.9123333333332
 30
0.0
 10
65.16499999999999
 20
174.9123333333332
 30
0.0
  0
SPLINE
  5
6A
330
1F
100
AcDbEntity
  8
0
  6
Continuous
 62
    18
420
        0
370
     9
100
AcDbSpline
210
0.0
220
0.0
230
1.0
 70
    11
 71
     3
 72
    17
 73
    13
 74
     0
 42
0.000000001
 43
0.0
 40
0.0
 40
0.0
 40
0.0
 40
0.0
 40
1.0
 40
1.0
 40
1.0
 40
2.0
 40
2.0
 40
2.0
 40
3.0
 40
3.0
 40
3.0
 40
4.0
 40
4.0
 40
4.0
 40
4.0
 10
65.16499999999999
 20
158.2523333333332
 30
0.0
 10
69.304362683705
 20
158.2523333333332
 30
0.0
 10
72.66499999999999
 20
154.8916960170382
 30
0.0
 10
72.66499999999999
 20
150.7523333333332
 30
0.0
 10
72.66499999999999
 20
146.6129706496282
 30
0.0
 10
69.304362683705
 20
143.2523333333332
 30
0.0
 10
65.16499999999999
 20
143.2523333333332
 30
0.0
 10
61.02563731629499
 20
143.2523333333332
 30
0.0
 10
57.66499999999998
 20
146.6129706496282
 30
0.0
 10
57.66499999999998
 20
150.7523333333332
 30
0.0
 10
57.66499999999998
 20
154.8916960170382
 30
0.0
 10
61.02563731629499
 20
158.2523333333332
 30
0.0
 10
65.16499999999999
 20
158.2523333333332
 30
0.0
  0
SPLINE
  5
6B
330
1F
100
AcDbEntity
  8
0
  6
Continuous
 62
    18
420
        0
370
     9
100
AcDbSpline
210
0.0
220
0.0
230
1.0
 70
    11
 71
     3
 72
    17
 73
    13
 74
     0
 42
0.000000001
 43
0.0
 40
0.0
 40
0.0
 40
0.0
 40
0.0
 40
1.0
 40
1.0
 40
1.0
 40
2.0
 40
2.0
 40
2.0
 40
3.0
 40
3.0
 40
3.0
 40
4.0
 40
4.0
 40
4.0
 40
4.0
 10
81.825
 20
158.2523333333332
 30
0.0
 10
85.964362683705
 20
158.2523333333332
 30
0.0
 10
89.32499999999999
 20
154.8916960170382
 30
0.0
 10
89.32499999999999
 20
150.7523333333332
 30
0.0
 10
89.32499999999999
 20
146.6129706496282
 30
0.0
 10
85.964362683705
 20
143.2523333333332
 30
0.0
 10
81.825
 20
143.2523333333332
 30
0.0
 10
77.685637316295
 20
143.2523333333332
 30
0.0
 10
74.32499999999999
 20
146.6129706496282
 30
0.0
 10
74.32499999999999
 20
150.7523333333332
 30
0.0
 10
74.32499999999999
 20
154.8916960170382
 30
0.0
 10
77.685637316295
 20
158.2523333333332
 30
0.0
 10
81.825
 20
158.2523333333332
 30
0.0
  0
SPLINE
  5
6C
330
1F
100
AcDbEntity
  8
0
  6
Continuous
 62
    18
420
        0
370
     9
100
AcDbSpline
210
0.0
220
0.0
230
1.0
 70
    11
 71
     3
 72
    17
 73
    13
 74
     0
 42
0.000000001
 43
0.0
 40
0.0
 40
0.0
 40
0.0
 40
0.0
 40
1.0
 40
1.0
 40
1.0
 40
2.0
 40
2.0
 40
2.0
 40
3.0
 40
3.0
 40
3.0
 40
4.0
 40
4.0
 40
4.0
 40
4.0
 10
98.48499999999999
 20
158.2523333333332
 30
0.0
 10
102.624362683705
 20
158.2523333333332
 30
0.0
 10
105.985
 20
154.8916960170382
 30
0.0
 10
105.985
 20
150.7523333333332
 30
0.0
 10
105.985
 20
146.6129706496282
 30
0.0
 10
102.624362683705
 20
143.2523333333332
 30
0.0
 10
98.48499999999999
 20
143.2523333333332
 30
0.0
 10
94.34563731629498
 20
143.2523333333332
 30
0.0
 10
90.98499999999999
 20
146.6129706496282
 30
0.0
 10
90.98499999999999
 20
150.7523333333332
 30
0.0
 10
90.98499999999999
 20
154.8916960170382
 30
0.0
 10
94.34563731629498
 20
158.2523333333332
 30
0.0
 10
98.48499999999999
 20
158.2523333333332
 30
0.0
  0
SPLINE
  5
6D
330
1F
100
AcDbEntity
  8
0
  6
Continuous
 62
    18
420
        0
370
     9
100
AcDbSpline
210
0.0
220
0.0
230
1.0
 70
    11
 71
     3
 72
    17
 73
    13
 74
     0
 42
0.000000001
 43
0.0
 40
0.0
 40
0.0
 40
0.0
 40
0.0
 40
1.0
 40
1.0
 40
1.0
 40
2.0
 40
2.0
 40
2.0
 40
3.0
 40
3.0
 40
3.0
 40
4.0
 40
4.0
 40
4.0
 40
4.0
 10
115.145
 20
158.2523333333332
 30
0.0
 10
119.284362683705
 20
158.2523333333332
 30
0.0
 10
122.645
 20
154.8916960170382
 30
0.0
 10
122.645
 20
150.7523333333332
 30
0.0
 10
122.645
 20
146.6129706496282
 30
0.0
 10
119.284362683705
 20
143.2523333333332
 30
0.0
 10
115.145
 20
143.2523333333332
 30
0.0
 10
111.005637316295
 20
143.2523333333332
 30
0.0
 10
107.645
 20
146.6129706496282
 30
0.0
 10
107.645
 20
150.7523333333332
 30
0.0
 10
107.645
 20
154.8916960170382
 30
0.0
 10
111.005637316295
 20
158.2523333333332
 30
0.0
 10
115.145
 20
158.2523333333332
 30
0.0
  0
SPLINE
  5
6E
330
1F
100
AcDbEntity
  8
0
  6
Continuous
 62
    18
420
        0
370
     9
100
AcDbSpline
210
0.0
220
0.0
230
1.0
 70
    11
 71
     3
 72
    17
 73
    13
 74
     0
 42
0.000000001
 43
0.0
 40
0.0
 40
0.0
 40
0.0
 40
0.0
 40
1.0
 40
1.0
 40
1.0
 40
2.0
 40
2.0
 40
2.0
 40
3.0
 40
3.0
 40
3.0
 40
4.0
 40
4.0
 40
4.0
 40
4.0
 10
131.805
 20
158.2523333333332
 30
0.0
 10
135.944362683705
 20
158.2523333333332
 30
0.0
 10
139.305
 20
154.8916960170382
 30
0.0
 10
139.305
 20
150.7523333333332
 30
0.0
 10
139.305
 20
146.6129706496282
 30
0.0
 10
135.944362683705
 20
143.2523333333332
 30
0.0
 10
131.805
 20
143.2523333333332
 30
0.0
 10
127.665637316295
 20
143.2523333333332
 30
0.0
 10
124.305
 20
146.6129706496282
 30
0.0
 10
124.305
 20
150.7523333333332
 30
0.0
 10
124.305
 20
154.8916960170382
 30
0.0
 10
127.665637316295
 20
158.2523333333332
 30
0.0
 10
131.805
 20
158.2523333333332
 30
0.0
  0
SPLINE
  5
6F
330
1F
100
AcDbEntity
  8
0
  6
Continuous
 62
    18
420
        0
370
     9
100
AcDbSpline
210
0.0
220
0.0
230
1.0
 70
    11
 71
     3
 72
    17
 73
    13
 74
     0
 42
0.000000001
 43
0.0
 40
0.0
 40
0.0
 40
0.0
 40
0.0
 40
1.0
 40
1.0
 40
1.0
 40
2.0
 40
2.0
 40
2.0
 40
3.0
 40
3.0
 40
3.0
 40
4.0
 40
4.0
 40
4.0
 40
4.0
 10
148.465
 20
158.2523333333332
 30
0.0
 10
152.604362683705
 20
158.2523333333332
 30
0.0
 10
155.965
 20
154.8916960170382
 30
0.0
 10
155.965
 20
150.7523333333332
 30
0.0
 10
155.965
 20
146.6129706496282
 30
0.0
 10
152.604362683705
 20
143.2523333333332
 30
0.0
 10
148.465
 20
143.2523333333332
 30
0.0
 10
144.325637316295
 20
143.2523333333332
 30
0.0
 10
140.9649999999999
 20
146.6129706496282
 30
0.0
 10
140.9649999999999
 20
150.7523333333332
 30
0.0
 10
140.9649999999999
 20
154.8916960170382
 30
0.0
 10
144.325637316295
 20
158.2523333333332
 30
0.0
 10
148.465
 20
158.2523333333332
 30
0.0
  0
SPLINE
  5
70
330
1F
100
AcDbEntity
  8
0
  6
Continuous
 62
    18
420
        0
370
     9
100
AcDbSpline
210
0.0
220
0.0
230
1.0
 70
    11
 71
     3
 72
    17
 73
    13
 74
     0
 42
0.000000001
 43
0.0
 40
0.0
 40
0.0
 40
0.0
 40
0.0
 40
1.0
 40
1.0
 40
1.0
 40
2.0
 40
2.0
 40
2.0
 40
3.0
 40
3.0
 40
3.0
 40
4.0
 40
4.0
 40
4.0
 40
4.0
 10
165.125
 20
158.2523333333332
 30
0.0
 10
169.264362683705
 20
158.2523333333332
 30
0.0
 10
172.625
 20
154.8916960170382
 30
0.0
 10
172.625
 20
150.7523333333332
 30
0.0
 10
172.625
 20
146.6129706496282
 30
0.0
 10
169.264362683705
 20
143.2523333333332
 30
0.0
 10
165.125
 20
143.2523333333332
 30
0.0
 10
160.985637316295
 20
143.2523333333332
 30
0.0
 10
157.625
 20
146.6129706496282
 30
0.0
 10
157.625
 20
150.7523333333332
 30
0.0
 10
157.625
 20
154.8916960170382
 30
0.0
 10
160.985637316295
 20
158.2523333333332
 30
0.0
 10
165.125
 20
158.2523333333332
 30
0.0
  0
SPLINE
  5
71
330
1F
100
AcDbEntity
  8
0
  6
Continuous
 62
    18
420
        0
370
     9
100
AcDbSpline
210
0.0
220
0.0
230
1.0
 70
    11
 71
     3
 72
    17
 73
    13
 74
     0
 42
0.000000001
 43
0.0
 40
0.0
 40
0.0
 40
0.0
 40
0.0
 40
1.0
 40
1.0
 40
1.0
 40
2.0
 40
2.0
 40
2.0
 40
3.0
 40
3.0
 40
3.0
 40
4.0
 40
4.0
 40
4.0
 40
4.0
 10
181.7849999999999
 20
158.2523333333332
 30
0.0
 10
185.9243626837049
 20
158.2523333333332
 30
0.0
 10
189.2849999999999
 20
154.8916960170382
 30
0.0
 10
189.2849999999999
 20
150.7523333333332
 30
0.0
 10
189.2849999999999
 20
146.6129706496282
 30
0.0
 10
185.9243626837049
 20
143.2523333333332
 30
0.0
 10
181.7849999999999
 20
143.2523333333332
 30
0.0
 10
177.6456373162949
 20
143.2523333333332
 30
0.0
 10
174.2849999999999
 20
146.6129706496282
 30
0.0
 10
174.2849999999999
 20
150.7523333333332
 30
0.0
 10
174.2849999999999
 20
154.8916960170382
 30
0.0
 10
177.6456373162949
 20
158.2523333333332
 30
0.0
 10
181.7849999999999
 20
158.2523333333332
 30
0.0
  0
SPLINE
  5
72
330
1F
100
AcDbEntity
  8
0
  6
Continuous
 62
    18
420
        0
370
     9
100
AcDbSpline
210
0.0
220
0.0
230
1.0
 70
    11
 71
     3
 72
    17
 73
    13
 74
     0
 42
0.000000001
 43
0.0
 40
0.0
 40
0.0
 40
0.0
 40
0.0
 40
1.0
 40
1.0
 40
1.0
 40
2.0
 40
2.0
 40
2.0
 40
3.0
 40
3.0
 40
3.0
 40
4.0
 40
4.0
 40
4.0
 40
4.0
 10
198.4449999999999
 20
158.2523333333332
 30
0.0
 10
202.584362683705
 20
158.2523333333332
 30
0.0
 10
205.945
 20
154.8916960170382
 30
0.0
 10
205.945
 20
150.7523333333332
 30
0.0
 10
205.945
 20
146.6129706496282
 30
0.0
 10
202.584362683705
 20
143.2523333333332
 30
0.0
 10
198.4449999999999
 20
143.2523333333332
 30
0.0
 10
194.305637316295
 20
143.2523333333332
 30
0.0
 10
190.9449999999999
 20
146.6129706496282
 30
0.0
 10
190.9449999999999
 20
150.7523333333332
 30
0.0
 10
190.9449999999999
 20
154.8916960170382
 30
0.0
 10
194.305637316295
 20
158.2523333333332
 30
0.0
 10
198.4449999999999
 20
158.2523333333332
 30
0.0
  0
SPLINE
  5
73
330
1F
100
AcDbEntity
  8
0
  6
Continuous
 62
    18
420
        0
370
     9
100
AcDbSpline
210
0.0
220
0.0
230
1.0
 70
    11
 71
     3
 72
    17
 73
    13
 74
     0
 42
0.000000001
 43
0.0
 40
0.0
 40
0.0
 40
0.0
 40
0.0
 40
1.0
 40
1.0
 40
1.0
 40
2.0
 40
2.0
 40
2.0
 40
3.0
 40
3.0
 40
3.0
 40
4.0
 40
4.0
 40
4.0
 40
4.0
 10
215.105
 20
158.2523333333332
 30
0.0
 10
219.244362683705
 20
158.2523333333332
 30
0.0
 10
222.605
 20
154.8916960170382
 30
0.0
 10
222.605
 20
150.7523333333332
 30
0.0
 10
222.605
 20
146.6129706496282
 30
0.0
 10
219.244362683705
 20
143.2523333333332
 30
0.0
 10
215.105
 20
143.2523333333332
 30
0.0
 10
210.965637316295
 20
143.2523333333332
 30
0.0
 10
207.605
 20
146.6129706496282
 30
0.0
 10
207.605
 20
150.7523333333332
 30
0.0
 10
207.605
 20
154.8916960170382
 30
0.0
 10
210.965637316295
 20
158.2523333333332
 30
0.0
 10
215.105
 20
158.2523333333332
 30
0.0
  0
SPLINE
  5
74
330
1F
100
AcDbEntity
  8
0
  6
Continuous
 62
    18
420
        0
370
     9
100
AcDbSpline
210
0.0
220
0.0
230
1.0
 70
    11
 71
     3
 72
    17
 73
    13
 74
     0
 42
0.000000001
 43
0.0
 40
0.0
 40
0.0
 40
0.0
 40
0.0
 40
1.0
 40
1.0
 40
1.0
 40
2.0
 40
2.0
 40
2.0
 40
3.0
 40
3.0
 40
3.0
 40
4.0
 40
4.0
 40
4.0
 40
4.0
 10
65.16499999999999
 20
141.5923333333332
 30
0.0
 10
69.304362683705
 20
141.5923333333332
 30
0.0
 10
72.66499999999999
 20
138.2316960170382
 30
0.0
 10
72.66499999999999
 20
134.0923333333332
 30
0.0
 10
72.66499999999999
 20
129.9529706496282
 30
0.0
 10
69.304362683705
 20
126.5923333333332
 30
0.0
 10
65.16499999999999
 20
126.5923333333332
 30
0.0
 10
61.02563731629499
 20
126.5923333333332
 30
0.0
 10
57.66499999999998
 20
129.9529706496282
 30
0.0
 10
57.66499999999998
 20
134.0923333333332
 30
0.0
 10
57.66499999999998
 20
138.2316960170382
 30
0.0
 10
61.02563731629499
 20
141.5923333333332
 30
0.0
 10
65.16499999999999
 20
141.5923333333332
 30
0.0
  0
SPLINE
  5
75
330
1F
100
AcDbEntity
  8
0
  6
Continuous
 62
    18
420
        0
370
     9
100
AcDbSpline
210
0.0
220
0.0
230
1.0
 70
    11
 71
     3
 72
    17
 73
    13
 74
     0
 42
0.000000001
 43
0.0
 40
0.0
 40
0.0
 40
0.0
 40
0.0
 40
1.0
 40
1.0
 40
1.0
 40
2.0
 40
2.0
 40
2.0
 40
3.0
 40
3.0
 40
3.0
 40
4.0
 40
4.0
 40
4.0
 40
4.0
 10
81.825
 20
141.5923333333332
 30
0.0
 10
85.964362683705
 20
141.5923333333332
 30
0.0
 10
89.32499999999999
 20
138.2316960170382
 30
0.0
 10
89.32499999999999
 20
134.0923333333332
 30
0.0
 10
89.32499999999999
 20
129.9529706496282
 30
0.0
 10
85.964362683705
 20
126.5923333333332
 30
0.0
 10
81.825
 20
126.5923333333332
 30
0.0
 10
77.685637316295
 20
126.5923333333332
 30
0.0
 10
74.32499999999999
 20
129.9529706496282
 30
0.0
 10
74.32499999999999
 20
134.0923333333332
 30
0.0
 10
74.32499999999999
 20
138.2316960170382
 30
0.0
 10
77.685637316295
 20
141.5923333333332
 30
0.0
 10
81.825
 20
141.5923333333332
 30
0.0
  0
SPLINE
  5
76
330
1F
100
AcDbEntity
  8
0
  6
Continuous
 62
    18
420
        0
370
     9
100
AcDbSpline
210
0.0
220
0.0
230
1.0
 70
    11
 71
     3
 72
    17
 73
    13
 74
     0
 42
0.000000001
 43
0.0
 40
0.0
 40
0.0
 40
0.0
 40
0.0
 40
1.0
 40
1.0
 40
1.0
 40
2.0
 40
2.0
 40
2.0
 40
3.0
 40
3.0
 40
3.0
 40
4.0
 40
4.0
 40
4.0
 40
4.0
 10
98.48499999999999
 20
141.5923333333332
 30
0.0
 10
102.624362683705
 20
141.5923333333332
 30
0.0
 10
105.985
 20
138.2316960170382
 30
0.0
 10
105.985
 20
134.0923333333332
 30
0.0
 10
105.985
 20
129.9529706496282
 30
0.0
 10
102.624362683705
 20
126.5923333333332
 30
0.0
 10
98.48499999999999
 20
126.5923333333332
 30
0.0
 10
94.34563731629498
 20
126.5923333333332
 30
0.0
 10
90.98499999999999
 20
129.9529706496282
 30
0.0
 10
90.98499999999999
 20
134.0923333333332
 30
0.0
 10
90.98499999999999
 20
138.2316960170382
 30
0.0
 10
94.34563731629498
 20
141.5923333333332
 30
0.0
 10
98.48499999999999
 20
141.5923333333332
 30
0.0
  0
SPLINE
  5
77
330
1F
100
AcDbEntity
  8
0
  6
Continuous
 62
    18
420
        0
370
     9
100
AcDbSpline
210
0.0
220
0.0
230
1.0
 70
    11
 71
     3
 72
    17
 73
    13
 74
     0
 42
0.000000001
 43
0.0
 40
0.0
 40
0.0
 40
0.0
 40
0.0
 40
1.0
 40
1.0
 40
1.0
 40
2.0
 40
2.0
 40
2.0
 40
3.0
 40
3.0
 40
3.0
 40
4.0
 40
4.0
 40
4.0
 40
4.0
 10
115.145
 20
141.5923333333332
 30
0.0
 10
119.284362683705
 20
141.5923333333332
 30
0.0
 10
122.645
 20
138.2316960170382
 30
0.0
 10
122.645
 20
134.0923333333332
 30
0.0
 10
122.645
 20
129.9529706496282
 30
0.0
 10
119.284362683705
 20
126.5923333333332
 30
0.0
 10
115.145
 20
126.5923333333332
 30
0.0
 10
111.005637316295
 20
126.5923333333332
 30
0.0
 10
107.645
 20
129.9529706496282
 30
0.0
 10
107.645
 20
134.0923333333332
 30
0.0
 10
107.645
 20
138.2316960170382
 30
0.0
 10
111.005637316295
 20
141.5923333333332
 30
0.0
 10
115.145
 20
141.5923333333332
 30
0.0
  0
SPLINE
  5
78
330
1F
100
AcDbEntity
  8
0
  6
Continuous
 62
    18
420
        0
370
     9
100
AcDbSpline
210
0.0
220
0.0
230
1.0
 70
    11
 71
     3
 72
    17
 73
    13
 74
     0
 42
0.000000001
 43
0.0
 40
0.0
 40
0.0
 40
0.0
 40
0.0
 40
1.0
 40
1.0
 40
1.0
 40
2.0
 40
2.0
 40
2.0
 40
3.0
 40
3.0
 40
3.0
 40
4.0
 40
4.0
 40
4.0
 40
4.0
 10
131.805
 20
141.5923333333332
 30
0.0
 10
135.944362683705
 20
141.5923333333332
 30
0.0
 10
139.305
 20
138.2316960170382
 30
0.0
 10
139.305
 20
134.0923333333332
 30
0.0
 10
139.305
 20
129.9529706496282
 30
0.0
 10
135.944362683705
 20
126.5923333333332
 30
0.0
 10
131.805
 20
126.5923333333332
 30
0.0
 10
127.665637316295
 20
126.5923333333332
 30
0.0
 10
124.305
 20
129.9529706496282
 30
0.0
 10
124.305
 20
134.0923333333332
 30
0.0
 10
124.305
 20
138.2316960170382
 30
0.0
 10
127.665637316295
 20
141.5923333333332
 30
0.0
 10
131.805
 20
141.5923333333332
 30
0.0
  0
SPLINE
  5
79
330
1F
100
AcDbEntity
  8
0
  6
Continuous
 62
    18
420
        0
370
     9
100
AcDbSpline
210
0.0
220
0.0
230
1.0
 70
    11
 71
     3
 72
    17
 73
    13
 74
     0
 42
0.000000001
 43
0.0
 40
0.0
 40
0.0
 40
0.0
 40
0.0
 40
1.0
 40
1.0
 40
1.0
 40
2.0
 40
2.0
 40
2.0
 40
3.0
 40
3.0
 40
3.0
 40
4.0
 40
4.0
 40
4.0
 40
4.0
 10
148.465
 20
141.5923333333332
 30
0.0
 10
152.604362683705
 20
141.5923333333332
 30
0.0
 10
155.965
 20
138.2316960170382
 30
0.0
 10
155.965
 20
134.0923333333332
 30
0.0
 10
155.965
 20
129.9529706496282
 30
0.0
 10
152.604362683705
 20
126.5923333333332
 30
0.0
 10
148.465
 20
126.5923333333332
 30
0.0
 10
144.325637316295
 20
126.5923333333332
 30
0.0
 10
140.9649999999999
 20
129.9529706496282
 30
0.0
 10
140.9649999999999
 20
134.0923333333332
 30
0.0
 10
140.9649999999999
 20
138.2316960170382
 30
0.0
 10
144.325637316295
 20
141.5923333333332
 30
0.0
 10
148.465
 20
141.5923333333332
 30
0.0
  0
SPLINE
  5
7A
330
1F
100
AcDbEntity
  8
0
  6
Continuous
 62
    18
420
        0
370
     9
100
AcDbSpline
210
0.0
220
0.0
230
1.0
 70
    11
 71
     3
 72
    17
 73
    13
 74
     0
 42
0.000000001
 43
0.0
 40
0.0
 40
0.0
 40
0.0
 40
0.0
 40
1.0
 40
1.0
 40
1.0
 40
2.0
 40
2.0
 40
2.0
 40
3.0
 40
3.0
 40
3.0
 40
4.0
 40
4.0
 40
4.0
 40
4.0
 10
165.125
 20
141.5923333333332
 30
0.0
 10
169.264362683705
 20
141.5923333333332
 30
0.0
 10
172.625
 20
138.2316960170382
 30
0.0
 10
172.625
 20
134.0923333333332
 30
0.0
 10
172.625
 20
129.9529706496282
 30
0.0
 10
169.264362683705
 20
126.5923333333332
 30
0.0
 10
165.125
 20
126.5923333333332
 30
0.0
 10
160.985637316295
 20
126.5923333333332
 30
0.0
 10
157.625
 20
129.9529706496282
 30
0.0
 10
157.625
 20
134.0923333333332
 30
0.0
 10
157.625
 20
138.2316960170382
 30
0.0
 10
160.985637316295
 20
141.5923333333332
 30
0.0
 10
165.125
 20
141.5923333333332
 30
0.0
  0
SPLINE
  5
7B
330
1F
100
AcDbEntity
  8
0
  6
Continuous
 62
    18
420
        0
370
     9
100
AcDbSpline
210
0.0
220
0.0
230
1.0
 70
    11
 71
     3
 72
    17
 73
    13
 74
     0
 42
0.000000001
 43
0.0
 40
0.0
 40
0.0
 40
0.0
 40
0.0
 40
1.0
 40
1.0
 40
1.0
 40
2.0
 40
2.0
 40
2.0
 40
3.0
 40
3.0
 40
3.0
 40
4.0
 40
4.0
 40
4.0
 40
4.0
 10
181.7849999999999
 20
141.5923333333332
 30
0.0
 10
185.9243626837049
 20
141.5923333333332
 30
0.0
 10
189.2849999999999
 20
138.2316960170382
 30
0.0
 10
189.2849999999999
 20
134.0923333333332
 30
0.0
 10
189.2849999999999
 20
129.9529706496282
 30
0.0
 10
185.9243626837049
 20
126.5923333333332
 30
0.0
 10
181.7849999999999
 20
126.5923333333332
 30
0.0
 10
177.6456373162949
 20
126.5923333333332
 30
0.0
 10
174.2849999999999
 20
129.9529706496282
 30
0.0
 10
174.2849999999999
 20
134.0923333333332
 30
0.0
 10
174.2849999999999
 20
138.2316960170382
 30
0.0
 10
177.6456373162949
 20
141.5923333333332
 30
0.0
 10
181.7849999999999
 20
141.5923333333332
 30
0.0
  0
SPLINE
  5
7C
330
1F
100
AcDbEntity
  8
0
  6
Continuous
 62
    18
420
        0
370
     9
100
AcDbSpline
210
0.0
220
0.0
230
1.0
 70
    11
 71
     3
 72
    17
 73
    13
 74
     0
 42
0.000000001
 43
0.0
 40
0.0
 40
0.0
 40
0.0
 40
0.0
 40
1.0
 40
1.0
 40
1.0
 40
2.0
 40
2.0
 40
2.0
 40
3.0
 40
3.0
 40
3.0
 40
4.0
 40
4.0
 40
4.0
 40
4.0
 10
198.4449999999999
 20
141.5923333333332
 30
0.0
 10
202.584362683705
 20
141.5923333333332
 30
0.0
 10
205.945
 20
138.2316960170382
 30
0.0
 10
205.945
 20
134.0923333333332
 30
0.0
 10
205.945
 20
129.9529706496282
 30
0.0
 10
202.584362683705
 20
126.5923333333332
 30
0.0
 10
198.4449999999999
 20
126.5923333333332
 30
0.0
 10
194.305637316295
 20
126.5923333333332
 30
0.0
 10
190.9449999999999
 20
129.9529706496282
 30
0.0
 10
190.9449999999999
 20
134.0923333333332
 30
0.0
 10
190.9449999999999
 20
138.2316960170382
 30
0.0
 10
194.305637316295
 20
141.5923333333332
 30
0.0
 10
198.4449999999999
 20
141.5923333333332
 30
0.0
  0
SPLINE
  5
7D
330
1F
100
AcDbEntity
  8
0
  6
Continuous
 62
    18
420
        0
370
     9
100
AcDbSpline
210
0.0
220
0.0
230
1.0
 70
    11
 71
     3
 72
    17
 73
    13
 74
     0
 42
0.000000001
 43
0.0
 40
0.0
 40
0.0
 40
0.0
 40
0.0
 40
1.0
 40
1.0
 40
1.0
 40
2.0
 40
2.0
 40
2.0
 40
3.0
 40
3.0
 40
3.0
 40
4.0
 40
4.0
 40
4.0
 40
4.0
 10
215.105
 20
141.5923333333332
 30
0.0
 10
219.244362683705
 20
141.5923333333332
 30
0.0
 10
222.605
 20
138.2316960170382
 30
0.0
 10
222.605
 20
134.0923333333332
 30
0.0
 10
222.605
 20
129.9529706496282
 30
0.0
 10
219.244362683705
 20
126.5923333333332
 30
0.0
 10
215.105
 20
126.5923333333332
 30
0.0
 10
210.965637316295
 20
126.5923333333332
 30
0.0
 10
207.605
 20
129.9529706496282
 30
0.0
 10
207.605
 20
134.0923333333332
 30
0.0
 10
207.605
 20
138.2316960170382
 30
0.0
 10
210.965637316295
 20
141.5923333333332
 30
0.0
 10
215.105
 20
141.5923333333332
 30
0.0
  0
SPLINE
  5
7E
330
1F
100
AcDbEntity
  8
0
  6
Continuous
 62
    18
420
        0
370
     9
100
AcDbSpline
210
0.0
220
0.0
230
1.0
 70
    11
 71
     3
 72
    17
 73
    13
 74
     0
 42
0.000000001
 43
0.0
 40
0.0
 40
0.0
 40
0.0
 40
0.0
 40
1.0
 40
1.0
 40
1.0
 40
2.0
 40
2.0
 40
2.0
 40
3.0
 40
3.0
 40
3.0
 40
4.0
 40
4.0
 40
4.0
 40
4.0
 10
81.825
 20
174.9123333333332
 30
0.0
 10
85.964362683705
 20
174.9123333333332
 30
0.0
 10
89.32499999999999
 20
171.5516960170382
 30
0.0
 10
89.32499999999999
 20
167.4123333333332
 30
0.0
 10
89.32499999999999
 20
163.2729706496282
 30
0.0
 10
85.964362683705
 20
159.9123333333332
 30
0.0
 10
81.825
 20
159.9123333333332
 30
0.0
 10
77.685637316295
 20
159.9123333333332
 30
0.0
 10
74.32499999999999
 20
163.2729706496282
 30
0.0
 10
74.32499999999999
 20
167.4123333333332
 30
0.0
 10
74.32499999999999
 20
171.5516960170382
 30
0.0
 10
77.685637316295
 20
174.9123333333332
 30
0.0
 10
81.825
 20
174.9123333333332
 30
0.0
  0
SPLINE
  5
7F
330
1F
100
AcDbEntity
  8
0
  6
Continuous
 62
    18
420
        0
370
     9
100
AcDbSpline
210
0.0
220
0.0
230
1.0
 70
    11
 71
     3
 72
    17
 73
    13
 74
     0
 42
0.000000001
 43
0.0
 40
0.0
 40
0.0
 40
0.0
 40
0.0
 40
1.0
 40
1.0
 40
1.0
 40
2.0
 40
2.0
 40
2.0
 40
3.0
 40
3.0
 40
3.0
 40
4.0
 40
4.0
 40
4.0
 40
4.0
 10
98.48499999999999
 20
174.9123333333332
 30
0.0
 10
102.624362683705
 20
174.9123333333332
 30
0.0
 10
105.985
 20
171.5516960170382
 30
0.0
 10
105.985
 20
167.4123333333332
 30
0.0
 10
105.985
 20
163.2729706496282
 30
0.0
 10
102.624362683705
 20
159.9123333333332
 30
0.0
 10
98.48499999999999
 20
159.9123333333332
 30
0.0
 10
94.34563731629498
 20
159.9123333333332
 30
0.0
 10
90.98499999999999
 20
163.2729706496282
 30
0.0
 10
90.98499999999999
 20
167.4123333333332
 30
0.0
 10
90.98499999999999
 20
171.5516960170382
 30
0.0
 10
94.34563731629498
 20
174.9123333333332
 30
0.0
 10
98.48499999999999
 20
174.9123333333332
 30
0.0
  0
SPLINE
  5
80
330
1F
100
AcDbEntity
  8
0
  6
Continuous
 62
    18
420
        0
370
     9
100
AcDbSpline
210
0.0
220
0.0
230
1.0
 70
    11
 71
     3
 72
    17
 73
    13
 74
     0
 42
0.000000001
 43
0.0
 40
0.0
 40
0.0
 40
0.0
 40
0.0
 40
1.0
 40
1.0
 40
1.0
 40
2.0
 40
2.0
 40
2.0
 40
3.0
 40
3.0
 40
3.0
 40
4.0
 40
4.0
 40
4.0
 40
4.0
 10
115.145
 20
174.9123333333332
 30
0.0
 10
119.284362683705
 20
174.9123333333332
 30
0.0
 10
122.645
 20
171.5516960170382
 30
0.0
 10
122.645
 20
167.4123333333332
 30
0.0
 10
122.645
 20
163.2729706496282
 30
0.0
 10
119.284362683705
 20
159.9123333333332
 30
0.0
 10
115.145
 20
159.9123333333332
 30
0.0
 10
111.005637316295
 20
159.9123333333332
 30
0.0
 10
107.645
 20
163.2729706496282
 30
0.0
 10
107.645
 20
167.4123333333332
 30
0.0
 10
107.645
 20
171.5516960170382
 30
0.0
 10
111.005637316295
 20
174.9123333333332
 30
0.0
 10
115.145
 20
174.9123333333332
 30
0.0
  0
SPLINE
  5
81
330
1F
100
AcDbEntity
  8
0
  6
Continuous
 62
    18
420
        0
370
     9
100
AcDbSpline
210
0.0
220
0.0
230
1.0
 70
    11
 71
     3
 72
    17
 73
    13
 74
     0
 42
0.000000001
 43
0.0
 40
0.0
 40
0.0
 40
0.0
 40
0.0
 40
1.0
 40
1.0
 40
1.0
 40
2.0
 40
2.0
 40
2.0
 40
3.0
 40
3.0
 40
3.0
 40
4.0
 40
4.0
 40
4.0
 40
4.0
 10
131.805
 20
174.9123333333332
 30
0.0
 10
135.944362683705
 20
174.9123333333332
 30
0.0
 10
139.305
 20
171.5516960170382
 30
0.0
 10
139.305
 20
167.4123333333332
 30
0.0
 10
139.305
 20
163.2729706496282
 30
0.0
 10
135.944362683705
 20
159.9123333333332
 30
0.0
 10
131.805
 20
159.9123333333332
 30
0.0
 10
127.665637316295
 20
159.9123333333332
 30
0.0
 10
124.305
 20
163.2729706496282
 30
0.0
 10
124.305
 20
167.4123333333332
 30
0.0
 10
124.305
 20
171.5516960170382
 30
0.0
 10
127.665637316295
 20
174.9123333333332
 30
0.0
 10
131.805
 20
174.9123333333332
 30
0.0
  0
SPLINE
  5
82
330
1F
100
AcDbEntity
  8
0
  6
Continuous
 62
    18
420
        0
370
     9
100
AcDbSpline
210
0.0
220
0.0
230
1.0
 70
    11
 71
     3
 72
    17
 73
    13
 74
     0
 42
0.000000001
 43
0.0
 40
0.0
 40
0.0
 40
0.0
 40
0.0
 40
1.0
 40
1.0
 40
1.0
 40
2.0
 40
2.0
 40
2.0
 40
3.0
 40
3.0
 40
3.0
 40
4.0
 40
4.0
 40
4.0
 40
4.0
 10
148.465
 20
174.9123333333332
 30
0.0
 10
152.604362683705
 20
174.9123333333332
 30
0.0
 10
155.965
 20
171.5516960170382
 30
0.0
 10
155.965
 20
167.4123333333332
 30
0.0
 10
155.965
 20
163.2729706496282
 30
0.0
 10
152.604362683705
 20
159.9123333333332
 30
0.0
 10
148.465
 20
159.9123333333332
 30
0.0
 10
144.325637316295
 20
159.9123333333332
 30
0.0
 10
140.9649999999999
 20
163.2729706496282
 30
0.0
 10
140.9649999999999
 20
167.4123333333332
 30
0.0
 10
140.9649999999999
 20
171.5516960170382
 30
0.0
 10
144.325637316295
 20
174.9123333333332
 30
0.0
 10
148.465
 20
174.9123333333332
 30
0.0
  0
SPLINE
  5
83
330
1F
100
AcDbEntity
  8
0
  6
Continuous
 62
    18
420
        0
370
     9
100
AcDbSpline
210
0.0
220
0.0
230
1.0
 70
    11
 71
     3
 72
    17
 73
    13
 74
     0
 42
0.000000001
 43
0.0
 40
0.0
 40
0.0
 40
0.0
 40
0.0
 40
1.0
 40
1.0
 40
1.0
 40
2.0
 40
2.0
 40
2.0
 40
3.0
 40
3.0
 40
3.0
 40
4.0
 40
4.0
 40
4.0
 40
4.0
 10
165.125
 20
174.9123333333332
 30
0.0
 10
169.264362683705
 20
174.9123333333332
 30
0.0
 10
172.625
 20
171.5516960170382
 30
0.0
 10
172.625
 20
167.4123333333332
 30
0.0
 10
172.625
 20
163.2729706496282
 30
0.0
 10
169.264362683705
 20
159.9123333333332
 30
0.0
 10
165.125
 20
159.9123333333332
 30
0.0
 10
160.985637316295
 20
159.9123333333332
 30
0.0
 10
157.625
 20
163.2729706496282
 30
0.0
 10
157.625
 20
167.4123333333332
 30
0.0
 10
157.625
 20
171.5516960170382
 30
0.0
 10
160.985637316295
 20
174.9123333333332
 30
0.0
 10
165.125
 20
174.9123333333332
 30
0.0
  0
SPLINE
  5
84
330
1F
100
AcDbEntity
  8
0
  6
Continuous
 62
    18
420
        0
370
     9
100
AcDbSpline
210
0.0
220
0.0
230
1.0
 70
    11
 71
     3
 72
    17
 73
    13
 74
     0
 42
0.000000001
 43
0.0
 40
0.0
 40
0.0
 40
0.0
 40
0.0
 40
1.0
 40
1.0
 40
1.0
 40
2.0
 40
2.0
 40
2.0
 40
3.0
 40
3.0
 40
3.0
 40
4.0
 40
4.0
 40
4.0
 40
4.0
 10
181.7849999999999
 20
174.9123333333332
 30
0.0
 10
185.9243626837049
 20
174.9123333333332
 30
0.0
 10
189.2849999999999
 20
171.5516960170382
 30
0.0
 10
189.2849999999999
 20
167.4123333333332
 30
0.0
 10
189.2849999999999
 20
163.2729706496282
 30
0.0
 10
185.9243626837049
 20
159.9123333333332
 30
0.0
 10
181.7849999999999
 20
159.9123333333332
 30
0.0
 10
177.6456373162949
 20
159.9123333333332
 30
0.0
 10
174.2849999999999
 20
163.2729706496282
 30
0.0
 10
174.2849999999999
 20
167.4123333333332
 30
0.0
 10
174.2849999999999
 20
171.5516960170382
 30
0.0
 10
177.6456373162949
 20
174.9123333333332
 30
0.0
 10
181.7849999999999
 20
174.9123333333332
 30
0.0
  0
SPLINE
  5
85
330
1F
100
AcDbEntity
  8
0
  6
Continuous
 62
    18
420
        0
370
     9
100
AcDbSpline
210
0.0
220
0.0
230
1.0
 70
    11
 71
     3
 72
    17
 73
    13
 74
     0
 42
0.000000001
 43
0.0
 40
0.0
 40
0.0
 40
0.0
 40
0.0
 40
1.0
 40
1.0
 40
1.0
 40
2.0
 40
2.0
 40
2.0
 40
3.0
 40
3.0
 40
3.0
 40
4.0
 40
4.0
 40
4.0
 40
4.0
 10
198.4449999999999
 20
174.9123333333332
 30
0.0
 10
202.584362683705
 20
174.9123333333332
 30
0.0
 10
205.945
 20
171.5516960170382
 30
0.0
 10
205.945
 20
167.4123333333332
 30
0.0
 10
205.945
 20
163.2729706496282
 30
0.0
 10
202.584362683705
 20
159.9123333333332
 30
0.0
 10
198.4449999999999
 20
159.9123333333332
 30
0.0
 10
194.305637316295
 20
159.9123333333332
 30
0.0
 10
190.9449999999999
 20
163.2729706496282
 30
0.0
 10
190.9449999999999
 20
167.4123333333332
 30
0.0
 10
190.9449999999999
 20
171.5516960170382
 30
0.0
 10
194.305637316295
 20
174.9123333333332
 30
0.0
 10
198.4449999999999
 20
174.9123333333332
 30
0.0
  0
SPLINE
  5
86
330
1F
100
AcDbEntity
  8
0
  6
Continuous
 62
    18
420
        0
370
     9
100
AcDbSpline
210
0.0
220
0.0
230
1.0
 70
    11
 71
     3
 72
    17
 73
    13
 74
     0
 42
0.000000001
 43
0.0
 40
0.0
 40
0.0
 40
0.0
 40
0.0
 40
1.0
 40
1.0
 40
1.0
 40
2.0
 40
2.0
 40
2.0
 40
3.0
 40
3.0
 40
3.0
 40
4.0
 40
4.0
 40
4.0
 40
4.0
 10
215.105
 20
174.9123333333332
 30
0.0
 10
219.244362683705
 20
174.9123333333332
 30
0.0
 10
222.605
 20
171.5516960170382
 30
0.0
 10
222.605
 20
167.4123333333332
 30
0.0
 10
222.605
 20
163.2729706496282
 30
0.0
 10
219.244362683705
 20
159.9123333333332
 30
0.0
 10
215.105
 20
159.9123333333332
 30
0.0
 10
210.965637316295
 20
159.9123333333332
 30
0.0
 10
207.605
 20
163.2729706496282
 30
0.0
 10
207.605
 20
167.4123333333332
 30
0.0
 10
207.605
 20
171.5516960170382
 30
0.0
 10
210.965637316295
 20
174.9123333333332
 30
0.0
 10
215.105
 20
174.9123333333332
 30
0.0
  0
SPLINE
  5
87
330
1F
100
AcDbEntity
  8
0
  6
Continuous
 62
    18
420
        0
370
     9
100
AcDbSpline
210
0.0
220
0.0
230
1.0
 70
    11
 71
     3
 72
    17
 73
    13
 74
     0
 42
0.000000001
 43
0.0
 40
0.0
 40
0.0
 40
0.0
 40
0.0
 40
1.0
 40
1.0
 40
1.0
 40
2.0
 40
2.0
 40
2.0
 40
3.0
 40
3.0
 40
3.0
 40
4.0
 40
4.0
 40
4.0
 40
4.0
 10
65.19500000000002
 20
124.9323333333332
 30
0.0
 10
69.33436268370502
 20
124.9323333333332
 30
0.0
 10
72.69500000000002
 20
121.5716960170381
 30
0.0
 10
72.69500000000002
 20
117.4323333333331
 30
0.0
 10
72.69500000000002
 20
113.2929706496281
 30
0.0
 10
69.33436268370502
 20
109.9323333333331
 30
0.0
 10
65.19500000000002
 20
109.9323333333331
 30
0.0
 10
61.05563731629502
 20
109.9323333333331
 30
0.0
 10
57.69500000000001
 20
113.2929706496281
 30
0.0
 10
57.69500000000001
 20
117.4323333333331
 30
0.0
 10
57.69500000000001
 20
121.5716960170381
 30
0.0
 10
61.05563731629502
 20
124.9323333333332
 30
0.0
 10
65.19500000000002
 20
124.9323333333332
 30
0.0
  0
SPLINE
  5
88
330
1F
100
AcDbEntity
  8
0
  6
Continuous
 62
    18
420
        0
370
     9
100
AcDbSpline
210
0.0
220
0.0
230
1.0
 70
    11
 71
     3
 72
    17
 73
    13
 74
     0
 42
0.000000001
 43
0.0
 40
0.0
 40
0.0
 40
0.0
 40
0.0
 40
1.0
 40
1.0
 40
1.0
 40
2.0
 40
2.0
 40
2.0
 40
3.0
 40
3.0
 40
3.0
 40
4.0
 40
4.0
 40
4.0
 40
4.0
 10
81.855
 20
124.9323333333332
 30
0.0
 10
85.994362683705
 20
124.9323333333332
 30
0.0
 10
89.355
 20
121.5716960170381
 30
0.0
 10
89.355
 20
117.4323333333331
 30
0.0
 10
89.355
 20
113.2929706496281
 30
0.0
 10
85.994362683705
 20
109.9323333333331
 30
0.0
 10
81.855
 20
109.9323333333331
 30
0.0
 10
77.715637316295
 20
109.9323333333331
 30
0.0
 10
74.355
 20
113.2929706496281
 30
0.0
 10
74.355
 20
117.4323333333331
 30
0.0
 10
74.355
 20
121.5716960170381
 30
0.0
 10
77.715637316295
 20
124.9323333333332
 30
0.0
 10
81.855
 20
124.9323333333332
 30
0.0
  0
SPLINE
  5
89
330
1F
100
AcDbEntity
  8
0
  6
Continuous
 62
    18
420
        0
370
     9
100
AcDbSpline
210
0.0
220
0.0
230
1.0
 70
    11
 71
     3
 72
    17
 73
    13
 74
     0
 42
0.000000001
 43
0.0
 40
0.0
 40
0.0
 40
0.0
 40
0.0
 40
1.0
 40
1.0
 40
1.0
 40
2.0
 40
2.0
 40
2.0
 40
3.0
 40
3.0
 40
3.0
 40
4.0
 40
4.0
 40
4.0
 40
4.0
 10
98.515
 20
124.9323333333332
 30
0.0
 10
102.654362683705
 20
124.9323333333332
 30
0.0
 10
106.015
 20
121.5716960170381
 30
0.0
 10
106.015
 20
117.4323333333331
 30
0.0
 10
106.015
 20
113.2929706496281
 30
0.0
 10
102.654362683705
 20
109.9323333333331
 30
0.0
 10
98.515
 20
109.9323333333331
 30
0.0
 10
94.375637316295
 20
109.9323333333331
 30
0.0
 10
91.01499999999999
 20
113.2929706496281
 30
0.0
 10
91.01499999999999
 20
117.4323333333331
 30
0.0
 10
91.01499999999999
 20
121.5716960170381
 30
0.0
 10
94.375637316295
 20
124.9323333333332
 30
0.0
 10
98.515
 20
124.9323333333332
 30
0.0
  0
SPLINE
  5
8A
330
1F
100
AcDbEntity
  8
0
  6
Continuous
 62
    18
420
        0
370
     9
100
AcDbSpline
210
0.0
220
0.0
230
1.0
 70
    11
 71
     3
 72
    17
 73
    13
 74
     0
 42
0.000000001
 43
0.0
 40
0.0
 40
0.0
 40
0.0
 40
0.0
 40
1.0
 40
1.0
 40
1.0
 40
2.0
 40
2.0
 40
2.0
 40
3.0
 40
3.0
 40
3.0
 40
4.0
 40
4.0
 40
4.0
 40
4.0
 10
115.175
 20
124.9323333333332
 30
0.0
 10
119.314362683705
 20
124.9323333333332
 30
0.0
 10
122.675
 20
121.5716960170381
 30
0.0
 10
122.675
 20
117.4323333333331
 30
0.0
 10
122.675
 20
113.2929706496281
 30
0.0
 10
119.314362683705
 20
109.9323333333331
 30
0.0
 10
115.175
 20
109.9323333333331
 30
0.0
 10
111.035637316295
 20
109.9323333333331
 30
0.0
 10
107.675
 20
113.2929706496281
 30
0.0
 10
107.675
 20
117.4323333333331
 30
0.0
 10
107.675
 20
121.5716960170381
 30
0.0
 10
111.035637316295
 20
124.9323333333332
 30
0.0
 10
115.175
 20
124.9323333333332
 30
0.0
  0
SPLINE
  5
8B
330
1F
100
AcDbEntity
  8
0
  6
Continuous
 62
    18
420
        0
370
     9
100
AcDbSpline
210
0.0
220
0.0
230
1.0
 70
    11
 71
     3
 72
    17
 73
    13
 74
     0
 42
0.000000001
 43
0.0
 40
0.0
 40
0.0
 40
0.0
 40
0.0
 40
1.0
 40
1.0
 40
1.0
 40
2.0
 40
2.0
 40
2.0
 40
3.0
 40
3.0
 40
3.0
 40
4.0
 40
4.0
 40
4.0
 40
4.0
 10
131.835
 20
124.9323333333332
 30
0.0
 10
135.974362683705
 20
124.9323333333332
 30
0.0
 10
139.335
 20
121.5716960170381
 30
0.0
 10
139.335
 20
117.4323333333331
 30
0.0
 10
139.335
 20
113.2929706496281
 30
0.0
 10
135.974362683705
 20
109.9323333333331
 30
0.0
 10
131.835
 20
109.9323333333331
 30
0.0
 10
127.695637316295
 20
109.9323333333331
 30
0.0
 10
124.335
 20
113.2929706496281
 30
0.0
 10
124.335
 20
117.4323333333331
 30
0.0
 10
124.335
 20
121.5716960170381
 30
0.0
 10
127.695637316295
 20
124.9323333333332
 30
0.0
 10
131.835
 20
124.9323333333332
 30
0.0
  0
SPLINE
  5
8C
330
1F
100
AcDbEntity
  8
0
  6
Continuous
 62
    18
420
        0
370
     9
100
AcDbSpline
210
0.0
220
0.0
230
1.0
 70
    11
 71
     3
 72
    17
 73
    13
 74
     0
 42
0.000000001
 43
0.0
 40
0.0
 40
0.0
 40
0.0
 40
0.0
 40
1.0
 40
1.0
 40
1.0
 40
2.0
 40
2.0
 40
2.0
 40
3.0
 40
3.0
 40
3.0
 40
4.0
 40
4.0
 40
4.0
 40
4.0
 10
148.495
 20
124.9323333333332
 30
0.0
 10
152.634362683705
 20
124.9323333333332
 30
0.0
 10
155.995
 20
121.5716960170381
 30
0.0
 10
155.995
 20
117.4323333333331
 30
0.0
 10
155.995
 20
113.2929706496281
 30
0.0
 10
152.634362683705
 20
109.9323333333331
 30
0.0
 10
148.495
 20
109.9323333333331
 30
0.0
 10
144.355637316295
 20
109.9323333333331
 30
0.0
 10
140.995
 20
113.2929706496281
 30
0.0
 10
140.995
 20
117.4323333333331
 30
0.0
 10
140.995
 20
121.5716960170381
 30
0.0
 10
144.355637316295
 20
124.9323333333332
 30
0.0
 10
148.495
 20
124.9323333333332
 30
0.0
  0
SPLINE
  5
8D
330
1F
100
AcDbEntity
  8
0
  6
Continuous
 62
    18
420
        0
370
     9
100
AcDbSpline
210
0.0
220
0.0
230
1.0
 70
    11
 71
     3
 72
    17
 73
    13
 74
     0
 42
0.000000001
 43
0.0
 40
0.0
 40
0.0
 40
0.0
 40
0.0
 40
1.0
 40
1.0
 40
1.0
 40
2.0
 40
2.0
 40
2.0
 40
3.0
 40
3.0
 40
3.0
 40
4.0
 40
4.0
 40
4.0
 40
4.0
 10
165.155
 20
124.9323333333332
 30
0.0
 10
169.294362683705
 20
124.9323333333332
 30
0.0
 10
172.655
 20
121.5716960170381
 30
0.0
 10
172.655
 20
117.4323333333331
 30
0.0
 10
172.655
 20
113.2929706496281
 30
0.0
 10
169.294362683705
 20
109.9323333333331
 30
0.0
 10
165.155
 20
109.9323333333331
 30
0.0
 10
161.015637316295
 20
109.9323333333331
 30
0.0
 10
157.6549999999999
 20
113.2929706496281
 30
0.0
 10
157.6549999999999
 20
117.4323333333331
 30
0.0
 10
157.6549999999999
 20
121.5716960170381
 30
0.0
 10
161.015637316295
 20
124.9323333333332
 30
0.0
 10
165.155
 20
124.9323333333332
 30
0.0
  0
SPLINE
  5
8E
330
1F
100
AcDbEntity
  8
0
  6
Continuous
 62
    18
420
        0
370
     9
100
AcDbSpline
210
0.0
220
0.0
230
1.0
 70
    11
 71
     3
 72
    17
 73
    13
 74
     0
 42
0.000000001
 43
0.0
 40
0.0
 40
0.0
 40
0.0
 40
0.0
 40
1.0
 40
1.0
 40
1.0
 40
2.0
 40
2.0
 40
2.0
 40
3.0
 40
3.0
 40
3.0
 40
4.0
 40
4.0
 40
4.0
 40
4.0
 10
181.815
 20
124.9323333333332
 30
0.0
 10
185.954362683705
 20
124.9323333333332
 30
0.0
 10
189.315
 20
121.5716960170381
 30
0.0
 10
189.315
 20
117.4323333333331
 30
0.0
 10
189.315
 20
113.2929706496281
 30
0.0
 10
185.954362683705
 20
109.9323333333331
 30
0.0
 10
181.815
 20
109.9323333333331
 30
0.0
 10
177.675637316295
 20
109.9323333333331
 30
0.0
 10
174.315
 20
113.2929706496281
 30
0.0
 10
174.315
 20
117.4323333333331
 30
0.0
 10
174.315
 20
121.5716960170381
 30
0.0
 10
177.675637316295
 20
124.9323333333332
 30
0.0
 10
181.815
 20
124.9323333333332
 30
0.0
  0
SPLINE
  5
8F
330
1F
100
AcDbEntity
  8
0
  6
Continuous
 62
    18
420
        0
370
     9
100
AcDbSpline
210
0.0
220
0.0
230
1.0
 70
    11
 71
     3
 72
    17
 73
    13
 74
     0
 42
0.000000001
 43
0.0
 40
0.0
 40
0.0
 40
0.0
 40
0.0
 40
1.0
 40
1.0
 40
1.0
 40
2.0
 40
2.0
 40
2.0
 40
3.0
 40
3.0
 40
3.0
 40
4.0
 40
4.0
 40
4.0
 40
4.0
 10
198.4749999999999
 20
124.9323333333332
 30
0.0
 10
202.6143626837049
 20
124.9323333333332
 30
0.0
 10
205.9749999999999
 20
121.5716960170381
 30
0.0
 10
205.9749999999999
 20
117.4323333333331
 30
0.0
 10
205.9749999999999
 20
113.2929706496281
 30
0.0
 10
202.6143626837049
 20
109.9323333333331
 30
0.0
 10
198.4749999999999
 20
109.9323333333331
 30
0.0
 10
194.3356373162949
 20
109.9323333333331
 30
0.0
 10
190.9749999999999
 20
113.2929706496281
 30
0.0
 10
190.9749999999999
 20
117.4323333333331
 30
0.0
 10
190.9749999999999
 20
121.5716960170381
 30
0.0
 10
194.3356373162949
 20
124.9323333333332
 30
0.0
 10
198.4749999999999
 20
124.9323333333332
 30
0.0
  0
SPLINE
  5
90
330
1F
100
AcDbEntity
  8
0
  6
Continuous
 62
    18
420
        0
370
     9
100
AcDbSpline
210
0.0
220
0.0
230
1.0
 70
    11
 71
     3
 72
    17
 73
    13
 74
     0
 42
0.000000001
 43
0.0
 40
0.0
 40
0.0
 40
0.0
 40
0.0
 40
1.0
 40
1.0
 40
1.0
 40
2.0
 40
2.0
 40
2.0
 40
3.0
 40
3.0
 40
3.0
 40
4.0
 40
4.0
 40
4.0
 40
4.0
 10
215.135
 20
124.9323333333332
 30
0.0
 10
219.274362683705
 20
124.9323333333332
 30
0.0
 10
222.635
 20
121.5716960170381
 30
0.0
 10
222.635
 20
117.4323333333331
 30
0.0
 10
222.635
 20
113.2929706496281
 30
0.0
 10
219.274362683705
 20
109.9323333333331
 30
0.0
 10
215.135
 20
109.9323333333331
 30
0.0
 10
210.995637316295
 20
109.9323333333331
 30
0.0
 10
207.635
 20
113.2929706496281
 30
0.0
 10
207.635
 20
117.4323333333331
 30
0.0
 10
207.635
 20
121.5716960170381
 30
0.0
 10
210.995637316295
 20
124.9323333333332
 30
0.0
 10
215.135
 20
124.9323333333332
 30
0.0
  0
SPLINE
  5
91
330
1F
100
AcDbEntity
  8
0
  6
Continuous
 62
    18
420
        0
370
     9
100
AcDbSpline
210
0.0
220
0.0
230
1.0
 70
    11
 71
     3
 72
    17
 73
    13
 74
     0
 42
0.000000001
 43
0.0
 40
0.0
 40
0.0
 40
0.0
 40
0.0
 40
1.0
 40
1.0
 40
1.0
 40
2.0
 40
2.0
 40
2.0
 40
3.0
 40
3.0
 40
3.0
 40
4.0
 40
4.0
 40
4.0
 40
4.0
 10
65.19500000000002
 20
108.2723333333331
 30
0.0
 10
69.33436268370502
 20
108.2723333333331
 30
0.0
 10
72.69500000000002
 20
104.9116960170381
 30
0.0
 10
72.69500000000002
 20
100.7723333333331
 30
0.0
 10
72.69500000000002
 20
96.63297064962808
 30
0.0
 10
69.33436268370502
 20
93.27233333333308
 30
0.0
 10
65.19500000000002
 20
93.27233333333308
 30
0.0
 10
61.05563731629502
 20
93.27233333333308
 30
0.0
 10
57.69500000000001
 20
96.63297064962808
 30
0.0
 10
57.69500000000001
 20
100.7723333333331
 30
0.0
 10
57.69500000000001
 20
104.9116960170381
 30
0.0
 10
61.05563731629502
 20
108.2723333333331
 30
0.0
 10
65.19500000000002
 20
108.2723333333331
 30
0.0
  0
SPLINE
  5
92
330
1F
100
AcDbEntity
  8
0
  6
Continuous
 62
    18
420
        0
370
     9
100
AcDbSpline
210
0.0
220
0.0
230
1.0
 70
    11
 71
     3
 72
    17
 73
    13
 74
     0
 42
0.000000001
 43
0.0
 40
0.0
 40
0.0
 40
0.0
 40
0.0
 40
1.0
 40
1.0
 40
1.0
 40
2.0
 40
2.0
 40
2.0
 40
3.0
 40
3.0
 40
3.0
 40
4.0
 40
4.0
 40
4.0
 40
4.0
 10
65.19500000000002
 20
91.61233333333305
 30
0.0
 10
69.33436268370502
 20
91.61233333333305
 30
0.0
 10
72.69500000000002
 20
88.25169601703806
 30
0.0
 10
72.69500000000002
 20
84.11233333333303
 30
0.0
 10
72.69500000000002
 20
79.97297064962805
 30
0.0
 10
69.33436268370502
 20
76.61233333333305
 30
0.0
 10
65.19500000000002
 20
76.61233333333305
 30
0.0
 10
61.05563731629502
 20
76.61233333333305
 30
0.0
 10
57.69500000000001
 20
79.97297064962805
 30
0.0
 10
57.69500000000001
 20
84.11233333333303
 30
0.0
 10
57.69500000000001
 20
88.25169601703806
 30
0.0
 10
61.05563731629502
 20
91.61233333333305
 30
0.0
 10
65.19500000000002
 20
91.61233333333305
 30
0.0
  0
SPLINE
  5
93
330
1F
100
AcDbEntity
  8
0
  6
Continuous
 62
    18
420
        0
370
     9
100
AcDbSpline
210
0.0
220
0.0
230
1.0
 70
    11
 71
     3
 72
    17
 73
    13
 74
     0
 42
0.000000001
 43
0.0
 40
0.0
 40
0.0
 40
0.0
 40
0.0
 40
1.0
 40
1.0
 40
1.0
 40
2.0
 40
2.0
 40
2.0
 40
3.0
 40
3.0
 40
3.0
 40
4.0
 40
4.0
 40
4.0
 40
4.0
 10
81.855
 20
91.61233333333305
 30
0.0
 10
85.994362683705
 20
91.61233333333305
 30
0.0
 10
89.355
 20
88.25169601703806
 30
0.0
 10
89.355
 20
84.11233333333303
 30
0.0
 10
89.355
 20
79.97297064962805
 30
0.0
 10
85.994362683705
 20
76.61233333333305
 30
0.0
 10
81.855
 20
76.61233333333305
 30
0.0
 10
77.715637316295
 20
76.61233333333305
 30
0.0
 10
74.355
 20
79.97297064962805
 30
0.0
 10
74.355
 20
84.11233333333303
 30
0.0
 10
74.355
 20
88.25169601703806
 30
0.0
 10
77.715637316295
 20
91.61233333333305
 30
0.0
 10
81.855
 20
91.61233333333305
 30
0.0
  0
SPLINE
  5
94
330
1F
100
AcDbEntity
  8
0
  6
Continuous
 62
    18
420
        0
370
     9
100
AcDbSpline
210
0.0
220
0.0
230
1.0
 70
    11
 71
     3
 72
    17
 73
    13
 74
     0
 42
0.000000001
 43
0.0
 40
0.0
 40
0.0
 40
0.0
 40
0.0
 40
1.0
 40
1.0
 40
1.0
 40
2.0
 40
2.0
 40
2.0
 40
3.0
 40
3.0
 40
3.0
 40
4.0
 40
4.0
 40
4.0
 40
4.0
 10
98.515
 20
91.61233333333305
 30
0.0
 10
102.654362683705
 20
91.61233333333305
 30
0.0
 10
106.015
 20
88.25169601703806
 30
0.0
 10
106.015
 20
84.11233333333303
 30
0.0
 10
106.015
 20
79.97297064962805
 30
0.0
 10
102.654362683705
 20
76.61233333333305
 30
0.0
 10
98.515
 20
76.61233333333305
 30
0.0
 10
94.375637316295
 20
76.61233333333305
 30
0.0
 10
91.01499999999999
 20
79.97297064962805
 30
0.0
 10
91.01499999999999
 20
84.11233333333303
 30
0.0
 10
91.01499999999999
 20
88.25169601703806
 30
0.0
 10
94.375637316295
 20
91.61233333333305
 30
0.0
 10
98.515
 20
91.61233333333305
 30
0.0
  0
SPLINE
  5
95
330
1F
100
AcDbEntity
  8
0
  6
Continuous
 62
    18
420
        0
370
     9
100
AcDbSpline
210
0.0
220
0.0
230
1.0
 70
    11
 71
     3
 72
    17
 73
    13
 74
     0
 42
0.000000001
 43
0.0
 40
0.0
 40
0.0
 40
0.0
 40
0.0
 40
1.0
 40
1.0
 40
1.0
 40
2.0
 40
2.0
 40
2.0
 40
3.0
 40
3.0
 40
3.0
 40
4.0
 40
4.0
 40
4.0
 40
4.0
 10
115.175
 20
91.61233333333305
 30
0.0
 10
119.314362683705
 20
91.61233333333305
 30
0.0
 10
122.675
 20
88.25169601703806
 30
0.0
 10
122.675
 20
84.11233333333303
 30
0.0
 10
122.675
 20
79.97297064962805
 30
0.0
 10
119.314362683705
 20
76.61233333333305
 30
0.0
 10
115.175
 20
76.61233333333305
 30
0.0
 10
111.035637316295
 20
76.61233333333305
 30
0.0
 10
107.675
 20
79.97297064962805
 30
0.0
 10
107.675
 20
84.11233333333303
 30
0.0
 10
107.675
 20
88.25169601703806
 30
0.0
 10
111.035637316295
 20
91.61233333333305
 30
0.0
 10
115.175
 20
91.61233333333305
 30
0.0
  0
SPLINE
  5
96
330
1F
100
AcDbEntity
  8
0
  6
Continuous
 62
    18
420
        0
370
     9
100
AcDbSpline
210
0.0
220
0.0
230
1.0
 70
    11
 71
     3
 72
    17
 73
    13
 74
     0
 42
0.000000001
 43
0.0
 40
0.0
 40
0.0
 40
0.0
 40
0.0
 40
1.0
 40
1.0
 40
1.0
 40
2.0
 40
2.0
 40
2.0
 40
3.0
 40
3.0
 40
3.0
 40
4.0
 40
4.0
 40
4.0
 40
4.0
 10
131.835
 20
91.61233333333305
 30
0.0
 10
135.974362683705
 20
91.61233333333305
 30
0.0
 10
139.335
 20
88.25169601703806
 30
0.0
 10
139.335
 20
84.11233333333303
 30
0.0
 10
139.335
 20
79.97297064962805
 30
0.0
 10
135.974362683705
 20
76.61233333333305
 30
0.0
 10
131.835
 20
76.61233333333305
 30
0.0
 10
127.695637316295
 20
76.61233333333305
 30
0.0
 10
124.335
 20
79.97297064962805
 30
0.0
 10
124.335
 20
84.11233333333303
 30
0.0
 10
124.335
 20
88.25169601703806
 30
0.0
 10
127.695637316295
 20
91.61233333333305
 30
0.0
 10
131.835
 20
91.61233333333305
 30
0.0
  0
SPLINE
  5
97
330
1F
100
AcDbEntity
  8
0
  6
Continuous
 62
    18
420
        0
370
     9
100
AcDbSpline
210
0.0
220
0.0
230
1.0
 70
    11
 71
     3
 72
    17
 73
    13
 74
     0
 42
0.000000001
 43
0.0
 40
0.0
 40
0.0
 40
0.0
 40
0.0
 40
1.0
 40
1.0
 40
1.0
 40
2.0
 40
2.0
 40
2.0
 40
3.0
 40
3.0
 40
3.0
 40
4.0
 40
4.0
 40
4.0
 40
4.0
 10
148.495
 20
91.61233333333305
 30
0.0
 10
152.634362683705
 20
91.61233333333305
 30
0.0
 10
155.995
 20
88.25169601703806
 30
0.0
 10
155.995
 20
84.11233333333303
 30
0.0
 10
155.995
 20
79.97297064962805
 30
0.0
 10
152.634362683705
 20
76.61233333333305
 30
0.0
 10
148.495
 20
76.61233333333305
 30
0.0
 10
144.355637316295
 20
76.61233333333305
 30
0.0
 10
140.995
 20
79.97297064962805
 30
0.0
 10
140.995
 20
84.11233333333303
 30
0.0
 10
140.995
 20
88.25169601703806
 30
0.0
 10
144.355637316295
 20
91.61233333333305
 30
0.0
 10
148.495
 20
91.61233333333305
 30
0.0
  0
SPLINE
  5
98
330
1F
100
AcDbEntity
  8
0
  6
Continuous
 62
    18
420
        0
370
     9
100
AcDbSpline
210
0.0
220
0.0
230
1.0
 70
    11
 71
     3
 72
    17
 73
    13
 74
     0
 42
0.000000001
 43
0.0
 40
0.0
 40
0.0
 40
0.0
 40
0.0
 40
1.0
 40
1.0
 40
1.0
 40
2.0
 40
2.0
 40
2.0
 40
3.0
 40
3.0
 40
3.0
 40
4.0
 40
4.0
 40
4.0
 40
4.0
 10
165.155
 20
91.61233333333305
 30
0.0
 10
169.294362683705
 20
91.61233333333305
 30
0.0
 10
172.655
 20
88.25169601703806
 30
0.0
 10
172.655
 20
84.11233333333303
 30
0.0
 10
172.655
 20
79.97297064962805
 30
0.0
 10
169.294362683705
 20
76.61233333333305
 30
0.0
 10
165.155
 20
76.61233333333305
 30
0.0
 10
161.015637316295
 20
76.61233333333305
 30
0.0
 10
157.6549999999999
 20
79.97297064962805
 30
0.0
 10
157.6549999999999
 20
84.11233333333303
 30
0.0
 10
157.6549999999999
 20
88.25169601703806
 30
0.0
 10
161.015637316295
 20
91.61233333333305
 30
0.0
 10
165.155
 20
91.61233333333305
 30
0.0
  0
SPLINE
  5
99
330
1F
100
AcDbEntity
  8
0
  6
Continuous
 62
    18
420
        0
370
     9
100
AcDbSpline
210
0.0
220
0.0
230
1.0
 70
    11
 71
     3
 72
    17
 73
    13
 74
     0
 42
0.000000001
 43
0.0
 40
0.0
 40
0.0
 40
0.0
 40
0.0
 40
1.0
 40
1.0
 40
1.0
 40
2.0
 40
2.0
 40
2.0
 40
3.0
 40
3.0
 40
3.0
 40
4.0
 40
4.0
 40
4.0
 40
4.0
 10
181.815
 20
91.61233333333305
 30
0.0
 10
185.954362683705
 20
91.61233333333305
 30
0.0
 10
189.315
 20
88.25169601703806
 30
0.0
 10
189.315
 20
84.11233333333303
 30
0.0
 10
189.315
 20
79.97297064962805
 30
0.0
 10
185.954362683705
 20
76.61233333333305
 30
0.0
 10
181.815
 20
76.61233333333305
 30
0.0
 10
177.675637316295
 20
76.61233333333305
 30
0.0
 10
174.315
 20
79.97297064962805
 30
0.0
 10
174.315
 20
84.11233333333303
 30
0.0
 10
174.315
 20
88.25169601703806
 30
0.0
 10
177.675637316295
 20
91.61233333333305
 30
0.0
 10
181.815
 20
91.61233333333305
 30
0.0
  0
SPLINE
  5
9A
330
1F
100
AcDbEntity
  8
0
  6
Continuous
 62
    18
420
        0
370
     9
100
AcDbSpline
210
0.0
220
0.0
230
1.0
 70
    11
 71
     3
 72
    17
 73
    13
 74
     0
 42
0.000000001
 43
0.0
 40
0.0
 40
0.0
 40
0.0
 40
0.0
 40
1.0
 40
1.0
 40
1.0
 40
2.0
 40
2.0
 40
2.0
 40
3.0
 40
3.0
 40
3.0
 40
4.0
 40
4.0
 40
4.0
 40
4.0
 10
198.4749999999999
 20
91.61233333333305
 30
0.0
 10
202.6143626837049
 20
91.61233333333305
 30
0.0
 10
205.9749999999999
 20
88.25169601703806
 30
0.0
 10
205.9749999999999
 20
84.11233333333303
 30
0.0
 10
205.9749999999999
 20
79.97297064962805
 30
0.0
 10
202.6143626837049
 20
76.61233333333305
 30
0.0
 10
198.4749999999999
 20
76.61233333333305
 30
0.0
 10
194.3356373162949
 20
76.61233333333305
 30
0.0
 10
190.9749999999999
 20
79.97297064962805
 30
0.0
 10
190.9749999999999
 20
84.11233333333303
 30
0.0
 10
190.9749999999999
 20
88.25169601703806
 30
0.0
 10
194.3356373162949
 20
91.61233333333305
 30
0.0
 10
198.4749999999999
 20
91.61233333333305
 30
0.0
  0
SPLINE
  5
9B
330
1F
100
AcDbEntity
  8
0
  6
Continuous
 62
    18
420
        0
370
     9
100
AcDbSpline
210
0.0
220
0.0
230
1.0
 70
    11
 71
     3
 72
    17
 73
    13
 74
     0
 42
0.000000001
 43
0.0
 40
0.0
 40
0.0
 40
0.0
 40
0.0
 40
1.0
 40
1.0
 40
1.0
 40
2.0
 40
2.0
 40
2.0
 40
3.0
 40
3.0
 40
3.0
 40
4.0
 40
4.0
 40
4.0
 40
4.0
 10
215.135
 20
91.61233333333305
 30
0.0
 10
219.274362683705
 20
91.61233333333305
 30
0.0
 10
222.635
 20
88.25169601703806
 30
0.0
 10
222.635
 20
84.11233333333303
 30
0.0
 10
222.635
 20
79.97297064962805
 30
0.0
 10
219.274362683705
 20
76.61233333333305
 30
0.0
 10
215.135
 20
76.61233333333305
 30
0.0
 10
210.995637316295
 20
76.61233333333305
 30
0.0
 10
207.635
 20
79.97297064962805
 30
0.0
 10
207.635
 20
84.11233333333303
 30
0.0
 10
207.635
 20
88.25169601703806
 30
0.0
 10
210.995637316295
 20
91.61233333333305
 30
0.0
 10
215.135
 20
91.61233333333305
 30
0.0
  0
SPLINE
  5
9C
330
1F
100
AcDbEntity
  8
0
  6
Continuous
 62
    18
420
        0
370
     9
100
AcDbSpline
210
0.0
220
0.0
230
1.0
 70
    11
 71
     3
 72
    17
 73
    13
 74
     0
 42
0.000000001
 43
0.0
 40
0.0
 40
0.0
 40
0.0
 40
0.0
 40
1.0
 40
1.0
 40
1.0
 40
2.0
 40
2.0
 40
2.0
 40
3.0
 40
3.0
 40
3.0
 40
4.0
 40
4.0
 40
4.0
 40
4.0
 10
65.19500000000002
 20
74.95233333333309
 30
0.0
 10
69.33436268370502
 20
74.95233333333309
 30
0.0
 10
72.69500000000002
 20
71.59169601703806
 30
0.0
 10
72.69500000000002
 20
67.45233333333306
 30
0.0
 10
72.69500000000002
 20
63.31297064962808
 30
0.0
 10
69.33436268370502
 20
59.95233333333306
 30
0.0
 10
65.19500000000002
 20
59.95233333333306
 30
0.0
 10
61.05563731629502
 20
59.95233333333306
 30
0.0
 10
57.69500000000001
 20
63.31297064962808
 30
0.0
 10
57.69500000000001
 20
67.45233333333306
 30
0.0
 10
57.69500000000001
 20
71.59169601703806
 30
0.0
 10
61.05563731629502
 20
74.95233333333309
 30
0.0
 10
65.19500000000002
 20
74.95233333333309
 30
0.0
  0
SPLINE
  5
9D
330
1F
100
AcDbEntity
  8
0
  6
Continuous
 62
    18
420
        0
370
     9
100
AcDbSpline
210
0.0
220
0.0
230
1.0
 70
    11
 71
     3
 72
    17
 73
    13
 74
     0
 42
0.000000001
 43
0.0
 40
0.0
 40
0.0
 40
0.0
 40
0.0
 40
1.0
 40
1.0
 40
1.0
 40
2.0
 40
2.0
 40
2.0
 40
3.0
 40
3.0
 40
3.0
 40
4.0
 40
4.0
 40
4.0
 40
4.0
 10
81.855
 20
74.95233333333309
 30
0.0
 10
85.994362683705
 20
74.95233333333309
 30
0.0
 10
89.355
 20
71.59169601703806
 30
0.0
 10
89.355
 20
67.45233333333306
 30
0.0
 10
89.355
 20
63.31297064962808
 30
0.0
 10
85.994362683705
 20
59.95233333333306
 30
0.0
 10
81.855
 20
59.95233333333306
 30
0.0
 10
77.715637316295
 20
59.95233333333306
 30
0.0
 10
74.355
 20
63.31297064962808
 30
0.0
 10
74.355
 20
67.45233333333306
 30
0.0
 10
74.355
 20
71.59169601703806
 30
0.0
 10
77.715637316295
 20
74.95233333333309
 30
0.0
 10
81.855
 20
74.95233333333309
 30
0.0
  0
SPLINE
  5
9E
330
1F
100
AcDbEntity
  8
0
  6
Continuous
 62
    18
420
        0
370
     9
100
AcDbSpline
210
0.0
220
0.0
230
1.0
 70
    11
 71
     3
 72
    17
 73
    13
 74
     0
 42
0.000000001
 43
0.0
 40
0.0
 40
0.0
 40
0.0
 40
0.0
 40
1.0
 40
1.0
 40
1.0
 40
2.0
 40
2.0
 40
2.0
 40
3.0
 40
3.0
 40
3.0
 40
4.0
 40
4.0
 40
4.0
 40
4.0
 10
98.515
 20
74.95233333333309
 30
0.0
 10
102.654362683705
 20
74.95233333333309
 30
0.0
 10
106.015
 20
71.59169601703806
 30
0.0
 10
106.015
 20
67.45233333333306
 30
0.0
 10
106.015
 20
63.31297064962808
 30
0.0
 10
102.654362683705
 20
59.95233333333306
 30
0.0
 10
98.515
 20
59.95233333333306
 30
0.0
 10
94.375637316295
 20
59.95233333333306
 30
0.0
 10
91.01499999999999
 20
63.31297064962808
 30
0.0
 10
91.01499999999999
 20
67.45233333333306
 30
0.0
 10
91.01499999999999
 20
71.59169601703806
 30
0.0
 10
94.375637316295
 20
74.95233333333309
 30
0.0
 10
98.515
 20
74.95233333333309
 30
0.0
  0
SPLINE
  5
9F
330
1F
100
AcDbEntity
  8
0
  6
Continuous
 62
    18
420
        0
370
     9
100
AcDbSpline
210
0.0
220
0.0
230
1.0
 70
    11
 71
     3
 72
    17
 73
    13
 74
     0
 42
0.000000001
 43
0.0
 40
0.0
 40
0.0
 40
0.0
 40
0.0
 40
1.0
 40
1.0
 40
1.0
 40
2.0
 40
2.0
 40
2.0
 40
3.0
 40
3.0
 40
3.0
 40
4.0
 40
4.0
 40
4.0
 40
4.0
 10
115.175
 20
74.95233333333309
 30
0.0
 10
119.314362683705
 20
74.95233333333309
 30
0.0
 10
122.675
 20
71.59169601703806
 30
0.0
 10
122.675
 20
67.45233333333306
 30
0.0
 10
122.675
 20
63.31297064962808
 30
0.0
 10
119.314362683705
 20
59.95233333333306
 30
0.0
 10
115.175
 20
59.95233333333306
 30
0.0
 10
111.035637316295
 20
59.95233333333306
 30
0.0
 10
107.675
 20
63.31297064962808
 30
0.0
 10
107.675
 20
67.45233333333306
 30
0.0
 10
107.675
 20
71.59169601703806
 30
0.0
 10
111.035637316295
 20
74.95233333333309
 30
0.0
 10
115.175
 20
74.95233333333309
 30
0.0
  0
SPLINE
  5
A0
330
1F
100
AcDbEntity
  8
0
  6
Continuous
 62
    18
420
        0
370
     9
100
AcDbSpline
210
0.0
220
0.0
230
1.0
 70
    11
 71
     3
 72
    17
 73
    13
 74
     0
 42
0.000000001
 43
0.0
 40
0.0
 40
0.0
 40
0.0
 40
0.0
 40
1.0
 40
1.0
 40
1.0
 40
2.0
 40
2.0
 40
2.0
 40
3.0
 40
3.0
 40
3.0
 40
4.0
 40
4.0
 40
4.0
 40
4.0
 10
131.835
 20
74.95233333333309
 30
0.0
 10
135.974362683705
 20
74.95233333333309
 30
0.0
 10
139.335
 20
71.59169601703806
 30
0.0
 10
139.335
 20
67.45233333333306
 30
0.0
 10
139.335
 20
63.31297064962808
 30
0.0
 10
135.974362683705
 20
59.95233333333306
 30
0.0
 10
131.835
 20
59.95233333333306
 30
0.0
 10
127.695637316295
 20
59.95233333333306
 30
0.0
 10
124.335
 20
63.31297064962808
 30
0.0
 10
124.335
 20
67.45233333333306
 30
0.0
 10
124.335
 20
71.59169601703806
 30
0.0
 10
127.695637316295
 20
74.95233333333309
 30
0.0
 10
131.835
 20
74.95233333333309
 30
0.0
  0
SPLINE
  5
A1
330
1F
100
AcDbEntity
  8
0
  6
Continuous
 62
    18
420
        0
370
     9
100
AcDbSpline
210
0.0
220
0.0
230
1.0
 70
    11
 71
     3
 72
    17
 73
    13
 74
     0
 42
0.000000001
 43
0.0
 40
0.0
 40
0.0
 40
0.0
 40
0.0
 40
1.0
 40
1.0
 40
1.0
 40
2.0
 40
2.0
 40
2.0
 40
3.0
 40
3.0
 40
3.0
 40
4.0
 40
4.0
 40
4.0
 40
4.0
 10
148.495
 20
74.95233333333309
 30
0.0
 10
152.634362683705
 20
74.95233333333309
 30
0.0
 10
155.995
 20
71.59169601703806
 30
0.0
 10
155.995
 20
67.45233333333306
 30
0.0
 10
155.995
 20
63.31297064962808
 30
0.0
 10
152.634362683705
 20
59.95233333333306
 30
0.0
 10
148.495
 20
59.95233333333306
 30
0.0
 10
144.355637316295
 20
59.95233333333306
 30
0.0
 10
140.995
 20
63.31297064962808
 30
0.0
 10
140.995
 20
67.45233333333306
 30
0.0
 10
140.995
 20
71.59169601703806
 30
0.0
 10
144.355637316295
 20
74.95233333333309
 30
0.0
 10
148.495
 20
74.95233333333309
 30
0.0
  0
SPLINE
  5
A2
330
1F
100
AcDbEntity
  8
0
  6
Continuous
 62
    18
420
        0
370
     9
100
AcDbSpline
210
0.0
220
0.0
230
1.0
 70
    11
 71
     3
 72
    17
 73
    13
 74
     0
 42
0.000000001
 43
0.0
 40
0.0
 40
0.0
 40
0.0
 40
0.0
 40
1.0
 40
1.0
 40
1.0
 40
2.0
 40
2.0
 40
2.0
 40
3.0
 40
3.0
 40
3.0
 40
4.0
 40
4.0
 40
4.0
 40
4.0
 10
165.155
 20
74.95233333333309
 30
0.0
 10
169.294362683705
 20
74.95233333333309
 30
0.0
 10
172.655
 20
71.59169601703806
 30
0.0
 10
172.655
 20
67.45233333333306
 30
0.0
 10
172.655
 20
63.31297064962808
 30
0.0
 10
169.294362683705
 20
59.95233333333306
 30
0.0
 10
165.155
 20
59.95233333333306
 30
0.0
 10
161.015637316295
 20
59.95233333333306
 30
0.0
 10
157.6549999999999
 20
63.31297064962808
 30
0.0
 10
157.6549999999999
 20
67.45233333333306
 30
0.0
 10
157.6549999999999
 20
71.59169601703806
 30
0.0
 10
161.015637316295
 20
74.95233333333309
 30
0.0
 10
165.155
 20
74.95233333333309
 30
0.0
  0
SPLINE
  5
A3
330
1F
100
AcDbEntity
  8
0
  6
Continuous
 62
    18
420
        0
370
     9
100
AcDbSpline
210
0.0
220
0.0
230
1.0
 70
    11
 71
     3
 72
    17
 73
    13
 74
     0
 42
0.000000001
 43
0.0
 40
0.0
 40
0.0
 40
0.0
 40
0.0
 40
1.0
 40
1.0
 40
1.0
 40
2.0
 40
2.0
 40
2.0
 40
3.0
 40
3.0
 40
3.0
 40
4.0
 40
4.0
 40
4.0
 40
4.0
 10
181.815
 20
74.95233333333309
 30
0.0
 10
185.954362683705
 20
74.95233333333309
 30
0.0
 10
189.315
 20
71.59169601703806
 30
0.0
 10
189.315
 20
67.45233333333306
 30
0.0
 10
189.315
 20
63.31297064962808
 30
0.0
 10
185.954362683705
 20
59.95233333333306
 30
0.0
 10
181.815
 20
59.95233333333306
 30
0.0
 10
177.675637316295
 20
59.95233333333306
 30
0.0
 10
174.315
 20
63.31297064962808
 30
0.0
 10
174.315
 20
67.45233333333306
 30
0.0
 10
174.315
 20
71.59169601703806
 30
0.0
 10
177.675637316295
 20
74.95233333333309
 30
0.0
 10
181.815
 20
74.95233333333309
 30
0.0
  0
SPLINE
  5
A4
330
1F
100
AcDbEntity
  8
0
  6
Continuous
 62
    18
420
        0
370
     9
100
AcDbSpline
210
0.0
220
0.0
230
1.0
 70
    11
 71
     3
 72
    17
 73
    13
 74
     0
 42
0.000000001
 43
0.0
 40
0.0
 40
0.0
 40
0.0
 40
0.0
 40
1.0
 40
1.0
 40
1.0
 40
2.0
 40
2.0
 40
2.0
 40
3.0
 40
3.0
 40
3.0
 40
4.0
 40
4.0
 40
4.0
 40
4.0
 10
198.4749999999999
 20
74.95233333333309
 30
0.0
 10
202.6143626837049
 20
74.95233333333309
 30
0.0
 10
205.9749999999999
 20
71.59169601703806
 30
0.0
 10
205.9749999999999
 20
67.45233333333306
 30
0.0
 10
205.9749999999999
 20
63.31297064962808
 30
0.0
 10
202.6143626837049
 20
59.95233333333306
 30
0.0
 10
198.4749999999999
 20
59.95233333333306
 30
0.0
 10
194.3356373162949
 20
59.95233333333306
 30
0.0
 10
190.9749999999999
 20
63.31297064962808
 30
0.0
 10
190.9749999999999
 20
67.45233333333306
 30
0.0
 10
190.9749999999999
 20
71.59169601703806
 30
0.0
 10
194.3356373162949
 20
74.95233333333309
 30
0.0
 10
198.4749999999999
 20
74.95233333333309
 30
0.0
  0
SPLINE
  5
A5
330
1F
100
AcDbEntity
  8
0
  6
Continuous
 62
    18
420
        0
370
     9
100
AcDbSpline
210
0.0
220
0.0
230
1.0
 70
    11
 71
     3
 72
    17
 73
    13
 74
     0
 42
0.000000001
 43
0.0
 40
0.0
 40
0.0
 40
0.0
 40
0.0
 40
1.0
 40
1.0
 40
1.0
 40
2.0
 40
2.0
 40
2.0
 40
3.0
 40
3.0
 40
3.0
 40
4.0
 40
4.0
 40
4.0
 40
4.0
 10
215.135
 20
74.95233333333309
 30
0.0
 10
219.274362683705
 20
74.95233333333309
 30
0.0
 10
222.635
 20
71.59169601703806
 30
0.0
 10
222.635
 20
67.45233333333306
 30
0.0
 10
222.635
 20
63.31297064962808
 30
0.0
 10
219.274362683705
 20
59.95233333333306
 30
0.0
 10
215.135
 20
59.95233333333306
 30
0.0
 10
210.995637316295
 20
59.95233333333306
 30
0.0
 10
207.635
 20
63.31297064962808
 30
0.0
 10
207.635
 20
67.45233333333306
 30
0.0
 10
207.635
 20
71.59169601703806
 30
0.0
 10
210.995637316295
 20
74.95233333333309
 30
0.0
 10
215.135
 20
74.95233333333309
 30
0.0
  0
SPLINE
  5
A6
330
1F
100
AcDbEntity
  8
0
  6
Continuous
 62
    18
420
        0
370
     9
100
AcDbSpline
210
0.0
220
0.0
230
1.0
 70
    11
 71
     3
 72
    17
 73
    13
 74
     0
 42
0.000000001
 43
0.0
 40
0.0
 40
0.0
 40
0.0
 40
0.0
 40
1.0
 40
1.0
 40
1.0
 40
2.0
 40
2.0
 40
2.0
 40
3.0
 40
3.0
 40
3.0
 40
4.0
 40
4.0
 40
4.0
 40
4.0
 10
65.19500000000002
 20
58.29233333333303
 30
0.0
 10
69.33436268370502
 20
58.29233333333303
 30
0.0
 10
72.69500000000002
 20
54.93169601703806
 30
0.0
 10
72.69500000000002
 20
50.79233333333303
 30
0.0
 10
72.69500000000002
 20
46.65297064962806
 30
0.0
 10
69.33436268370502
 20
43.29233333333303
 30
0.0
 10
65.19500000000002
 20
43.29233333333303
 30
0.0
 10
61.05563731629502
 20
43.29233333333303
 30
0.0
 10
57.69500000000001
 20
46.65297064962806
 30
0.0
 10
57.69500000000001
 20
50.79233333333303
 30
0.0
 10
57.69500000000001
 20
54.93169601703806
 30
0.0
 10
61.05563731629502
 20
58.29233333333303
 30
0.0
 10
65.19500000000002
 20
58.29233333333303
 30
0.0
  0
SPLINE
  5
A7
330
1F
100
AcDbEntity
  8
0
  6
Continuous
 62
    18
420
        0
370
     9
100
AcDbSpline
210
0.0
220
0.0
230
1.0
 70
    11
 71
     3
 72
    17
 73
    13
 74
     0
 42
0.000000001
 43
0.0
 40
0.0
 40
0.0
 40
0.0
 40
0.0
 40
1.0
 40
1.0
 40
1.0
 40
2.0
 40
2.0
 40
2.0
 40
3.0
 40
3.0
 40
3.0
 40
4.0
 40
4.0
 40
4.0
 40
4.0
 10
81.855
 20
58.29233333333303
 30
0.0
 10
85.994362683705
 20
58.29233333333303
 30
0.0
 10
89.355
 20
54.93169601703806
 30
0.0
 10
89.355
 20
50.79233333333303
 30
0.0
 10
89.355
 20
46.65297064962806
 30
0.0
 10
85.994362683705
 20
43.29233333333303
 30
0.0
 10
81.855
 20
43.29233333333303
 30
0.0
 10
77.715637316295
 20
43.29233333333303
 30
0.0
 10
74.355
 20
46.65297064962806
 30
0.0
 10
74.355
 20
50.79233333333303
 30
0.0
 10
74.355
 20
54.93169601703806
 30
0.0
 10
77.715637316295
 20
58.29233333333303
 30
0.0
 10
81.855
 20
58.29233333333303
 30
0.0
  0
SPLINE
  5
A8
330
1F
100
AcDbEntity
  8
0
  6
Continuous
 62
    18
420
        0
370
     9
100
AcDbSpline
210
0.0
220
0.0
230
1.0
 70
    11
 71
     3
 72
    17
 73
    13
 74
     0
 42
0.000000001
 43
0.0
 40
0.0
 40
0.0
 40
0.0
 40
0.0
 40
1.0
 40
1.0
 40
1.0
 40
2.0
 40
2.0
 40
2.0
 40
3.0
 40
3.0
 40
3.0
 40
4.0
 40
4.0
 40
4.0
 40
4.0
 10
98.515
 20
58.29233333333303
 30
0.0
 10
102.654362683705
 20
58.29233333333303
 30
0.0
 10
106.015
 20
54.93169601703806
 30
0.0
 10
106.015
 20
50.79233333333303
 30
0.0
 10
106.015
 20
46.65297064962806
 30
0.0
 10
102.654362683705
 20
43.29233333333303
 30
0.0
 10
98.515
 20
43.29233333333303
 30
0.0
 10
94.375637316295
 20
43.29233333333303
 30
0.0
 10
91.01499999999999
 20
46.65297064962806
 30
0.0
 10
91.01499999999999
 20
50.79233333333303
 30
0.0
 10
91.01499999999999
 20
54.93169601703806
 30
0.0
 10
94.375637316295
 20
58.29233333333303
 30
0.0
 10
98.515
 20
58.29233333333303
 30
0.0
  0
SPLINE
  5
A9
330
1F
100
AcDbEntity
  8
0
  6
Continuous
 62
    18
420
        0
370
     9
100
AcDbSpline
210
0.0
220
0.0
230
1.0
 70
    11
 71
     3
 72
    17
 73
    13
 74
     0
 42
0.000000001
 43
0.0
 40
0.0
 40
0.0
 40
0.0
 40
0.0
 40
1.0
 40
1.0
 40
1.0
 40
2.0
 40
2.0
 40
2.0
 40
3.0
 40
3.0
 40
3.0
 40
4.0
 40
4.0
 40
4.0
 40
4.0
 10
115.175
 20
58.29233333333303
 30
0.0
 10
119.314362683705
 20
58.29233333333303
 30
0.0
 10
122.675
 20
54.93169601703806
 30
0.0
 10
122.675
 20
50.79233333333303
 30
0.0
 10
122.675
 20
46.65297064962806
 30
0.0
 10
119.314362683705
 20
43.29233333333303
 30
0.0
 10
115.175
 20
43.29233333333303
 30
0.0
 10
111.035637316295
 20
43.29233333333303
 30
0.0
 10
107.675
 20
46.65297064962806
 30
0.0
 10
107.675
 20
50.79233333333303
 30
0.0
 10
107.675
 20
54.93169601703806
 30
0.0
 10
111.035637316295
 20
58.29233333333303
 30
0.0
 10
115.175
 20
58.29233333333303
 30
0.0
  0
SPLINE
  5
AA
330
1F
100
AcDbEntity
  8
0
  6
Continuous
 62
    18
420
        0
370
     9
100
AcDbSpline
210
0.0
220
0.0
230
1.0
 70
    11
 71
     3
 72
    17
 73
    13
 74
     0
 42
0.000000001
 43
0.0
 40
0.0
 40
0.0
 40
0.0
 40
0.0
 40
1.0
 40
1.0
 40
1.0
 40
2.0
 40
2.0
 40
2.0
 40
3.0
 40
3.0
 40
3.0
 40
4.0
 40
4.0
 40
4.0
 40
4.0
 10
131.835
 20
58.29233333333303
 30
0.0
 10
135.974362683705
 20
58.29233333333303
 30
0.0
 10
139.335
 20
54.93169601703806
 30
0.0
 10
139.335
 20
50.79233333333303
 30
0.0
 10
139.335
 20
46.65297064962806
 30
0.0
 10
135.974362683705
 20
43.29233333333303
 30
0.0
 10
131.835
 20
43.29233333333303
 30
0.0
 10
127.695637316295
 20
43.29233333333303
 30
0.0
 10
124.335
 20
46.65297064962806
 30
0.0
 10
124.335
 20
50.79233333333303
 30
0.0
 10
124.335
 20
54.93169601703806
 30
0.0
 10
127.695637316295
 20
58.29233333333303
 30
0.0
 10
131.835
 20
58.29233333333303
 30
0.0
  0
SPLINE
  5
AB
330
1F
100
AcDbEntity
  8
0
  6
Continuous
 62
    18
420
        0
370
     9
100
AcDbSpline
210
0.0
220
0.0
230
1.0
 70
    11
 71
     3
 72
    17
 73
    13
 74
     0
 42
0.000000001
 43
0.0
 40
0.0
 40
0.0
 40
0.0
 40
0.0
 40
1.0
 40
1.0
 40
1.0
 40
2.0
 40
2.0
 40
2.0
 40
3.0
 40
3.0
 40
3.0
 40
4.0
 40
4.0
 40
4.0
 40
4.0
 10
148.495
 20
58.29233333333303
 30
0.0
 10
152.634362683705
 20
58.29233333333303
 30
0.0
 10
155.995
 20
54.93169601703806
 30
0.0
 10
155.995
 20
50.79233333333303
 30
0.0
 10
155.995
 20
46.65297064962806
 30
0.0
 10
152.634362683705
 20
43.29233333333303
 30
0.0
 10
148.495
 20
43.29233333333303
 30
0.0
 10
144.355637316295
 20
43.29233333333303
 30
0.0
 10
140.995
 20
46.65297064962806
 30
0.0
 10
140.995
 20
50.79233333333303
 30
0.0
 10
140.995
 20
54.93169601703806
 30
0.0
 10
144.355637316295
 20
58.29233333333303
 30
0.0
 10
148.495
 20
58.29233333333303
 30
0.0
  0
SPLINE
  5
AC
330
1F
100
AcDbEntity
  8
0
  6
Continuous
 62
    18
420
        0
370
     9
100
AcDbSpline
210
0.0
220
0.0
230
1.0
 70
    11
 71
     3
 72
    17
 73
    13
 74
     0
 42
0.000000001
 43
0.0
 40
0.0
 40
0.0
 40
0.0
 40
0.0
 40
1.0
 40
1.0
 40
1.0
 40
2.0
 40
2.0
 40
2.0
 40
3.0
 40
3.0
 40
3.0
 40
4.0
 40
4.0
 40
4.0
 40
4.0
 10
165.155
 20
58.29233333333303
 30
0.0
 10
169.294362683705
 20
58.29233333333303
 30
0.0
 10
172.655
 20
54.93169601703806
 30
0.0
 10
172.655
 20
50.79233333333303
 30
0.0
 10
172.655
 20
46.65297064962806
 30
0.0
 10
169.294362683705
 20
43.29233333333303
 30
0.0
 10
165.155
 20
43.29233333333303
 30
0.0
 10
161.015637316295
 20
43.29233333333303
 30
0.0
 10
157.6549999999999
 20
46.65297064962806
 30
0.0
 10
157.6549999999999
 20
50.79233333333303
 30
0.0
 10
157.6549999999999
 20
54.93169601703806
 30
0.0
 10
161.015637316295
 20
58.29233333333303
 30
0.0
 10
165.155
 20
58.29233333333303
 30
0.0
  0
SPLINE
  5
AD
330
1F
100
AcDbEntity
  8
0
  6
Continuous
 62
    18
420
        0
370
     9
100
AcDbSpline
210
0.0
220
0.0
230
1.0
 70
    11
 71
     3
 72
    17
 73
    13
 74
     0
 42
0.000000001
 43
0.0
 40
0.0
 40
0.0
 40
0.0
 40
0.0
 40
1.0
 40
1.0
 40
1.0
 40
2.0
 40
2.0
 40
2.0
 40
3.0
 40
3.0
 40
3.0
 40
4.0
 40
4.0
 40
4.0
 40
4.0
 10
181.815
 20
58.29233333333303
 30
0.0
 10
185.954362683705
 20
58.29233333333303
 30
0.0
 10
189.315
 20
54.93169601703806
 30
0.0
 10
189.315
 20
50.79233333333303
 30
0.0
 10
189.315
 20
46.65297064962806
 30
0.0
 10
185.954362683705
 20
43.29233333333303
 30
0.0
 10
181.815
 20
43.29233333333303
 30
0.0
 10
177.675637316295
 20
43.29233333333303
 30
0.0
 10
174.315
 20
46.65297064962806
 30
0.0
 10
174.315
 20
50.79233333333303
 30
0.0
 10
174.315
 20
54.93169601703806
 30
0.0
 10
177.675637316295
 20
58.29233333333303
 30
0.0
 10
181.815
 20
58.29233333333303
 30
0.0
  0
SPLINE
  5
AE
330
1F
100
AcDbEntity
  8
0
  6
Continuous
 62
    18
420
        0
370
     9
100
AcDbSpline
210
0.0
220
0.0
230
1.0
 70
    11
 71
     3
 72
    17
 73
    13
 74
     0
 42
0.000000001
 43
0.0
 40
0.0
 40
0.0
 40
0.0
 40
0.0
 40
1.0
 40
1.0
 40
1.0
 40
2.0
 40
2.0
 40
2.0
 40
3.0
 40
3.0
 40
3.0
 40
4.0
 40
4.0
 40
4.0
 40
4.0
 10
198.4749999999999
 20
58.29233333333303
 30
0.0
 10
202.6143626837049
 20
58.29233333333303
 30
0.0
 10
205.9749999999999
 20
54.93169601703806
 30
0.0
 10
205.9749999999999
 20
50.79233333333303
 30
0.0
 10
205.9749999999999
 20
46.65297064962806
 30
0.0
 10
202.6143626837049
 20
43.29233333333303
 30
0.0
 10
198.4749999999999
 20
43.29233333333303
 30
0.0
 10
194.3356373162949
 20
43.29233333333303
 30
0.0
 10
190.9749999999999
 20
46.65297064962806
 30
0.0
 10
190.9749999999999
 20
50.79233333333303
 30
0.0
 10
190.9749999999999
 20
54.93169601703806
 30
0.0
 10
194.3356373162949
 20
58.29233333333303
 30
0.0
 10
198.4749999999999
 20
58.29233333333303
 30
0.0
  0
SPLINE
  5
AF
330
1F
100
AcDbEntity
  8
0
  6
Continuous
 62
    18
420
        0
370
     9
100
AcDbSpline
210
0.0
220
0.0
230
1.0
 70
    11
 71
     3
 72
    17
 73
    13
 74
     0
 42
0.000000001
 43
0.0
 40
0.0
 40
0.0
 40
0.0
 40
0.0
 40
1.0
 40
1.0
 40
1.0
 40
2.0
 40
2.0
 40
2.0
 40
3.0
 40
3.0
 40
3.0
 40
4.0
 40
4.0
 40
4.0
 40
4.0
 10
215.135
 20
58.29233333333303
 30
0.0
 10
219.274362683705
 20
58.29233333333303
 30
0.0
 10
222.635
 20
54.93169601703806
 30
0.0
 10
222.635
 20
50.79233333333303
 30
0.0
 10
222.635
 20
46.65297064962806
 30
0.0
 10
219.274362683705
 20
43.29233333333303
 30
0.0
 10
215.135
 20
43.29233333333303
 30
0.0
 10
210.995637316295
 20
43.29233333333303
 30
0.0
 10
207.635
 20
46.65297064962806
 30
0.0
 10
207.635
 20
50.79233333333303
 30
0.0
 10
207.635
 20
54.93169601703806
 30
0.0
 10
210.995637316295
 20
58.29233333333303
 30
0.0
 10
215.135
 20
58.29233333333303
 30
0.0
  0
SPLINE
  5
B0
330
1F
100
AcDbEntity
  8
0
  6
Continuous
 62
    18
420
        0
370
     9
100
AcDbSpline
210
0.0
220
0.0
230
1.0
 70
    11
 71
     3
 72
    17
 73
    13
 74
     0
 42
0.000000001
 43
0.0
 40
0.0
 40
0.0
 40
0.0
 40
0.0
 40
1.0
 40
1.0
 40
1.0
 40
2.0
 40
2.0
 40
2.0
 40
3.0
 40
3.0
 40
3.0
 40
4.0
 40
4.0
 40
4.0
 40
4.0
 10
81.855
 20
108.2723333333331
 30
0.0
 10
85.994362683705
 20
108.2723333333331
 30
0.0
 10
89.355
 20
104.9116960170381
 30
0.0
 10
89.355
 20
100.7723333333331
 30
0.0
 10
89.355
 20
96.63297064962808
 30
0.0
 10
85.994362683705
 20
93.27233333333308
 30
0.0
 10
81.855
 20
93.27233333333308
 30
0.0
 10
77.715637316295
 20
93.27233333333308
 30
0.0
 10
74.355
 20
96.63297064962808
 30
0.0
 10
74.355
 20
100.7723333333331
 30
0.0
 10
74.355
 20
104.9116960170381
 30
0.0
 10
77.715637316295
 20
108.2723333333331
 30
0.0
 10
81.855
 20
108.2723333333331
 30
0.0
  0
SPLINE
  5
B1
330
1F
100
AcDbEntity
  8
0
  6
Continuous
 62
    18
420
        0
370
     9
100
AcDbSpline
210
0.0
220
0.0
230
1.0
 70
    11
 71
     3
 72
    17
 73
    13
 74
     0
 42
0.000000001
 43
0.0
 40
0.0
 40
0.0
 40
0.0
 40
0.0
 40
1.0
 40
1.0
 40
1.0
 40
2.0
 40
2.0
 40
2.0
 40
3.0
 40
3.0
 40
3.0
 40
4.0
 40
4.0
 40
4.0
 40
4.0
 10
98.515
 20
108.2723333333331
 30
0.0
 10
102.654362683705
 20
108.2723333333331
 30
0.0
 10
106.015
 20
104.9116960170381
 30
0.0
 10
106.015
 20
100.7723333333331
 30
0.0
 10
106.015
 20
96.63297064962808
 30
0.0
 10
102.654362683705
 20
93.27233333333308
 30
0.0
 10
98.515
 20
93.27233333333308
 30
0.0
 10
94.375637316295
 20
93.27233333333308
 30
0.0
 10
91.01499999999999
 20
96.63297064962808
 30
0.0
 10
91.01499999999999
 20
100.7723333333331
 30
0.0
 10
91.01499999999999
 20
104.9116960170381
 30
0.0
 10
94.375637316295
 20
108.2723333333331
 30
0.0
 10
98.515
 20
108.2723333333331
 30
0.0
  0
SPLINE
  5
B2
330
1F
100
AcDbEntity
  8
0
  6
Continuous
 62
    18
420
        0
370
     9
100
AcDbSpline
210
0.0
220
0.0
230
1.0
 70
    11
 71
     3
 72
    17
 73
    13
 74
     0
 42
0.000000001
 43
0.0
 40
0.0
 40
0.0
 40
0.0
 40
0.0
 40
1.0
 40
1.0
 40
1.0
 40
2.0
 40
2.0
 40
2.0
 40
3.0
 40
3.0
 40
3.0
 40
4.0
 40
4.0
 40
4.0
 40
4.0
 10
115.175
 20
108.2723333333331
 30
0.0
 10
119.314362683705
 20
108.2723333333331
 30
0.0
 10
122.675
 20
104.9116960170381
 30
0.0
 10
122.675
 20
100.7723333333331
 30
0.0
 10
122.675
 20
96.63297064962808
 30
0.0
 10
119.314362683705
 20
93.27233333333308
 30
0.0
 10
115.175
 20
93.27233333333308
 30
0.0
 10
111.035637316295
 20
93.27233333333308
 30
0.0
 10
107.675
 20
96.63297064962808
 30
0.0
 10
107.675
 20
100.7723333333331
 30
0.0
 10
107.675
 20
104.9116960170381
 30
0.0
 10
111.035637316295
 20
108.2723333333331
 30
0.0
 10
115.175
 20
108.2723333333331
 30
0.0
  0
SPLINE
  5
B3
330
1F
100
AcDbEntity
  8
0
  6
Continuous
 62
    18
420
        0
370
     9
100
AcDbSpline
210
0.0
220
0.0
230
1.0
 70
    11
 71
     3
 72
    17
 73
    13
 74
     0
 42
0.000000001
 43
0.0
 40
0.0
 40
0.0
 40
0.0
 40
0.0
 40
1.0
 40
1.0
 40
1.0
 40
2.0
 40
2.0
 40
2.0
 40
3.0
 40
3.0
 40
3.0
 40
4.0
 40
4.0
 40
4.0
 40
4.0
 10
131.835
 20
108.2723333333331
 30
0.0
 10
135.974362683705
 20
108.2723333333331
 30
0.0
 10
139.335
 20
104.9116960170381
 30
0.0
 10
139.335
 20
100.7723333333331
 30
0.0
 10
139.335
 20
96.63297064962808
 30
0.0
 10
135.974362683705
 20
93.27233333333308
 30
0.0
 10
131.835
 20
93.27233333333308
 30
0.0
 10
127.695637316295
 20
93.27233333333308
 30
0.0
 10
124.335
 20
96.63297064962808
 30
0.0
 10
124.335
 20
100.7723333333331
 30
0.0
 10
124.335
 20
104.9116960170381
 30
0.0
 10
127.695637316295
 20
108.2723333333331
 30
0.0
 10
131.835
 20
108.2723333333331
 30
0.0
  0
SPLINE
  5
B4
330
1F
100
AcDbEntity
  8
0
  6
Continuous
 62
    18
420
        0
370
     9
100
AcDbSpline
210
0.0
220
0.0
230
1.0
 70
    11
 71
     3
 72
    17
 73
    13
 74
     0
 42
0.000000001
 43
0.0
 40
0.0
 40
0.0
 40
0.0
 40
0.0
 40
1.0
 40
1.0
 40
1.0
 40
2.0
 40
2.0
 40
2.0
 40
3.0
 40
3.0
 40
3.0
 40
4.0
 40
4.0
 40
4.0
 40
4.0
 10
148.495
 20
108.2723333333331
 30
0.0
 10
152.634362683705
 20
108.2723333333331
 30
0.0
 10
155.995
 20
104.9116960170381
 30
0.0
 10
155.995
 20
100.7723333333331
 30
0.0
 10
155.995
 20
96.63297064962808
 30
0.0
 10
152.634362683705
 20
93.27233333333308
 30
0.0
 10
148.495
 20
93.27233333333308
 30
0.0
 10
144.355637316295
 20
93.27233333333308
 30
0.0
 10
140.995
 20
96.63297064962808
 30
0.0
 10
140.995
 20
100.7723333333331
 30
0.0
 10
140.995
 20
104.9116960170381
 30
0.0
 10
144.355637316295
 20
108.2723333333331
 30
0.0
 10
148.495
 20
108.2723333333331
 30
0.0
  0
SPLINE
  5
B5
330
1F
100
AcDbEntity
  8
0
  6
Continuous
 62
    18
420
        0
370
     9
100
AcDbSpline
210
0.0
220
0.0
230
1.0
 70
    11
 71
     3
 72
    17
 73
    13
 74
     0
 42
0.000000001
 43
0.0
 40
0.0
 40
0.0
 40
0.0
 40
0.0
 40
1.0
 40
1.0
 40
1.0
 40
2.0
 40
2.0
 40
2.0
 40
3.0
 40
3.0
 40
3.0
 40
4.0
 40
4.0
 40
4.0
 40
4.0
 10
165.155
 20
108.2723333333331
 30
0.0
 10
169.294362683705
 20
108.2723333333331
 30
0.0
 10
172.655
 20
104.9116960170381
 30
0.0
 10
172.655
 20
100.7723333333331
 30
0.0
 10
172.655
 20
96.63297064962808
 30
0.0
 10
169.294362683705
 20
93.27233333333308
 30
0.0
 10
165.155
 20
93.27233333333308
 30
0.0
 10
161.015637316295
 20
93.27233333333308
 30
0.0
 10
157.6549999999999
 20
96.63297064962808
 30
0.0
 10
157.6549999999999
 20
100.7723333333331
 30
0.0
 10
157.6549999999999
 20
104.9116960170381
 30
0.0
 10
161.015637316295
 20
108.2723333333331
 30
0.0
 10
165.155
 20
108.2723333333331
 30
0.0
  0
SPLINE
  5
B6
330
1F
100
AcDbEntity
  8
0
  6
Continuous
 62
    18
420
        0
370
     9
100
AcDbSpline
210
0.0
220
0.0
230
1.0
 70
    11
 71
     3
 72
    17
 73
    13
 74
     0
 42
0.000000001
 43
0.0
 40
0.0
 40
0.0
 40
0.0
 40
0.0
 40
1.0
 40
1.0
 40
1.0
 40
2.0
 40
2.0
 40
2.0
 40
3.0
 40
3.0
 40
3.0
 40
4.0
 40
4.0
 40
4.0
 40
4.0
 10
181.815
 20
108.2723333333331
 30
0.0
 10
185.954362683705
 20
108.2723333333331
 30
0.0
 10
189.315
 20
104.9116960170381
 30
0.0
 10
189.315
 20
100.7723333333331
 30
0.0
 10
189.315
 20
96.63297064962808
 30
0.0
 10
185.954362683705
 20
93.27233333333308
 30
0.0
 10
181.815
 20
93.27233333333308
 30
0.0
 10
177.675637316295
 20
93.27233333333308
 30
0.0
 10
174.315
 20
96.63297064962808
 30
0.0
 10
174.315
 20
100.7723333333331
 30
0.0
 10
174.315
 20
104.9116960170381
 30
0.0
 10
177.675637316295
 20
108.2723333333331
 30
0.0
 10
181.815
 20
108.2723333333331
 30
0.0
  0
SPLINE
  5
B7
330
1F
100
AcDbEntity
  8
0
  6
Continuous
 62
    18
420
        0
370
     9
100
AcDbSpline
210
0.0
220
0.0
230
1.0
 70
    11
 71
     3
 72
    17
 73
    13
 74
     0
 42
0.000000001
 43
0.0
 40
0.0
 40
0.0
 40
0.0
 40
0.0
 40
1.0
 40
1.0
 40
1.0
 40
2.0
 40
2.0
 40
2.0
 40
3.0
 40
3.0
 40
3.0
 40
4.0
 40
4.0
 40
4.0
 40
4.0
 10
198.4749999999999
 20
108.2723333333331
 30
0.0
 10
202.6143626837049
 20
108.2723333333331
 30
0.0
 10
205.9749999999999
 20
104.9116960170381
 30
0.0
 10
205.9749999999999
 20
100.7723333333331
 30
0.0
 10
205.9749999999999
 20
96.63297064962808
 30
0.0
 10
202.6143626837049
 20
93.27233333333308
 30
0.0
 10
198.4749999999999
 20
93.27233333333308
 30
0.0
 10
194.3356373162949
 20
93.27233333333308
 30
0.0
 10
190.9749999999999
 20
96.63297064962808
 30
0.0
 10
190.9749999999999
 20
100.7723333333331
 30
0.0
 10
190.9749999999999
 20
104.9116960170381
 30
0.0
 10
194.3356373162949
 20
108.2723333333331
 30
0.0
 10
198.4749999999999
 20
108.2723333333331
 30
0.0
  0
SPLINE
  5
B8
330
1F
100
AcDbEntity
  8
0
  6
Continuous
 62
    18
420
        0
370
     9
100
AcDbSpline
210
0.0
220
0.0
230
1.0
 70
    11
 71
     3
 72
    17
 73
    13
 74
     0
 42
0.000000001
 43
0.0
 40
0.0
 40
0.0
 40
0.0
 40
0.0
 40
1.0
 40
1.0
 40
1.0
 40
2.0
 40
2.0
 40
2.0
 40
3.0
 40
3.0
 40
3.0
 40
4.0
 40
4.0
 40
4.0
 40
4.0
 10
215.135
 20
108.2723333333331
 30
0.0
 10
219.274362683705
 20
108.2723333333331
 30
0.0
 10
222.635
 20
104.9116960170381
 30
0.0
 10
222.635
 20
100.7723333333331
 30
0.0
 10
222.635
 20
96.63297064962808
 30
0.0
 10
219.274362683705
 20
93.27233333333308
 30
0.0
 10
215.135
 20
93.27233333333308
 30
0.0
 10
210.995637316295
 20
93.27233333333308
 30
0.0
 10
207.635
 20
96.63297064962808
 30
0.0
 10
207.635
 20
100.7723333333331
 30
0.0
 10
207.635
 20
104.9116960170381
 30
0.0
 10
210.995637316295
 20
108.2723333333331
 30
0.0
 10
215.135
 20
108.2723333333331
 30
0.0
  0
SPLINE
  5
B9
330
1F
100
AcDbEntity
  8
0
  6
Continuous
 62
    18
420
        0
370
     9
100
AcDbSpline
210
0.0
220
0.0
230
1.0
 70
    11
 71
     3
 72
    17
 73
    13
 74
     0
 42
0.000000001
 43
0.0
 40
0.0
 40
0.0
 40
0.0
 40
0.0
 40
1.0
 40
1.0
 40
1.0
 40
2.0
 40
2.0
 40
2.0
 40
3.0
 40
3.0
 40
3.0
 40
4.0
 40
4.0
 40
4.0
 40
4.0
 10
231.765
 20
191.5723333333333
 30
0.0
 10
235.904362683705
 20
191.5723333333333
 30
0.0
 10
239.265
 20
188.2116960170383
 30
0.0
 10
239.265
 20
184.0723333333332
 30
0.0
 10
239.265
 20
179.9329706496283
 30
0.0
 10
235.904362683705
 20
176.5723333333333
 30
0.0
 10
231.765
 20
176.5723333333333
 30
0.0
 10
227.625637316295
 20
176.5723333333333
 30
0.0
 10
224.265
 20
179.9329706496283
 30
0.0
 10
224.265
 20
184.0723333333332
 30
0.0
 10
224.265
 20
188.2116960170383
 30
0.0
 10
227.625637316295
 20
191.5723333333333
 30
0.0
 10
231.765
 20
191.5723333333333
 30
0.0
  0
SPLINE
  5
BA
330
1F
100
AcDbEntity
  8
0
  6
Continuous
 62
    18
420
        0
370
     9
100
AcDbSpline
210
0.0
220
0.0
230
1.0
 70
    11
 71
     3
 72
    17
 73
    13
 74
     0
 42
0.000000001
 43
0.0
 40
0.0
 40
0.0
 40
0.0
 40
0.0
 40
1.0
 40
1.0
 40
1.0
 40
2.0
 40
2.0
 40
2.0
 40
3.0
 40
3.0
 40
3.0
 40
4.0
 40
4.0
 40
4.0
 40
4.0
 10
231.765
 20
158.2523333333332
 30
0.0
 10
235.904362683705
 20
158.2523333333332
 30
0.0
 10
239.265
 20
154.8916960170382
 30
0.0
 10
239.265
 20
150.7523333333332
 30
0.0
 10
239.265
 20
146.6129706496282
 30
0.0
 10
235.904362683705
 20
143.2523333333332
 30
0.0
 10
231.765
 20
143.2523333333332
 30
0.0
 10
227.625637316295
 20
143.2523333333332
 30
0.0
 10
224.265
 20
146.6129706496282
 30
0.0
 10
224.265
 20
150.7523333333332
 30
0.0
 10
224.265
 20
154.8916960170382
 30
0.0
 10
227.625637316295
 20
158.2523333333332
 30
0.0
 10
231.765
 20
158.2523333333332
 30
0.0
  0
SPLINE
  5
BB
330
1F
100
AcDbEntity
  8
0
  6
Continuous
 62
    18
420
        0
370
     9
100
AcDbSpline
210
0.0
220
0.0
230
1.0
 70
    11
 71
     3
 72
    17
 73
    13
 74
     0
 42
0.000000001
 43
0.0
 40
0.0
 40
0.0
 40
0.0
 40
0.0
 40
1.0
 40
1.0
 40
1.0
 40
2.0
 40
2.0
 40
2.0
 40
3.0
 40
3.0
 40
3.0
 40
4.0
 40
4.0
 40
4.0
 40
4.0
 10
231.765
 20
141.5923333333332
 30
0.0
 10
235.904362683705
 20
141.5923333333332
 30
0.0
 10
239.265
 20
138.2316960170382
 30
0.0
 10
239.265
 20
134.0923333333332
 30
0.0
 10
239.265
 20
129.9529706496282
 30
0.0
 10
235.904362683705
 20
126.5923333333332
 30
0.0
 10
231.765
 20
126.5923333333332
 30
0.0
 10
227.625637316295
 20
126.5923333333332
 30
0.0
 10
224.265
 20
129.9529706496282
 30
0.0
 10
224.265
 20
134.0923333333332
 30
0.0
 10
224.265
 20
138.2316960170382
 30
0.0
 10
227.625637316295
 20
141.5923333333332
 30
0.0
 10
231.765
 20
141.5923333333332
 30
0.0
  0
SPLINE
  5
BC
330
1F
100
AcDbEntity
  8
0
  6
Continuous
 62
    18
420
        0
370
     9
100
AcDbSpline
210
0.0
220
0.0
230
1.0
 70
    11
 71
     3
 72
    17
 73
    13
 74
     0
 42
0.000000001
 43
0.0
 40
0.0
 40
0.0
 40
0.0
 40
0.0
 40
1.0
 40
1.0
 40
1.0
 40
2.0
 40
2.0
 40
2.0
 40
3.0
 40
3.0
 40
3.0
 40
4.0
 40
4.0
 40
4.0
 40
4.0
 10
231.765
 20
174.9123333333332
 30
0.0
 10
235.904362683705
 20
174.9123333333332
 30
0.0
 10
239.265
 20
171.5516960170382
 30
0.0
 10
239.265
 20
167.4123333333332
 30
0.0
 10
239.265
 20
163.2729706496282
 30
0.0
 10
235.904362683705
 20
159.9123333333332
 30
0.0
 10
231.765
 20
159.9123333333332
 30
0.0
 10
227.625637316295
 20
159.9123333333332
 30
0.0
 10
224.265
 20
163.2729706496282
 30
0.0
 10
224.265
 20
167.4123333333332
 30
0.0
 10
224.265
 20
171.5516960170382
 30
0.0
 10
227.625637316295
 20
174.9123333333332
 30
0.0
 10
231.765
 20
174.9123333333332
 30
0.0
  0
SPLINE
  5
BD
330
1F
100
AcDbEntity
  8
0
  6
Continuous
 62
    18
420
        0
370
     9
100
AcDbSpline
210
0.0
220
0.0
230
1.0
 70
    11
 71
     3
 72
    17
 73
    13
 74
     0
 42
0.000000001
 43
0.0
 40
0.0
 40
0.0
 40
0.0
 40
0.0
 40
1.0
 40
1.0
 40
1.0
 40
2.0
 40
2.0
 40
2.0
 40
3.0
 40
3.0
 40
3.0
 40
4.0
 40
4.0
 40
4.0
 40
4.0
 10
231.795
 20
124.9323333333332
 30
0.0
 10
235.934362683705
 20
124.9323333333332
 30
0.0
 10
239.295
 20
121.5716960170381
 30
0.0
 10
239.295
 20
117.4323333333331
 30
0.0
 10
239.295
 20
113.2929706496281
 30
0.0
 10
235.934362683705
 20
109.9323333333331
 30
0.0
 10
231.795
 20
109.9323333333331
 30
0.0
 10
227.655637316295
 20
109.9323333333331
 30
0.0
 10
224.295
 20
113.2929706496281
 30
0.0
 10
224.295
 20
117.4323333333331
 30
0.0
 10
224.295
 20
121.5716960170381
 30
0.0
 10
227.655637316295
 20
124.9323333333332
 30
0.0
 10
231.795
 20
124.9323333333332
 30
0.0
  0
SPLINE
  5
BE
330
1F
100
AcDbEntity
  8
0
  6
Continuous
 62
    18
420
        0
370
     9
100
AcDbSpline
210
0.0
220
0.0
230
1.0
 70
    11
 71
     3
 72
    17
 73
    13
 74
     0
 42
0.000000001
 43
0.0
 40
0.0
 40
0.0
 40
0.0
 40
0.0
 40
1.0
 40
1.0
 40
1.0
 40
2.0
 40
2.0
 40
2.0
 40
3.0
 40
3.0
 40
3.0
 40
4.0
 40
4.0
 40
4.0
 40
4.0
 10
231.795
 20
91.61233333333305
 30
0.0
 10
235.934362683705
 20
91.61233333333305
 30
0.0
 10
239.295
 20
88.25169601703806
 30
0.0
 10
239.295
 20
84.11233333333303
 30
0.0
 10
239.295
 20
79.97297064962805
 30
0.0
 10
235.934362683705
 20
76.61233333333305
 30
0.0
 10
231.795
 20
76.61233333333305
 30
0.0
 10
227.655637316295
 20
76.61233333333305
 30
0.0
 10
224.295
 20
79.97297064962805
 30
0.0
 10
224.295
 20
84.11233333333303
 30
0.0
 10
224.295
 20
88.25169601703806
 30
0.0
 10
227.655637316295
 20
91.61233333333305
 30
0.0
 10
231.795
 20
91.61233333333305
 30
0.0
  0
SPLINE
  5
BF
330
1F
100
AcDbEntity
  8
0
  6
Continuous
 62
    18
420
        0
370
     9
100
AcDbSpline
210
0.0
220
0.0
230
1.0
 70
    11
 71
     3
 72
    17
 73
    13
 74
     0
 42
0.000000001
 43
0.0
 40
0.0
 40
0.0
 40
0.0
 40
0.0
 40
1.0
 40
1.0
 40
1.0
 40
2.0
 40
2.0
 40
2.0
 40
3.0
 40
3.0
 40
3.0
 40
4.0
 40
4.0
 40
4.0
 40
4.0
 10
231.795
 20
74.95233333333309
 30
0.0
 10
235.934362683705
 20
74.95233333333309
 30
0.0
 10
239.295
 20
71.59169601703806
 30
0.0
 10
239.295
 20
67.45233333333306
 30
0.0
 10
239.295
 20
63.31297064962808
 30
0.0
 10
235.934362683705
 20
59.95233333333306
 30
0.0
 10
231.795
 20
59.95233333333306
 30
0.0
 10
227.655637316295
 20
59.95233333333306
 30
0.0
 10
224.295
 20
63.31297064962808
 30
0.0
 10
224.295
 20
67.45233333333306
 30
0.0
 10
224.295
 20
71.59169601703806
 30
0.0
 10
227.655637316295
 20
74.95233333333309
 30
0.0
 10
231.795
 20
74.95233333333309
 30
0.0
  0
SPLINE
  5
C0
330
1F
100
AcDbEntity
  8
0
  6
Continuous
 62
    18
420
        0
370
     9
100
AcDbSpline
210
0.0
220
0.0
230
1.0
 70
    11
 71
     3
 72
    17
 73
    13
 74
     0
 42
0.000000001
 43
0.0
 40
0.0
 40
0.0
 40
0.0
 40
0.0
 40
1.0
 40
1.0
 40
1.0
 40
2.0
 40
2.0
 40
2.0
 40
3.0
 40
3.0
 40
3.0
 40
4.0
 40
4.0
 40
4.0
 40
4.0
 10
231.795
 20
58.29233333333303
 30
0.0
 10
235.934362683705
 20
58.29233333333303
 30
0.0
 10
239.295
 20
54.93169601703806
 30
0.0
 10
239.295
 20
50.79233333333303
 30
0.0
 10
239.295
 20
46.65297064962806
 30
0.0
 10
235.934362683705
 20
43.29233333333303
 30
0.0
 10
231.795
 20
43.29233333333303
 30
0.0
 10
227.655637316295
 20
43.29233333333303
 30
0.0
 10
224.295
 20
46.65297064962806
 30
0.0
 10
224.295
 20
50.79233333333303
 30
0.0
 10
224.295
 20
54.93169601703806
 30
0.0
 10
227.655637316295
 20
58.29233333333303
 30
0.0
 10
231.795
 20
58.29233333333303
 30
0.0
  0
SPLINE
  5
C1
330
1F
100
AcDbEntity
  8
0
  6
Continuous
 62
    18
420
        0
370
     9
100
AcDbSpline
210
0.0
220
0.0
230
1.0
 70
    11
 71
     3
 72
    17
 73
    13
 74
     0
 42
0.000000001
 43
0.0
 40
0.0
 40
0.0
 40
0.0
 40
0.0
 40
1.0
 40
1.0
 40
1.0
 40
2.0
 40
2.0
 40
2.0
 40
3.0
 40
3.0
 40
3.0
 40
4.0
 40
4.0
 40
4.0
 40
4.0
 10
65.20000000000003
 20
41.63233333333301
 30
0.0
 10
69.33936268370503
 20
41.63233333333301
 30
0.0
 10
72.70000000000003
 20
38.27169601703804
 30
0.0
 10
72.70000000000003
 20
34.13233333333301
 30
0.0
 10
72.70000000000003
 20
29.99297064962798
 30
0.0
 10
69.33936268370503
 20
26.63233333333295
 30
0.0
 10
65.20000000000003
 20
26.63233333333295
 30
0.0
 10
61.06063731629503
 20
26.63233333333295
 30
0.0
 10
57.70000000000002
 20
29.99297064962798
 30
0.0
 10
57.70000000000002
 20
34.13233333333301
 30
0.0
 10
57.70000000000002
 20
38.27169601703804
 30
0.0
 10
61.06063731629503
 20
41.63233333333301
 30
0.0
 10
65.20000000000003
 20
41.63233333333301
 30
0.0
  0
SPLINE
  5
C2
330
1F
100
AcDbEntity
  8
0
  6
Continuous
 62
    18
420
        0
370
     9
100
AcDbSpline
210
0.0
220
0.0
230
1.0
 70
    11
 71
     3
 72
    17
 73
    13
 74
     0
 42
0.000000001
 43
0.0
 40
0.0
 40
0.0
 40
0.0
 40
0.0
 40
1.0
 40
1.0
 40
1.0
 40
2.0
 40
2.0
 40
2.0
 40
3.0
 40
3.0
 40
3.0
 40
4.0
 40
4.0
 40
4.0
 40
4.0
 10
81.86000000000003
 20
41.63233333333301
 30
0.0
 10
85.99936268370503
 20
41.63233333333301
 30
0.0
 10
89.36000000000001
 20
38.27169601703804
 30
0.0
 10
89.36000000000001
 20
34.13233333333301
 30
0.0
 10
89.36000000000001
 20
29.99297064962798
 30
0.0
 10
85.99936268370503
 20
26.63233333333295
 30
0.0
 10
81.86000000000003
 20
26.63233333333295
 30
0.0
 10
77.72063731629503
 20
26.63233333333295
 30
0.0
 10
74.36000000000001
 20
29.99297064962798
 30
0.0
 10
74.36000000000001
 20
34.13233333333301
 30
0.0
 10
74.36000000000001
 20
38.27169601703804
 30
0.0
 10
77.72063731629503
 20
41.63233333333301
 30
0.0
 10
81.86000000000003
 20
41.63233333333301
 30
0.0
  0
SPLINE
  5
C3
330
1F
100
AcDbEntity
  8
0
  6
Continuous
 62
    18
420
        0
370
     9
100
AcDbSpline
210
0.0
220
0.0
230
1.0
 70
    11
 71
     3
 72
    17
 73
    13
 74
     0
 42
0.000000001
 43
0.0
 40
0.0
 40
0.0
 40
0.0
 40
0.0
 40
1.0
 40
1.0
 40
1.0
 40
2.0
 40
2.0
 40
2.0
 40
3.0
 40
3.0
 40
3.0
 40
4.0
 40
4.0
 40
4.0
 40
4.0
 10
98.52000000000001
 20
41.63233333333301
 30
0.0
 10
102.659362683705
 20
41.63233333333301
 30
0.0
 10
106.02
 20
38.27169601703804
 30
0.0
 10
106.02
 20
34.13233333333301
 30
0.0
 10
106.02
 20
29.99297064962798
 30
0.0
 10
102.659362683705
 20
26.63233333333295
 30
0.0
 10
98.52000000000001
 20
26.63233333333295
 30
0.0
 10
94.38063731629501
 20
26.63233333333295
 30
0.0
 10
91.02
 20
29.99297064962798
 30
0.0
 10
91.02
 20
34.13233333333301
 30
0.0
 10
91.02
 20
38.27169601703804
 30
0.0
 10
94.38063731629501
 20
41.63233333333301
 30
0.0
 10
98.52000000000001
 20
41.63233333333301
 30
0.0
  0
SPLINE
  5
C4
330
1F
100
AcDbEntity
  8
0
  6
Continuous
 62
    18
420
        0
370
     9
100
AcDbSpline
210
0.0
220
0.0
230
1.0
 70
    11
 71
     3
 72
    17
 73
    13
 74
     0
 42
0.000000001
 43
0.0
 40
0.0
 40
0.0
 40
0.0
 40
0.0
 40
1.0
 40
1.0
 40
1.0
 40
2.0
 40
2.0
 40
2.0
 40
3.0
 40
3.0
 40
3.0
 40
4.0
 40
4.0
 40
4.0
 40
4.0
 10
115.18
 20
41.63233333333301
 30
0.0
 10
119.319362683705
 20
41.63233333333301
 30
0.0
 10
122.68
 20
38.27169601703804
 30
0.0
 10
122.68
 20
34.13233333333301
 30
0.0
 10
122.68
 20
29.99297064962798
 30
0.0
 10
119.319362683705
 20
26.63233333333295
 30
0.0
 10
115.18
 20
26.63233333333295
 30
0.0
 10
111.040637316295
 20
26.63233333333295
 30
0.0
 10
107.68
 20
29.99297064962798
 30
0.0
 10
107.68
 20
34.13233333333301
 30
0.0
 10
107.68
 20
38.27169601703804
 30
0.0
 10
111.040637316295
 20
41.63233333333301
 30
0.0
 10
115.18
 20
41.63233333333301
 30
0.0
  0
SPLINE
  5
C5
330
1F
100
AcDbEntity
  8
0
  6
Continuous
 62
    18
420
        0
370
     9
100
AcDbSpline
210
0.0
220
0.0
230
1.0
 70
    11
 71
     3
 72
    17
 73
    13
 74
     0
 42
0.000000001
 43
0.0
 40
0.0
 40
0.0
 40
0.0
 40
0.0
 40
1.0
 40
1.0
 40
1.0
 40
2.0
 40
2.0
 40
2.0
 40
3.0
 40
3.0
 40
3.0
 40
4.0
 40
4.0
 40
4.0
 40
4.0
 10
131.84
 20
41.63233333333301
 30
0.0
 10
135.979362683705
 20
41.63233333333301
 30
0.0
 10
139.34
 20
38.27169601703804
 30
0.0
 10
139.34
 20
34.13233333333301
 30
0.0
 10
139.34
 20
29.99297064962798
 30
0.0
 10
135.979362683705
 20
26.63233333333295
 30
0.0
 10
131.84
 20
26.63233333333295
 30
0.0
 10
127.700637316295
 20
26.63233333333295
 30
0.0
 10
124.34
 20
29.99297064962798
 30
0.0
 10
124.34
 20
34.13233333333301
 30
0.0
 10
124.34
 20
38.27169601703804
 30
0.0
 10
127.700637316295
 20
41.63233333333301
 30
0.0
 10
131.84
 20
41.63233333333301
 30
0.0
  0
SPLINE
  5
C6
330
1F
100
AcDbEntity
  8
0
  6
Continuous
 62
    18
420
        0
370
     9
100
AcDbSpline
210
0.0
220
0.0
230
1.0
 70
    11
 71
     3
 72
    17
 73
    13
 74
     0
 42
0.000000001
 43
0.0
 40
0.0
 40
0.0
 40
0.0
 40
0.0
 40
1.0
 40
1.0
 40
1.0
 40
2.0
 40
2.0
 40
2.0
 40
3.0
 40
3.0
 40
3.0
 40
4.0
 40
4.0
 40
4.0
 40
4.0
 10
148.5
 20
41.63233333333301
 30
0.0
 10
152.639362683705
 20
41.63233333333301
 30
0.0
 10
156.0
 20
38.27169601703804
 30
0.0
 10
156.0
 20
34.13233333333301
 30
0.0
 10
156.0
 20
29.99297064962798
 30
0.0
 10
152.639362683705
 20
26.63233333333295
 30
0.0
 10
148.5
 20
26.63233333333295
 30
0.0
 10
144.360637316295
 20
26.63233333333295
 30
0.0
 10
141.0
 20
29.99297064962798
 30
0.0
 10
141.0
 20
34.13233333333301
 30
0.0
 10
141.0
 20
38.27169601703804
 30
0.0
 10
144.360637316295
 20
41.63233333333301
 30
0.0
 10
148.5
 20
41.63233333333301
 30
0.0
  0
SPLINE
  5
C7
330
1F
100
AcDbEntity
  8
0
  6
Continuous
 62
    18
420
        0
370
     9
100
AcDbSpline
210
0.0
220
0.0
230
1.0
 70
    11
 71
     3
 72
    17
 73
    13
 74
     0
 42
0.000000001
 43
0.0
 40
0.0
 40
0.0
 40
0.0
 40
0.0
 40
1.0
 40
1.0
 40
1.0
 40
2.0
 40
2.0
 40
2.0
 40
3.0
 40
3.0
 40
3.0
 40
4.0
 40
4.0
 40
4.0
 40
4.0
 10
165.16
 20
41.63233333333301
 30
0.0
 10
169.299362683705
 20
41.63233333333301
 30
0.0
 10
172.66
 20
38.27169601703804
 30
0.0
 10
172.66
 20
34.13233333333301
 30
0.0
 10
172.66
 20
29.99297064962798
 30
0.0
 10
169.299362683705
 20
26.63233333333295
 30
0.0
 10
165.16
 20
26.63233333333295
 30
0.0
 10
161.020637316295
 20
26.63233333333295
 30
0.0
 10
157.66
 20
29.99297064962798
 30
0.0
 10
157.66
 20
34.13233333333301
 30
0.0
 10
157.66
 20
38.27169601703804
 30
0.0
 10
161.020637316295
 20
41.63233333333301
 30
0.0
 10
165.16
 20
41.63233333333301
 30
0.0
  0
SPLINE
  5
C8
330
1F
100
AcDbEntity
  8
0
  6
Continuous
 62
    18
420
        0
370
     9
100
AcDbSpline
210
0.0
220
0.0
230
1.0
 70
    11
 71
     3
 72
    17
 73
    13
 74
     0
 42
0.000000001
 43
0.0
 40
0.0
 40
0.0
 40
0.0
 40
0.0
 40
1.0
 40
1.0
 40
1.0
 40
2.0
 40
2.0
 40
2.0
 40
3.0
 40
3.0
 40
3.0
 40
4.0
 40
4.0
 40
4.0
 40
4.0
 10
181.82
 20
41.63233333333301
 30
0.0
 10
185.959362683705
 20
41.63233333333301
 30
0.0
 10
189.32
 20
38.27169601703804
 30
0.0
 10
189.32
 20
34.13233333333301
 30
0.0
 10
189.32
 20
29.99297064962798
 30
0.0
 10
185.959362683705
 20
26.63233333333295
 30
0.0
 10
181.82
 20
26.63233333333295
 30
0.0
 10
177.680637316295
 20
26.63233333333295
 30
0.0
 10
174.32
 20
29.99297064962798
 30
0.0
 10
174.32
 20
34.13233333333301
 30
0.0
 10
174.32
 20
38.27169601703804
 30
0.0
 10
177.680637316295
 20
41.63233333333301
 30
0.0
 10
181.82
 20
41.63233333333301
 30
0.0
  0
SPLINE
  5
C9
330
1F
100
AcDbEntity
  8
0
  6
Continuous
 62
    18
420
        0
370
     9
100
AcDbSpline
210
0.0
220
0.0
230
1.0
 70
    11
 71
     3
 72
    17
 73
    13
 74
     0
 42
0.000000001
 43
0.0
 40
0.0
 40
0.0
 40
0.0
 40
0.0
 40
1.0
 40
1.0
 40
1.0
 40
2.0
 40
2.0
 40
2.0
 40
3.0
 40
3.0
 40
3.0
 40
4.0
 40
4.0
 40
4.0
 40
4.0
 10
198.48
 20
41.63233333333301
 30
0.0
 10
202.619362683705
 20
41.63233333333301
 30
0.0
 10
205.98
 20
38.27169601703804
 30
0.0
 10
205.98
 20
34.13233333333301
 30
0.0
 10
205.98
 20
29.99297064962798
 30
0.0
 10
202.619362683705
 20
26.63233333333295
 30
0.0
 10
198.48
 20
26.63233333333295
 30
0.0
 10
194.340637316295
 20
26.63233333333295
 30
0.0
 10
190.98
 20
29.99297064962798
 30
0.0
 10
190.98
 20
34.13233333333301
 30
0.0
 10
190.98
 20
38.27169601703804
 30
0.0
 10
194.340637316295
 20
41.63233333333301
 30
0.0
 10
198.48
 20
41.63233333333301
 30
0.0
  0
SPLINE
  5
CA
330
1F
100
AcDbEntity
  8
0
  6
Continuous
 62
    18
420
        0
370
     9
100
AcDbSpline
210
0.0
220
0.0
230
1.0
 70
    11
 71
     3
 72
    17
 73
    13
 74
     0
 42
0.000000001
 43
0.0
 40
0.0
 40
0.0
 40
0.0
 40
0.0
 40
1.0
 40
1.0
 40
1.0
 40
2.0
 40
2.0
 40
2.0
 40
3.0
 40
3.0
 40
3.0
 40
4.0
 40
4.0
 40
4.0
 40
4.0
 10
215.14
 20
41.63233333333301
 30
0.0
 10
219.279362683705
 20
41.63233333333301
 30
0.0
 10
222.64
 20
38.27169601703804
 30
0.0
 10
222.64
 20
34.13233333333301
 30
0.0
 10
222.64
 20
29.99297064962798
 30
0.0
 10
219.279362683705
 20
26.63233333333295
 30
0.0
 10
215.14
 20
26.63233333333295
 30
0.0
 10
211.000637316295
 20
26.63233333333295
 30
0.0
 10
207.64
 20
29.99297064962798
 30
0.0
 10
207.64
 20
34.13233333333301
 30
0.0
 10
207.64
 20
38.27169601703804
 30
0.0
 10
211.000637316295
 20
41.63233333333301
 30
0.0
 10
215.14
 20
41.63233333333301
 30
0.0
  0
SPLINE
  5
CB
330
1F
100
AcDbEntity
  8
0
  6
Continuous
 62
    18
420
        0
370
     9
100
AcDbSpline
210
0.0
220
0.0
230
1.0
 70
    11
 71
     3
 72
    17
 73
    13
 74
     0
 42
0.000000001
 43
0.0
 40
0.0
 40
0.0
 40
0.0
 40
0.0
 40
1.0
 40
1.0
 40
1.0
 40
2.0
 40
2.0
 40
2.0
 40
3.0
 40
3.0
 40
3.0
 40
4.0
 40
4.0
 40
4.0
 40
4.0
 10
231.8
 20
41.63233333333301
 30
0.0
 10
235.939362683705
 20
41.63233333333301
 30
0.0
 10
239.3
 20
38.27169601703804
 30
0.0
 10
239.3
 20
34.13233333333301
 30
0.0
 10
239.3
 20
29.99297064962798
 30
0.0
 10
235.939362683705
 20
26.63233333333295
 30
0.0
 10
231.8
 20
26.63233333333295
 30
0.0
 10
227.660637316295
 20
26.63233333333295
 30
0.0
 10
224.3
 20
29.99297064962798
 30
0.0
 10
224.3
 20
34.13233333333301
 30
0.0
 10
224.3
 20
38.27169601703804
 30
0.0
 10
227.660637316295
 20
41.63233333333301
 30
0.0
 10
231.8
 20
41.63233333333301
 30
0.0
  0
SPLINE
  5
CC
330
1F
100
AcDbEntity
  8
0
  6
Continuous
 62
    18
420
        0
370
     9
100
AcDbSpline
210
0.0
220
0.0
230
1.0
 70
    11
 71
     3
 72
    17
 73
    13
 74
     0
 42
0.000000001
 43
0.0
 40
0.0
 40
0.0
 40
0.0
 40
0.0
 40
1.0
 40
1.0
 40
1.0
 40
2.0
 40
2.0
 40
2.0
 40
3.0
 40
3.0
 40
3.0
 40
4.0
 40
4.0
 40
4.0
 40
4.0
 10
231.795
 20
108.2723333333331
 30
0.0
 10
235.934362683705
 20
108.2723333333331
 30
0.0
 10
239.295
 20
104.9116960170381
 30
0.0
 10
239.295
 20
100.7723333333331
 30
0.0
 10
239.295
 20
96.63297064962808
 30
0.0
 10
235.934362683705
 20
93.27233333333308
 30
0.0
 10
231.795
 20
93.27233333333308
 30
0.0
 10
227.655637316295
 20
93.27233333333308
 30
0.0
 10
224.295
 20
96.63297064962808
 30
0.0
 10
224.295
 20
100.7723333333331
 30
0.0
 10
224.295
 20
104.9116960170381
 30
0.0
 10
227.655637316295
 20
108.2723333333331
 30
0.0
 10
231.795
 20
108.2723333333331
 30
0.0
  0
LWPOLYLINE
  5
CD
330
1F
100
AcDbEntity
  8
0
  6
Continuous
 62
    18
420
        0
370
     9
100
AcDbPolyline
 90
        5
 70
     1
 43
0.0
 10
240.165
 20
192.4023333333333
 10
240.165
 20
25.74233333333348
 10
56.83500000000001
 20
25.74233333333348
 10
56.83500000000001
 20
192.4023333333333
 10
240.165
 20
192.4023333333333
  0
VIEWPORT
  5
D2
330
CE
100
AcDbEntity
 67
     1
  8
0
100
AcDbViewport
 10
128.5
 20
97.5
 30
0.0
 40
314.226
 41
222.18
 68
     1
 69
     1
 12
109.0423333333333
 22
109.0423333333334
 13
0.0
 23
0.0
 14
10.0
 24
10.0
 15
10.0
 25
10.0
 16
0.0
 26
0.0
 36
1.0
 17
0.0
 27
0.0
 37
0.0
 42
50.0
 43
0.0
 44
0.0
 45
222.18
 50
0.0
 51
0.0
 72
   100
 90
   557152
  1

281
     0
 71
     1
 74
     0
110
0.0
120
0.0
130
0.0
111
1.0
121
0.0
131
0.0
112
0.0
122
1.0
132
0.0
 79
     0
146
0.0
170
     0
 61
     5
348
2F
292
     1
282
     1
141
0.0
142
0.0
 63
   256
361
D3
  0
VIEWPORT
  5
D4
330
CE
100
AcDbEntity
 67
     1
  8
0
100
AcDbViewport
 10
109.0423333333333
 20
109.0423333333334
 30
0.0
 40
218.0846666666667
 41
218.0846666666668
 68
     2
 69
     2
 12
148.5
 22
109.0423333333334
 13
0.0
 23
0.0
 14
10.0
 24
10.0
 15
10.0
 25
10.0
 16
0.0
 26
0.0
 36
1.0
 17
0.0
 27
0.0
 37
0.0
 42
50.0
 43
0.0
 44
0.0
 45
218.0846666666668
 50
0.0
 51
0.0
 72
   100
 90
   557152
  1

281
     0
 71
     1
 74
     0
110
0.0
120
0.0
130
0.0
111
1.0
121
0.0
131
0.0
112
0.0
122
1.0
132
0.0
 79
     0
146
0.0
170
     0
 61
     5
348
2F
292
     1
282
     1
141
0.0
142
0.0
 63
   256
361
D5
  0
ENDSEC
  0
SECTION
  2
OBJECTS
  0
DICTIONARY
  5
C
330
0
100
AcDbDictionary
281
     1
  3
ACAD_DETAILVIEWSTYLE
350
DD
  3
ACAD_GROUP
350
D
  3
ACAD_LAYOUT
350
1A
  3
ACAD_MATERIAL
350
43
  3
ACAD_MLEADERSTYLE
350
5B
  3
ACAD_MLINESTYLE
350
17
  3
ACAD_PLOTSETTINGS
350
19
  3
ACAD_PLOTSTYLENAME
350
E
  3
ACAD_SCALELIST
350
47
  3
ACAD_SECTIONVIEWSTYLE
350
DE
  3
ACAD_TABLESTYLE
350
59
  3
ACAD_VISUALSTYLE
350
2A
  3
ACDB_RECOMPOSE_DATA
350
DA
  3
AcDbVariableDictionary
350
D6
  0
SUN
  5
5D
330
29
100
AcDbSun
 90
        1
290
     0
 63
     7
421
 16777215
 40
1.0
291
     1
 91
  2455826
 92
 54000000
292
     0
 70
     2
 71
   256
280
     1
  0
SUN
  5
D3
330
D2
100
AcDbSun
 90
        1
290
     0
 63
     7
421
 16777215
 40
1.0
291
     1
 91
  2455826
 92
 54000000
292
     0
 70
     2
 71
   256
280
     1
  0
SUN
  5
D5
330
D4
100
AcDbSun
 90
        1
290
     0
 63
     7
421
 16777215
 40
1.0
291
     1
 91
  2455826
 92
 54000000
292
     0
 70
     2
 71
   256
280
     1
  0
DICTIONARY
  5
DD
102
{ACAD_REACTORS
330
C
102
}
330
C
100
AcDbDictionary
281
     1
  0
DICTIONARY
  5
D
102
{ACAD_REACTORS
330
C
102
}
330
C
100
AcDbDictionary
281
     1
  0
DICTIONARY
  5
1A
102
{ACAD_REACTORS
330
C
102
}
330
C
100
AcDbDictionary
281
     1
  3
Layout1
350
CF
  3
Model
350
22
  0
DICTIONARY
  5
43
102
{ACAD_REACTORS
330
C
102
}
330
C
100
AcDbDictionary
281
     1
  3
ByBlock
350
45
  3
ByLayer
350
44
  3
Global
350
46
  0
DICTIONARY
  5
5B
102
{ACAD_REACTORS
330
C
102
}
330
C
100
AcDbDictionary
281
     1
  3
Standard
350
5C
  0
DICTIONARY
  5
17
102
{ACAD_REACTORS
330
C
102
}
330
C
100
AcDbDictionary
281
     1
  3
Standard
350
18
  0
DICTIONARY
  5
19
102
{ACAD_REACTORS
330
C
102
}
330
C
100
AcDbDictionary
281
     1
  0
ACDBDICTIONARYWDFLT
  5
E
102
{ACAD_REACTORS
330
C
102
}
330
C
100
AcDbDictionary
281
     1
  3
Normal
350
F
100
AcDbDictionaryWithDefault
340
F
  0
DICTIONARY
  5
47
102
{ACAD_REACTORS
330
C
102
}
330
C
100
AcDbDictionary
281
     1
  3
A0
350
48
  3
A1
350
49
  3
A2
350
4A
  3
A3
350
4B
  3
A4
350
4C
  3
A5
350
4D
  3
A6
350
4E
  3
A7
350
4F
  3
A8
350
50
  3
A9
350
51
  3
B0
350
52
  3
B1
350
53
  3
B2
350
54
  3
B3
350
55
  3
B4
350
56
  3
B5
350
57
  3
B6
350
58
  0
DICTIONARY
  5
DE
102
{ACAD_REACTORS
330
C
102
}
330
C
100
AcDbDictionary
281
     1
  0
DICTIONARY
  5
59
102
{ACAD_REACTORS
330
C
102
}
330
C
100
AcDbDictionary
281
     1
  3
Standard
350
5A
  0
DICTIONARY
  5
2A
102
{ACAD_REACTORS
330
C
102
}
330
C
100
AcDbDictionary
281
     1
  3
2dWireframe
350
2F
  3
Basic
350
32
  3
Brighten
350
36
  3
ColorChange
350
3A
  3
Conceptual
350
34
  3
Dim
350
35
  3
EdgeColorOff
350
3D
  3
Facepattern
350
39
  3
Flat
350
2B
  3
FlatWithEdges
350
2C
  3
Gouraud
350
2D
  3
GouraudWithEdges
350
2E
  3
Hidden
350
31
  3
JitterOff
350
3B
  3
Linepattern
350
38
  3
OverhangOff
350
3C
  3
Realistic
350
33
  3
Shaded
350
42
  3
Shaded with edges
350
41
  3
Shades of Gray
350
3E
  3
Sketchy
350
3F
  3
Thicken
350
37
  3
Wireframe
350
30
  3
X-Ray
350
40
  0
XRECORD
  5
DA
102
{ACAD_REACTORS
330
C
102
}
330
C
100
AcDbXrecord
280
     1
 90
        1
330
5A
  0
DICTIONARY
  5
D6
102
{ACAD_REACTORS
330
C
102
}
330
C
100
AcDbDictionary
281
     1
  3
CANNOSCALE
350
D7
  3
CENTEREXE
350
DF
  3
CENTERLTYPEFILE
350
E0
  3
CMLEADERSTYLE
350
DC
  3
CTABLESTYLE
350
DB
  0
LAYOUT
  5
CF
102
{ACAD_REACTORS
330
1A
102
}
330
1A
100
AcDbPlotSettings
  1

  2
none_device
  4
ISO_A4_(210.00_x_297.00_MM)
  6

 40
0.0
 41
0.0
 42
0.0
 43
0.0
 44
218.0846666666667
 45
218.0846666666668
 46
0.0
 47
0.0
 48
0.0
 49
0.0
140
0.0
141
0.0
142
1.0
143
1.0
 70
   688
 72
     1
 73
     0
 74
     5
  7

 75
    16
 76
     0
 77
     2
 78
   300
147
1.0
148
0.0
149
0.0
100
AcDbLayout
  1
Layout1
 70
     1
 71
     1
 10
-20.0
 20
-7.5
 11
277.0
 21
202.5
 12
0.0
 22
0.0
 32
0.0
 14
218.0846666666667
 24
218.0846666666668
 34
0.0
 15
0.0
 25
0.0
 35
0.0
146
0.0
 13
0.0
 23
0.0
 33
0.0
 16
1.0
 26
0.0
 36
0.0
 17
0.0
 27
1.0
 37
0.0
 76
     0
330
CE
331
D2
  0
LAYOUT
  5
22
102
{ACAD_REACTORS
330
1A
102
}
330
1A
100
AcDbPlotSettings
  1

  2
none_device
  4
Letter_(8.50_x_11.00_Inches)
  6

 40
6.35
 41
6.35
 42
6.35000508
 43
6.35000508
 44
215.9
 45
279.4
 46
0.0
 47
0.0
 48
0.0
 49
0.0
140
0.0
141
0.0
142
1.0
143
1.0
 70
  1712
 72
     1
 73
     0
 74
     0
  7

 75
     0
 76
     0
 77
     2
 78
   300
147
1.0
148
0.0
149
0.0
100
AcDbLayout
  1
Model
 70
     1
 71
     0
 10
0.0
 20
0.0
 11
420.0
 21
297.0
 12
0.0
 22
0.0
 32
0.0
 14
1.000000000000000E+20
 24
1.000000000000000E+20
 34
1.000000000000000E+20
 15
-1.000000000000000E+20
 25
-1.000000000000000E+20
 35
-1.000000000000000E+20
146
0.0
 13
0.0
 23
0.0
 33
0.0
 16
1.0
 26
0.0
 36
0.0
 17
0.0
 27
1.0
 37
0.0
 76
     0
330
1F
331
29
  0
MATERIAL
  5
45
102
{ACAD_REACTORS
330
43
102
}
330
43
100
AcDbMaterial
  1
ByBlock
 72
     1
 94
      127
  0
MATERIAL
  5
44
102
{ACAD_REACTORS
330
43
102
}
330
43
100
AcDbMaterial
  1
ByLayer
 72
     1
 94
      127
  0
MATERIAL
  5
46
102
{ACAD_REACTORS
330
43
102
}
330
43
100
AcDbMaterial
  1
Global
 72
     1
 94
      127
  0
MLEADERSTYLE
  5
5C
102
{ACAD_REACTORS
330
5B
102
}
330
5B
100
AcDbMLeaderStyle
179
     2
170
     2
171
     1
172
     0
 90
        2
 40
0.0
 41
0.0
173
     1
 91
-1056964608
340
14
 92
       -2
290
     1
 42
2.0
291
     1
 43
8.0
  3
Standard
341
0
 44
4.0
300

342
11
174
     1
178
     6
175
     1
176
     0
 93
-1056964608
 45
4.0
292
     0
297
     0
 46
4.0
343
0
 94
-1056964608
 47
1.0
 49
1.0
140
1.0
293
     1
141
0.0
294
     1
177
     0
142
1.0
295
     0
296
     0
143
3.75
271
     0
272
     9
273
     9
298
     0
  0
MLINESTYLE
  5
18
102
{ACAD_REACTORS
330
17
102
}
330
17
100
AcDbMlineStyle
  2
Standard
 70
     0
  3

 62
   256
 51
90.0
 52
90.0
 71
     2
 49
0.5
 62
   256
  6
BYLAYER
 49
-0.5
 62
   256
  6
BYLAYER
  0
ACDBPLACEHOLDER
  5
F
102
{ACAD_REACTORS
330
E
102
}
330
E
  0
SCALE
  5
48
102
{ACAD_REACTORS
330
47
102
}
330
47
100
AcDbScale
 70
     0
300
1:1
140
1.0
141
1.0
290
     1
  0
SCALE
  5
49
102
{ACAD_REACTORS
330
47
102
}
330
47
100
AcDbScale
 70
     0
300
1:2
140
1.0
141
2.0
290
     0
  0
SCALE
  5
4A
102
{ACAD_REACTORS
330
47
102
}
330
47
100
AcDbScale
 70
     0
300
1:4
140
1.0
141
4.0
290
     0
  0
SCALE
  5
4B
102
{ACAD_REACTORS
330
47
102
}
330
47
100
AcDbScale
 70
     0
300
1:5
140
1.0
141
5.0
290
     0
  0
SCALE
  5
4C
102
{ACAD_REACTORS
330
47
102
}
330
47
100
AcDbScale
 70
     0
300
1:8
140
1.0
141
8.0
290
     0
  0
SCALE
  5
4D
102
{ACAD_REACTORS
330
47
102
}
330
47
100
AcDbScale
 70
     0
300
1:10
140
1.0
141
10.0
290
     0
  0
SCALE
  5
4E
102
{ACAD_REACTORS
330
47
102
}
330
47
100
AcDbScale
 70
     0
300
1:16
140
1.0
141
16.0
290
     0
  0
SCALE
  5
4F
102
{ACAD_REACTORS
330
47
102
}
330
47
100
AcDbScale
 70
     0
300
1:20
140
1.0
141
20.0
290
     0
  0
SCALE
  5
50
102
{ACAD_REACTORS
330
47
102
}
330
47
100
AcDbScale
 70
     0
300
1:30
140
1.0
141
30.0
290
     0
  0
SCALE
  5
51
102
{ACAD_REACTORS
330
47
102
}
330
47
100
AcDbScale
 70
     0
300
1:40
140
1.0
141
40.0
290
     0
  0
SCALE
  5
52
102
{ACAD_REACTORS
330
47
102
}
330
47
100
AcDbScale
 70
     0
300
1:50
140
1.0
141
50.0
290
     0
  0
SCALE
  5
53
102
{ACAD_REACTORS
330
47
102
}
330
47
100
AcDbScale
 70
     0
300
1:100
140
1.0
141
100.0
290
     0
  0
SCALE
  5
54
102
{ACAD_REACTORS
330
47
102
}
330
47
100
AcDbScale
 70
     0
300
2:1
140
2.0
141
1.0
290
     0
  0
SCALE
  5
55
102
{ACAD_REACTORS
330
47
102
}
330
47
100
AcDbScale
 70
     0
300
4:1
140
4.0
141
1.0
290
     0
  0
SCALE
  5
56
102
{ACAD_REACTORS
330
47
102
}
330
47
100
AcDbScale
 70
     0
300
8:1
140
8.0
141
1.0
290
     0
  0
SCALE
  5
57
102
{ACAD_REACTORS
330
47
102
}
330
47
100
AcDbScale
 70
     0
300
10:1
140
10.0
141
1.0
290
     0
  0
SCALE
  5
58
102
{ACAD_REACTORS
330
47
102
}
330
47
100
AcDbScale
 70
     0
300
100:1
140
100.0
141
1.0
290
     0
  0
TABLESTYLE
  5
5A
102
{ACAD_REACTORS
330
59
102
}
102
{ACAD_XDICTIONARY
360
D8
102
}
330
59
100
AcDbTableStyle
  3
Standard
 70
     0
 71
     0
 40
0.06
 41
0.06
280
     0
281
     0
  7
Standard
140
4.5
170
     2
 62
     0
 63
   257
283
     0
 90
        4
 91
        0
  1

274
    -2
284
     1
 64
     0
275
    -2
285
     1
 65
     0
276
    -2
286
     1
 66
     0
277
    -2
287
     1
 67
     0
278
    -2
288
     1
 68
     0
279
    -2
289
     1
 69
     0
  7
Standard
140
6.0
170
     5
 62
     0
 63
   257
283
     0
 90
        4
 91
        0
  1

274
    -2
284
     1
 64
     0
275
    -2
285
     1
 65
     0
276
    -2
286
     1
 66
     0
277
    -2
287
     1
 67
     0
278
    -2
288
     1
 68
     0
279
    -2
289
     1
 69
     0
  7
Standard
140
4.5
170
     5
 62
     0
 63
   257
283
     0
 90
        4
 91
        0
  1

274
    -2
284
     1
 64
     0
275
    -2
285
     1
 65
     0
276
    -2
286
     1
 66
     0
277
    -2
287
     1
 67
     0
278
    -2
288
     1
 68
     0
279
    -2
289
     1
 69
     0
  0
VISUALSTYLE
  5
2F
102
{ACAD_REACTORS
330
2A
102
}
330
2A
100
AcDbVisualStyle
  2
2dWireframe
 70
     4
177
     3
291
     0
 70
    58
 90
        0
176
     1
 90
        2
176
     1
 90
        0
176
     1
 90
        0
176
     1
 40
0.6
176
     1
 40
30.0
176
     1
 62
     7
420
 16777215
176
     1
 90
        1
176
     1
 90
        4
176
     1
 62
     7
176
     1
 62
   257
176
     1
 90
        1
176
     1
 90
        1
176
     1
 40
1.0
176
     1
 90
        0
176
     1
 62
   257
176
     1
 40
1.0
176
     1
 90
        1
176
     1
 90
        6
176
     1
 90
        2
176
     1
 62
     7
176
     1
 90
        5
176
     1
 90
        0
176
     1
 90
        0
176
     1
290
     0
176
     1
 90
        1
176
     1
 40
0.0
176
     1
 90
        0
176
     1
290
     1
176
     1
290
     1
176
     1
290
     0
176
     1
290
     0
176
     1
290
     0
176
     1
290
     0
176
     1
290
     0
176
     1
290
     0
176
     1
290
     0
176
     1
 90
       50
176
     1
 40
0.0
176
     1
 40
1.0
176
     1
 90
        0
176
     1
 62
    18
420
        0
176
     1
 90
       50
176
     1
 90
        3
176
     1
 62
     5
420
      255
176
     1
290
     0
176
     1
 90
       50
176
     1
 90
       50
176
     1
 90
       50
176
     1
290
     0
176
     1
 90
       50
176
     1
 62
   256
176
     0
 40
1.0
176
     0
 90
        2
176
     1
  1
strokes_ogs.tif
176
     1
290
     0
176
     1
 40
1.0
176
     1
 40
1.0
176
     1
  0
VISUALSTYLE
  5
32
102
{ACAD_REACTORS
330
2A
102
}
330
2A
100
AcDbVisualStyle
  2
Basic
 70
     7
177
     3
291
     1
 70
    58
 90
        1
176
     1
 90
        0
176
     1
 90
        1
176
     1
 90
        0
176
     1
 40
0.6
176
     1
 40
30.0
176
     1
 62
     7
420
 16777215
176
     1
 90
        0
176
     1
 90
        4
176
     1
 62
     7
176
     1
 62
   257
176
     1
 90
        1
176
     1
 90
        1
176
     1
 40
1.0
176
     1
 90
        8
176
     1
 62
     7
176
     1
 40
1.0
176
     1
 90
        1
176
     1
 90
        6
176
     1
 90
        2
176
     1
 62
     7
176
     1
 90
        5
176
     1
 90
        0
176
     1
 90
        0
176
     1
290
     0
176
     1
 90
        1
176
     1
 40
0.0
176
     1
 90
        0
176
     1
290
     0
176
     1
290
     1
176
     1
290
     1
176
     1
290
     0
176
     1
290
     0
176
     1
290
     0
176
     1
290
     0
176
     1
290
     0
176
     1
290
     0
176
     1
 90
       50
176
     1
 40
0.0
176
     1
 40
1.0
176
     1
 90
        0
176
     1
 62
    18
420
        0
176
     1
 90
       50
176
     1
 90
        3
176
     1
 62
     5
420
      255
176
     1
290
     0
176
     1
 90
       50
176
     1
 90
       50
176
     1
 90
       50
176
     1
290
     0
176
     1
 90
       50
176
     1
 62
   256
176
     0
 40
1.0
176
     0
 90
        2
176
     1
  1
strokes_ogs.tif
176
     1
290
     0
176
     1
 40
1.0
176
     1
 40
1.0
176
     1
  0
VISUALSTYLE
  5
36
102
{ACAD_REACTORS
330
2A
102
}
330
2A
100
AcDbVisualStyle
  2
Brighten
 70
    12
177
     3
291
     1
 70
    58
 90
        2
176
     1
 90
        2
176
     1
 90
        0
176
     1
 90
        0
176
     1
 40
0.6
176
     1
 40
30.0
176
     1
 62
     7
420
 16777215
176
     1
 90
        1
176
     1
 90
        4
176
     1
 62
     7
176
     1
 62
   257
176
     1
 90
        1
176
     1
 90
        1
176
     1
 40
1.0
176
     1
 90
        8
176
     1
 62
     7
176
     1
 40
1.0
176
     1
 90
        1
176
     1
 90
        6
176
     1
 90
        2
176
     1
 62
     7
176
     1
 90
        5
176
     1
 90
        0
176
     1
 90
        0
176
     1
290
     0
176
     1
 90
        1
176
     1
 40
50.0
176
     1
 90
        0
176
     1
290
     0
176
     1
290
     1
176
     1
290
     1
176
     1
290
     0
176
     1
290
     0
176
     1
290
     0
176
     1
290
     0
176
     1
290
     0
176
     1
290
     0
176
     1
 90
       50
176
     1
 40
0.0
176
     1
 40
1.0
176
     1
 90
        0
176
     1
 62
    18
420
        0
176
     1
 90
       50
176
     1
 90
        3
176
     1
 62
     5
420
      255
176
     1
290
     0
176
     1
 90
       50
176
     1
 90
       50
176
     1
 90
       50
176
     1
290
     0
176
     1
 90
       50
176
     1
 62
   256
176
     0
 40
1.0
176
     0
 90
        2
176
     1
  1
strokes_ogs.tif
176
     1
290
     0
176
     1
 40
1.0
176
     1
 40
1.0
176
     1
  0
VISUALSTYLE
  5
3A
102
{ACAD_REACTORS
330
2A
102
}
330
2A
100
AcDbVisualStyle
  2
ColorChange
 70
    16
177
     3
291
     1
 70
    58
 90
        2
176
     1
 90
        2
176
     1
 90
        3
176
     1
 90
        0
176
     1
 40
0.6
176
     1
 40
30.0
176
     1
 62
     8
420
  8421504
176
     1
 90
        1
176
     1
 90
        4
176
     1
 62
     7
176
     1
 62
   257
176
     1
 90
        1
176
     1
 90
        1
176
     1
 40
1.0
176
     1
 90
        8
176
     1
 62
     8
420
  8421504
176
     1
 40
1.0
176
     1
 90
        1
176
     1
 90
        6
176
     1
 90
        2
176
     1
 62
     7
176
     1
 90
        5
176
     1
 90
        0
176
     1
 90
        0
176
     1
290
     0
176
     1
 90
        1
176
     1
 40
0.0
176
     1
 90
        0
176
     1
290
     0
176
     1
290
     1
176
     1
290
     1
176
     1
290
     0
176
     1
290
     0
176
     1
290
     0
176
     1
290
     0
176
     1
290
     0
176
     1
290
     0
176
     1
 90
       50
176
     1
 40
0.0
176
     1
 40
1.0
176
     1
 90
        0
176
     1
 62
    18
420
        0
176
     1
 90
       50
176
     1
 90
        3
176
     1
 62
     5
420
      255
176
     1
290
     0
176
     1
 90
       50
176
     1
 90
       50
176
     1
 90
       50
176
     1
290
     0
176
     1
 90
       50
176
     1
 62
   256
176
     0
 40
1.0
176
     0
 90
        2
176
     1
  1
strokes_ogs.tif
176
     1
290
     0
176
     1
 40
1.0
176
     1
 40
1.0
176
     1
  0
VISUALSTYLE
  5
34
102
{ACAD_REACTORS
330
2A
102
}
330
2A
100
AcDbVisualStyle
  2
Conceptual
 70
     9
177
     3
291
     0
 70
    58
 90
        3
176
     1
 90
        2
176
     1
 90
        0
176
     1
 90
        0
176
     1
 40
0.6
176
     1
 40
30.0
176
     1
 62
     7
420
 16777215
176
     1
 90
        2
176
     1
 90
        2
176
     1
 62
     7
176
     1
 62
   257
176
     1
 90
        1
176
     1
 90
        1
176
     1
 40
179.0
176
     1
 90
        8
176
     1
 62
     7
176
     1
 40
1.0
176
     1
 90
        1
176
     1
 90
        6
176
     1
 90
        2
176
     1
 62
     7
176
     1
 90
        3
176
     1
 90
        0
176
     1
 90
        0
176
     1
290
     0
176
     1
 90
        1
176
     1
 40
0.0
176
     1
 90
        0
176
     1
290
     0
176
     1
290
     1
176
     1
290
     1
176
     1
290
     0
176
     1
290
     0
176
     1
290
     0
176
     1
290
     0
176
     1
290
     0
176
     1
290
     0
176
     1
 90
       50
176
     1
 40
0.0
176
     1
 40
1.0
176
     1
 90
        0
176
     1
 62
    18
420
        0
176
     1
 90
       50
176
     1
 90
        3
176
     1
 62
     5
420
      255
176
     1
290
     0
176
     1
 90
       50
176
     1
 90
       50
176
     1
 90
       50
176
     1
290
     0
176
     1
 90
       50
176
     1
 62
   256
176
     0
 40
1.0
176
     0
 90
        2
176
     1
  1
strokes_ogs.tif
176
     1
290
     0
176
     1
 40
1.0
176
     1
 40
1.0
176
     1
  0
VISUALSTYLE
  5
35
102
{ACAD_REACTORS
330
2A
102
}
330
2A
100
AcDbVisualStyle
  2
Dim
 70
    11
177
     3
291
     1
 70
    58
 90
        2
176
     1
 90
        2
176
     1
 90
        0
176
     1
 90
        0
176
     1
 40
0.6
176
     1
 40
30.0
176
     1
 62
     7
420
 16777215
176
     1
 90
        1
176
     1
 90
        4
176
     1
 62
     7
176
     1
 62
   257
176
     1
 90
        1
176
     1
 90
        1
176
     1
 40
1.0
176
     1
 90
        8
176
     1
 62
     7
176
     1
 40
1.0
176
     1
 90
        1
176
     1
 90
        6
176
     1
 90
        2
176
     1
 62
     7
176
     1
 90
        5
176
     1
 90
        0
176
     1
 90
        0
176
     1
290
     0
176
     1
 90
        1
176
     1
 40
-50.0
176
     1
 90
        0
176
     1
290
     0
176
     1
290
     1
176
     1
290
     1
176
     1
290
     0
176
     1
290
     0
176
     1
290
     0
176
     1
290
     0
176
     1
290
     0
176
     1
290
     0
176
     1
 90
       50
176
     1
 40
0.0
176
     1
 40
1.0
176
     1
 90
        0
176
     1
 62
    18
420
        0
176
     1
 90
       50
176
     1
 90
        3
176
     1
 62
     5
420
      255
176
     1
290
     0
176
     1
 90
       50
176
     1
 90
       50
176
     1
 90
       50
176
     1
290
     0
176
     1
 90
       50
176
     1
 62
   256
176
     0
 40
1.0
176
     0
 90
        2
176
     1
  1
strokes_ogs.tif
176
     1
290
     0
176
     1
 40
1.0
176
     1
 40
1.0
176
     1
  0
VISUALSTYLE
  5
3D
102
{ACAD_REACTORS
330
2A
102
}
330
2A
100
AcDbVisualStyle
  2
EdgeColorOff
 70
    22
177
     3
291
     1
 70
    58
 90
        2
176
     0
 90
        2
176
     0
 90
        0
176
     0
 90
        0
176
     0
 40
0.6
176
     0
 40
30.0
176
     0
 62
     7
420
 16777215
176
     0
 90
        1
176
     0
 90
        4
176
     0
 62
     7
176
     0
 62
   257
176
     0
 90
        1
176
     0
 90
        1
176
     0
 40
1.0
176
     0
 90
        8
176
     2
 62
     7
176
     0
 40
1.0
176
     0
 90
        1
176
     0
 90
        6
176
     0
 90
        2
176
     0
 62
     7
176
     0
 90
        5
176
     0
 90
        0
176
     0
 90
        0
176
     0
290
     0
176
     0
 90
        1
176
     0
 40
0.0
176
     0
 90
        0
176
     0
290
     0
176
     0
290
     1
176
     0
290
     1
176
     0
290
     0
176
     0
290
     0
176
     0
290
     0
176
     0
290
     0
176
     0
290
     0
176
     0
290
     0
176
     0
 90
       50
176
     0
 40
0.0
176
     0
 40
1.0
176
     0
 90
        0
176
     0
 62
    18
420
        0
176
     0
 90
       50
176
     0
 90
        3
176
     0
 62
     5
420
      255
176
     0
290
     0
176
     0
 90
       50
176
     0
 90
       50
176
     0
 90
       50
176
     0
290
     0
176
     0
 90
       50
176
     0
 62
   256
176
     0
 40
1.0
176
     0
 90
        2
176
     0
  1
strokes_ogs.tif
176
     0
290
     0
176
     0
 40
1.0
176
     0
 40
1.0
176
     0
  0
VISUALSTYLE
  5
39
102
{ACAD_REACTORS
330
2A
102
}
330
2A
100
AcDbVisualStyle
  2
Facepattern
 70
    15
177
     3
291
     1
 70
    58
 90
        2
176
     1
 90
        2
176
     1
 90
        0
176
     1
 90
        0
176
     1
 40
0.6
176
     1
 40
30.0
176
     1
 62
     7
420
 16777215
176
     1
 90
        1
176
     1
 90
        4
176
     1
 62
     7
176
     1
 62
   257
176
     1
 90
        1
176
     1
 90
        1
176
     1
 40
1.0
176
     1
 90
        8
176
     1
 62
     7
176
     1
 40
1.0
176
     1
 90
        1
176
     1
 90
        6
176
     1
 90
        2
176
     1
 62
     7
176
     1
 90
        5
176
     1
 90
        0
176
     1
 90
        0
176
     1
290
     0
176
     1
 90
        1
176
     1
 40
0.0
176
     1
 90
        0
176
     1
290
     0
176
     1
290
     1
176
     1
290
     1
176
     1
290
     0
176
     1
290
     0
176
     1
290
     0
176
     1
290
     0
176
     1
290
     0
176
     1
290
     0
176
     1
 90
       50
176
     1
 40
0.0
176
     1
 40
1.0
176
     1
 90
        0
176
     1
 62
    18
420
        0
176
     1
 90
       50
176
     1
 90
        3
176
     1
 62
     5
420
      255
176
     1
290
     0
176
     1
 90
       50
176
     1
 90
       50
176
     1
 90
       50
176
     1
290
     0
176
     1
 90
       50
176
     1
 62
   256
176
     0
 40
1.0
176
     0
 90
        2
176
     1
  1
strokes_ogs.tif
176
     1
290
     0
176
     1
 40
1.0
176
     1
 40
1.0
176
     1
  0
VISUALSTYLE
  5
2B
102
{ACAD_REACTORS
330
2A
102
}
330
2A
100
AcDbVisualStyle
  2
Flat
 70
     0
177
     3
291
     1
 70
    58
 90
        2
176
     1
 90
        1
176
     1
 90
        1
176
     1
 90
        2
176
     1
 40
0.6
176
     1
 40
30.0
176
     1
 62
     7
420
 16777215
176
     1
 90
        0
176
     1
 90
        0
176
     1
 62
     7
176
     1
 62
   257
176
     1
 90
        1
176
     1
 90
        1
176
     1
 40
1.0
176
     1
 90
        8
176
     1
 62
     7
176
     1
 40
1.0
176
     1
 90
        1
176
     1
 90
        6
176
     1
 90
        2
176
     1
 62
     7
176
     1
 90
        5
176
     1
 90
        0
176
     1
 90
        0
176
     1
290
     0
176
     1
 90
       13
176
     1
 40
0.0
176
     1
 90
        0
176
     1
290
     0
176
     1
290
     1
176
     1
290
     1
176
     1
290
     0
176
     1
290
     0
176
     1
290
     0
176
     1
290
     0
176
     1
290
     0
176
     1
290
     0
176
     1
 90
       50
176
     1
 40
0.0
176
     1
 40
1.0
176
     1
 90
        0
176
     1
 62
    18
420
        0
176
     1
 90
       50
176
     1
 90
        3
176
     1
 62
     5
420
      255
176
     1
290
     0
176
     1
 90
       50
176
     1
 90
       50
176
     1
 90
       50
176
     1
290
     0
176
     1
 90
       50
176
     1
 62
   256
176
     0
 40
1.0
176
     0
 90
        2
176
     1
  1
strokes_ogs.tif
176
     1
290
     0
176
     1
 40
1.0
176
     1
 40
1.0
176
     1
  0
VISUALSTYLE
  5
2C
102
{ACAD_REACTORS
330
2A
102
}
330
2A
100
AcDbVisualStyle
  2
FlatWithEdges
 70
     1
177
     3
291
     1
 70
    58
 90
        2
176
     1
 90
        1
176
     1
 90
        1
176
     1
 90
        2
176
     1
 40
0.6
176
     1
 40
30.0
176
     1
 62
     7
420
 16777215
176
     1
 90
        1
176
     1
 90
        0
176
     1
 62
     7
176
     1
 62
   257
176
     1
 90
        1
176
     1
 90
        1
176
     1
 40
1.0
176
     1
 90
        0
176
     1
 62
   257
176
     1
 40
1.0
176
     1
 90
        1
176
     1
 90
        6
176
     1
 90
        2
176
     1
 62
     7
176
     1
 90
        5
176
     1
 90
        0
176
     1
 90
        0
176
     1
290
     0
176
     1
 90
       13
176
     1
 40
0.0
176
     1
 90
        0
176
     1
290
     0
176
     1
290
     1
176
     1
290
     1
176
     1
290
     0
176
     1
290
     0
176
     1
290
     0
176
     1
290
     0
176
     1
290
     0
176
     1
290
     0
176
     1
 90
       50
176
     1
 40
0.0
176
     1
 40
1.0
176
     1
 90
        0
176
     1
 62
    18
420
        0
176
     1
 90
       50
176
     1
 90
        3
176
     1
 62
     5
420
      255
176
     1
290
     0
176
     1
 90
       50
176
     1
 90
       50
176
     1
 90
       50
176
     1
290
     0
176
     1
 90
       50
176
     1
 62
   256
176
     0
 40
1.0
176
     0
 90
        2
176
     1
  1
strokes_ogs.tif
176
     1
290
     0
176
     1
 40
1.0
176
     1
 40
1.0
176
     1
  0
VISUALSTYLE
  5
2D
102
{ACAD_REACTORS
330
2A
102
}
330
2A
100
AcDbVisualStyle
  2
Gouraud
 70
     2
177
     3
291
     1
 70
    58
 90
        2
176
     1
 90
        2
176
     1
 90
        1
176
     1
 90
        2
176
     1
 40
0.6
176
     1
 40
30.0
176
     1
 62
     7
420
 16777215
176
     1
 90
        0
176
     1
 90
        0
176
     1
 62
     7
176
     1
 62
   257
176
     1
 90
        1
176
     1
 90
        1
176
     1
 40
1.0
176
     1
 90
        0
176
     1
 62
     7
176
     1
 40
1.0
176
     1
 90
        1
176
     1
 90
        6
176
     1
 90
        2
176
     1
 62
     7
176
     1
 90
        5
176
     1
 90
        0
176
     1
 90
        0
176
     1
290
     0
176
     1
 90
       13
176
     1
 40
0.0
176
     1
 90
        0
176
     1
290
     0
176
     1
290
     1
176
     1
290
     1
176
     1
290
     0
176
     1
290
     0
176
     1
290
     0
176
     1
290
     0
176
     1
290
     0
176
     1
290
     0
176
     1
 90
       50
176
     1
 40
0.0
176
     1
 40
1.0
176
     1
 90
        0
176
     1
 62
    18
420
        0
176
     1
 90
       50
176
     1
 90
        3
176
     1
 62
     5
420
      255
176
     1
290
     0
176
     1
 90
       50
176
     1
 90
       50
176
     1
 90
       50
176
     1
290
     0
176
     1
 90
       50
176
     1
 62
   256
176
     0
 40
1.0
176
     0
 90
        2
176
     1
  1
strokes_ogs.tif
176
     1
290
     0
176
     1
 40
1.0
176
     1
 40
1.0
176
     1
  0
VISUALSTYLE
  5
2E
102
{ACAD_REACTORS
330
2A
102
}
330
2A
100
AcDbVisualStyle
  2
GouraudWithEdges
 70
     3
177
     3
291
     1
 70
    58
 90
        2
176
     1
 90
        2
176
     1
 90
        1
176
     1
 90
        2
176
     1
 40
0.6
176
     1
 40
30.0
176
     1
 62
     7
420
 16777215
176
     1
 90
        1
176
     1
 90
        0
176
     1
 62
     7
176
     1
 62
   257
176
     1
 90
        1
176
     1
 90
        1
176
     1
 40
1.0
176
     1
 90
        0
176
     1
 62
   257
176
     1
 40
1.0
176
     1
 90
        1
176
     1
 90
        6
176
     1
 90
        2
176
     1
 62
     7
176
     1
 90
        5
176
     1
 90
        0
176
     1
 90
        0
176
     1
290
     0
176
     1
 90
       13
176
     1
 40
0.0
176
     1
 90
        0
176
     1
290
     0
176
     1
290
     1
176
     1
290
     1
176
     1
290
     0
176
     1
290
     0
176
     1
290
     0
176
     1
290
     0
176
     1
290
     0
176
     1
290
     0
176
     1
 90
       50
176
     1
 40
0.0
176
     1
 40
1.0
176
     1
 90
        0
176
     1
 62
    18
420
        0
176
     1
 90
       50
176
     1
 90
        3
176
     1
 62
     5
420
      255
176
     1
290
     0
176
     1
 90
       50
176
     1
 90
       50
176
     1
 90
       50
176
     1
290
     0
176
     1
 90
       50
176
     1
 62
   256
176
     0
 40
1.0
176
     0
 90
        2
176
     1
  1
strokes_ogs.tif
176
     1
290
     0
176
     1
 40
1.0
176
     1
 40
1.0
176
     1
  0
VISUALSTYLE
  5
31
102
{ACAD_REACTORS
330
2A
102
}
330
2A
100
AcDbVisualStyle
  2
Hidden
 70
     6
177
     3
291
     0
 70
    58
 90
        1
176
     1
 90
        2
176
     1
 90
        2
176
     1
 90
        0
176
     1
 40
0.6
176
     1
 40
30.0
176
     1
 62
     7
420
 16777215
176
     1
 90
        2
176
     1
 90
        2
176
     1
 62
     7
176
     1
 62
   257
176
     1
 90
        2
176
     1
 90
        1
176
     1
 40
40.0
176
     1
 90
        0
176
     1
 62
   257
176
     1
 40
1.0
176
     1
 90
        1
176
     1
 90
        6
176
     1
 90
        2
176
     1
 62
     7
176
     1
 90
        3
176
     1
 90
        0
176
     1
 90
        0
176
     1
290
     0
176
     1
 90
        1
176
     1
 40
0.0
176
     1
 90
        0
176
     1
290
     0
176
     1
290
     1
176
     1
290
     1
176
     1
290
     0
176
     1
290
     0
176
     1
290
     0
176
     1
290
     0
176
     1
290
     0
176
     1
290
     0
176
     1
 90
       50
176
     1
 40
0.0
176
     1
 40
1.0
176
     1
 90
        0
176
     1
 62
    18
420
        0
176
     1
 90
       50
176
     1
 90
        3
176
     1
 62
     5
420
      255
176
     1
290
     0
176
     1
 90
       50
176
     1
 90
       50
176
     1
 90
       50
176
     1
290
     0
176
     1
 90
       50
176
     1
 62
   256
176
     0
 40
1.0
176
     0
 90
        2
176
     1
  1
strokes_ogs.tif
176
     1
290
     0
176
     1
 40
1.0
176
     1
 40
1.0
176
     1
  0
VISUALSTYLE
  5
3B
102
{ACAD_REACTORS
330
2A
102
}
330
2A
100
AcDbVisualStyle
  2
JitterOff
 70
    20
177
     3
291
     1
 70
    58
 90
        2
176
     0
 90
        2
176
     0
 90
        0
176
     0
 90
        0
176
     0
 40
0.6
176
     0
 40
30.0
176
     0
 62
     7
420
 16777215
176
     0
 90
        1
176
     0
 90
        4
176
     0
 62
     7
176
     0
 62
   257
176
     0
 90
        1
176
     0
 90
        1
176
     0
 40
1.0
176
     0
 90
       10
176
     2
 62
     7
176
     0
 40
1.0
176
     0
 90
        1
176
     0
 90
        6
176
     0
 90
        2
176
     0
 62
     7
176
     0
 90
        5
176
     0
 90
        0
176
     0
 90
        0
176
     0
290
     0
176
     0
 90
        1
176
     0
 40
0.0
176
     0
 90
        0
176
     0
290
     0
176
     0
290
     1
176
     0
290
     1
176
     0
290
     0
176
     0
290
     0
176
     0
290
     0
176
     0
290
     0
176
     0
290
     0
176
     0
290
     0
176
     0
 90
       50
176
     0
 40
0.0
176
     0
 40
1.0
176
     0
 90
        0
176
     0
 62
    18
420
        0
176
     0
 90
       50
176
     0
 90
        3
176
     0
 62
     5
420
      255
176
     0
290
     0
176
     0
 90
       50
176
     0
 90
       50
176
     0
 90
       50
176
     0
290
     0
176
     0
 90
       50
176
     0
 62
   256
176
     0
 40
1.0
176
     0
 90
        2
176
     0
  1
strokes_ogs.tif
176
     0
290
     0
176
     0
 40
1.0
176
     0
 40
1.0
176
     0
  0
VISUALSTYLE
  5
38
102
{ACAD_REACTORS
330
2A
102
}
330
2A
100
AcDbVisualStyle
  2
Linepattern
 70
    14
177
     3
291
     1
 70
    58
 90
        2
176
     1
 90
        2
176
     1
 90
        0
176
     1
 90
        0
176
     1
 40
0.6
176
     1
 40
30.0
176
     1
 62
     7
420
 16777215
176
     1
 90
        1
176
     1
 90
        4
176
     1
 62
     7
176
     1
 62
   257
176
     1
 90
        7
176
     1
 90
        7
176
     1
 40
1.0
176
     1
 90
        8
176
     1
 62
     7
176
     1
 40
1.0
176
     1
 90
        1
176
     1
 90
        6
176
     1
 90
        2
176
     1
 62
     7
176
     1
 90
        5
176
     1
 90
        0
176
     1
 90
        0
176
     1
290
     0
176
     1
 90
        1
176
     1
 40
0.0
176
     1
 90
        0
176
     1
290
     0
176
     1
290
     1
176
     1
290
     1
176
     1
290
     0
176
     1
290
     0
176
     1
290
     0
176
     1
290
     0
176
     1
290
     0
176
     1
290
     0
176
     1
 90
       50
176
     1
 40
0.0
176
     1
 40
1.0
176
     1
 90
        0
176
     1
 62
    18
420
        0
176
     1
 90
       50
176
     1
 90
        3
176
     1
 62
     5
420
      255
176
     1
290
     0
176
     1
 90
       50
176
     1
 90
       50
176
     1
 90
       50
176
     1
290
     0
176
     1
 90
       50
176
     1
 62
   256
176
     0
 40
1.0
176
     0
 90
        2
176
     1
  1
strokes_ogs.tif
176
     1
290
     0
176
     1
 40
1.0
176
     1
 40
1.0
176
     1
  0
VISUALSTYLE
  5
3C
102
{ACAD_REACTORS
330
2A
102
}
330
2A
100
AcDbVisualStyle
  2
OverhangOff
 70
    21
177
     3
291
     1
 70
    58
 90
        2
176
     0
 90
        2
176
     0
 90
        0
176
     0
 90
        0
176
     0
 40
0.6
176
     0
 40
30.0
176
     0
 62
     7
420
 16777215
176
     0
 90
        1
176
     0
 90
        4
176
     0
 62
     7
176
     0
 62
   257
176
     0
 90
        1
176
     0
 90
        1
176
     0
 40
1.0
176
     0
 90
        9
176
     2
 62
     7
176
     0
 40
1.0
176
     0
 90
        1
176
     0
 90
        6
176
     0
 90
        2
176
     0
 62
     7
176
     0
 90
        5
176
     0
 90
        0
176
     0
 90
        0
176
     0
290
     0
176
     0
 90
        1
176
     0
 40
0.0
176
     0
 90
        0
176
     0
290
     0
176
     0
290
     1
176
     0
290
     1
176
     0
290
     0
176
     0
290
     0
176
     0
290
     0
176
     0
290
     0
176
     0
290
     0
176
     0
290
     0
176
     0
 90
       50
176
     0
 40
0.0
176
     0
 40
1.0
176
     0
 90
        0
176
     0
 62
    18
420
        0
176
     0
 90
       50
176
     0
 90
        3
176
     0
 62
     5
420
      255
176
     0
290
     0
176
     0
 90
       50
176
     0
 90
       50
176
     0
 90
       50
176
     0
290
     0
176
     0
 90
       50
176
     0
 62
   256
176
     0
 40
1.0
176
     0
 90
        2
176
     0
  1
strokes_ogs.tif
176
     0
290
     0
176
     0
 40
1.0
176
     0
 40
1.0
176
     0
  0
VISUALSTYLE
  5
33
102
{ACAD_REACTORS
330
2A
102
}
330
2A
100
AcDbVisualStyle
  2
Realistic
 70
     8
177
     3
291
     0
 70
    58
 90
        2
176
     1
 90
        3
176
     1
 90
        0
176
     1
 90
        2
176
     1
 40
0.6
176
     1
 40
30.0
176
     1
 62
     7
420
 16777215
176
     1
 90
        0
176
     1
 90
        0
176
     1
 62
     7
176
     1
 62
   257
176
     1
 90
        1
176
     1
 90
        1
176
     1
 40
1.0
176
     1
 90
        8
176
     1
 62
   257
176
     1
 40
1.0
176
     1
 90
        1
176
     1
 90
        6
176
     1
 90
        2
176
     1
 62
     7
176
     1
 90
        3
176
     1
 90
        0
176
     1
 90
        0
176
     1
290
     0
176
     1
 90
       13
176
     1
 40
0.0
176
     1
 90
        0
176
     1
290
     0
176
     1
290
     1
176
     1
290
     1
176
     1
290
     0
176
     1
290
     0
176
     1
290
     0
176
     1
290
     0
176
     1
290
     0
176
     1
290
     0
176
     1
 90
       50
176
     1
 40
0.0
176
     1
 40
1.0
176
     1
 90
        0
176
     1
 62
    18
420
        0
176
     1
 90
       50
176
     1
 90
        3
176
     1
 62
     5
420
      255
176
     1
290
     0
176
     1
 90
       50
176
     1
 90
       50
176
     1
 90
       50
176
     1
290
     0
176
     1
 90
       50
176
     1
 62
   256
176
     0
 40
1.0
176
     0
 90
        2
176
     1
  1
strokes_ogs.tif
176
     1
290
     0
176
     1
 40
1.0
176
     1
 40
1.0
176
     1
  0
VISUALSTYLE
  5
42
102
{ACAD_REACTORS
330
2A
102
}
330
2A
100
AcDbVisualStyle
  2
Shaded
 70
    27
177
     3
291
     0
 70
    58
 90
        2
176
     1
 90
        2
176
     1
 90
        1
176
     1
 90
        2
176
     1
 40
0.6
176
     1
 40
30.0
176
     1
 62
     7
420
 16777215
176
     1
 90
        0
176
     1
 90
        4
176
     1
 62
     7
176
     1
 62
   257
176
     1
 90
        1
176
     1
 90
        1
176
     1
 40
1.0
176
     1
 90
        8
176
     1
 62
   257
176
     1
 40
1.0
176
     1
 90
        1
176
     1
 90
        6
176
     1
 90
        2
176
     1
 62
     8
420
  7895160
176
     1
 90
        3
176
     1
 90
        0
176
     1
 90
        0
176
     1
290
     0
176
     1
 90
        5
176
     1
 40
0.0
176
     1
 90
        0
176
     1
290
     0
176
     1
290
     1
176
     1
290
     1
176
     1
290
     0
176
     1
290
     0
176
     1
290
     0
176
     1
290
     0
176
     1
290
     0
176
     1
290
     0
176
     1
 90
       50
176
     1
 40
0.0
176
     1
 40
1.0
176
     1
 90
        0
176
     1
 62
    18
420
        0
176
     1
 90
       50
176
     1
 90
        3
176
     1
 62
     5
420
      255
176
     1
290
     0
176
     1
 90
       50
176
     1
 90
       50
176
     1
 90
       50
176
     1
290
     0
176
     1
 90
       50
176
     1
 62
   256
176
     0
 40
1.0
176
     0
 90
        2
176
     1
  1
strokes_ogs.tif
176
     1
290
     0
176
     1
 40
1.0
176
     1
 40
1.0
176
     1
  0
VISUALSTYLE
  5
41
102
{ACAD_REACTORS
330
2A
102
}
330
2A
100
AcDbVisualStyle
  2
Shaded with edges
 70
    26
177
     3
291
     0
 70
    58
 90
        2
176
     1
 90
        2
176
     1
 90
        1
176
     1
 90
        2
176
     1
 40
0.6
176
     1
 40
30.0
176
     1
 62
     7
420
 16777215
176
     1
 90
        1
176
     1
 90
       10
176
     1
 62
     7
176
     1
 62
   257
176
     1
 90
        2
176
     1
 90
        1
176
     1
 40
1.0
176
     1
 90
        8
176
     1
 62
   257
176
     1
 40
1.0
176
     1
 90
        1
176
     1
 90
        6
176
     1
 90
        2
176
     1
 62
     7
176
     1
 90
        3
176
     1
 90
        0
176
     1
 90
        0
176
     1
290
     0
176
     1
 90
        5
176
     1
 40
0.0
176
     1
 90
        0
176
     1
290
     0
176
     1
290
     1
176
     1
290
     1
176
     1
290
     0
176
     1
290
     0
176
     1
290
     0
176
     1
290
     0
176
     1
290
     0
176
     1
290
     0
176
     1
 90
       50
176
     1
 40
0.0
176
     1
 40
1.0
176
     1
 90
        0
176
     1
 62
    18
420
        0
176
     1
 90
       50
176
     1
 90
        3
176
     1
 62
     5
420
      255
176
     1
290
     0
176
     1
 90
       50
176
     1
 90
       50
176
     1
 90
       50
176
     1
290
     0
176
     1
 90
       50
176
     1
 62
   256
176
     0
 40
1.0
176
     0
 90
        2
176
     1
  1
strokes_ogs.tif
176
     1
290
     0
176
     1
 40
1.0
176
     1
 40
1.0
176
     1
  0
VISUALSTYLE
  5
3E
102
{ACAD_REACTORS
330
2A
102
}
330
2A
100
AcDbVisualStyle
  2
Shades of Gray
 70
    23
177
     3
291
     0
 70
    58
 90
        2
176
     1
 90
        2
176
     1
 90
        3
176
     1
 90
        0
176
     1
 40
0.6
176
     1
 40
30.0
176
     1
 62
     7
420
 16777215
176
     1
 90
        2
176
     1
 90
        2
176
     1
 62
     7
176
     1
 62
     7
176
     1
 90
        1
176
     1
 90
        1
176
     1
 40
40.0
176
     1
 90
        8
176
     1
 62
     7
176
     1
 40
1.0
176
     1
 90
        1
176
     1
 90
        6
176
     1
 90
        2
176
     1
 62
     7
176
     1
 90
        3
176
     1
 90
        0
176
     1
 90
        0
176
     1
290
     0
176
     1
 90
        1
176
     1
 40
0.0
176
     1
 90
        0
176
     1
290
     0
176
     1
290
     1
176
     1
290
     1
176
     1
290
     0
176
     1
290
     0
176
     1
290
     0
176
     1
290
     0
176
     1
290
     0
176
     1
290
     0
176
     1
 90
       50
176
     1
 40
0.0
176
     1
 40
1.0
176
     1
 90
        0
176
     1
 62
    18
420
        0
176
     1
 90
       50
176
     1
 90
        3
176
     1
 62
     5
420
      255
176
     1
290
     0
176
     1
 90
       50
176
     1
 90
       50
176
     1
 90
       50
176
     1
290
     0
176
     1
 90
       50
176
     1
 62
   256
176
     0
 40
1.0
176
     0
 90
        2
176
     1
  1
strokes_ogs.tif
176
     1
290
     0
176
     1
 40
1.0
176
     1
 40
1.0
176
     1
  0
VISUALSTYLE
  5
3F
102
{ACAD_REACTORS
330
2A
102
}
330
2A
100
AcDbVisualStyle
  2
Sketchy
 70
    24
177
     3
291
     0
 70
    58
 90
        1
176
     1
 90
        2
176
     1
 90
        2
176
     1
 90
        0
176
     1
 40
0.6
176
     1
 40
30.0
176
     1
 62
     7
420
 16777215
176
     1
 90
        2
176
     1
 90
        2
176
     1
 62
     7
176
     1
 62
     7
176
     1
 90
        1
176
     1
 90
        1
176
     1
 40
40.0
176
     1
 90
       11
176
     1
 62
     7
176
     1
 40
1.0
176
     1
 90
        1
176
     1
 90
        6
176
     1
 90
        2
176
     1
 62
     7
176
     1
 90
        6
176
     1
 90
        0
176
     1
 90
        0
176
     1
290
     0
176
     1
 90
        1
176
     1
 40
0.0
176
     1
 90
        0
176
     1
290
     0
176
     1
290
     1
176
     1
290
     1
176
     1
290
     0
176
     1
290
     0
176
     1
290
     0
176
     1
290
     0
176
     1
290
     0
176
     1
290
     0
176
     1
 90
       50
176
     1
 40
0.0
176
     1
 40
1.0
176
     1
 90
        0
176
     1
 62
    18
420
        0
176
     1
 90
       50
176
     1
 90
        3
176
     1
 62
     5
420
      255
176
     1
290
     0
176
     1
 90
       50
176
     1
 90
       50
176
     1
 90
       50
176
     1
290
     0
176
     1
 90
       50
176
     1
 62
   256
176
     0
 40
1.0
176
     0
 90
        2
176
     1
  1
strokes_ogs.tif
176
     1
290
     0
176
     1
 40
1.0
176
     1
 40
1.0
176
     1
  0
VISUALSTYLE
  5
37
102
{ACAD_REACTORS
330
2A
102
}
330
2A
100
AcDbVisualStyle
  2
Thicken
 70
    13
177
     3
291
     1
 70
    58
 90
        2
176
     1
 90
        2
176
     1
 90
        0
176
     1
 90
        0
176
     1
 40
0.6
176
     1
 40
30.0
176
     1
 62
     7
420
 16777215
176
     1
 90
        1
176
     1
 90
        4
176
     1
 62
     7
176
     1
 62
   257
176
     1
 90
        1
176
     1
 90
        1
176
     1
 40
1.0
176
     1
 90
       12
176
     1
 62
     7
176
     1
 40
1.0
176
     1
 90
        1
176
     1
 90
        6
176
     1
 90
        2
176
     1
 62
     7
176
     1
 90
        5
176
     1
 90
        0
176
     1
 90
        0
176
     1
290
     0
176
     1
 90
        1
176
     1
 40
0.0
176
     1
 90
        0
176
     1
290
     0
176
     1
290
     1
176
     1
290
     1
176
     1
290
     0
176
     1
290
     0
176
     1
290
     0
176
     1
290
     0
176
     1
290
     0
176
     1
290
     0
176
     1
 90
       50
176
     1
 40
0.0
176
     1
 40
1.0
176
     1
 90
        0
176
     1
 62
    18
420
        0
176
     1
 90
       50
176
     1
 90
        3
176
     1
 62
     5
420
      255
176
     1
290
     0
176
     1
 90
       50
176
     1
 90
       50
176
     1
 90
       50
176
     1
290
     0
176
     1
 90
       50
176
     1
 62
   256
176
     0
 40
1.0
176
     0
 90
        2
176
     1
  1
strokes_ogs.tif
176
     1
290
     0
176
     1
 40
1.0
176
     1
 40
1.0
176
     1
  0
VISUALSTYLE
  5
30
102
{ACAD_REACTORS
330
2A
102
}
330
2A
100
AcDbVisualStyle
  2
Wireframe
 70
     5
177
     3
291
     0
 70
    58
 90
        0
176
     1
 90
        2
176
     1
 90
        0
176
     1
 90
        0
176
     1
 40
0.6
176
     1
 40
30.0
176
     1
 62
     7
420
 16777215
176
     1
 90
        1
176
     1
 90
        4
176
     1
 62
     7
176
     1
 62
   257
176
     1
 90
        1
176
     1
 90
        1
176
     1
 40
1.0
176
     1
 90
        0
176
     1
 62
   257
176
     1
 40
1.0
176
     1
 90
        1
176
     1
 90
        6
176
     1
 90
        2
176
     1
 62
     7
176
     1
 90
        3
176
     1
 90
        0
176
     1
 90
        0
176
     1
290
     0
176
     1
 90
        1
176
     1
 40
0.0
176
     1
 90
        0
176
     1
290
     0
176
     1
290
     1
176
     1
290
     1
176
     1
290
     0
176
     1
290
     0
176
     1
290
     0
176
     1
290
     0
176
     1
290
     0
176
     1
290
     0
176
     1
 90
       50
176
     1
 40
0.0
176
     1
 40
1.0
176
     1
 90
        0
176
     1
 62
    18
420
        0
176
     1
 90
       50
176
     1
 90
        3
176
     1
 62
     5
420
      255
176
     1
290
     0
176
     1
 90
       50
176
     1
 90
       50
176
     1
 90
       50
176
     1
290
     0
176
     1
 90
       50
176
     1
 62
   256
176
     0
 40
1.0
176
     0
 90
        2
176
     1
  1
strokes_ogs.tif
176
     1
290
     0
176
     1
 40
1.0
176
     1
 40
1.0
176
     1
  0
VISUALSTYLE
  5
40
102
{ACAD_REACTORS
330
2A
102
}
330
2A
100
AcDbVisualStyle
  2
X-Ray
 70
    25
177
     3
291
     0
 70
    58
 90
        2
176
     1
 90
        2
176
     1
 90
        1
176
     1
 90
        1
176
     1
 40
0.5
176
     1
 40
30.0
176
     1
 62
     7
420
 16777215
176
     1
 90
        1
176
     1
 90
        0
176
     1
 62
     7
176
     1
 62
   257
176
     1
 90
        1
176
     1
 90
        1
176
     1
 40
1.0
176
     1
 90
        8
176
     1
 62
     7
176
     1
 40
1.0
176
     1
 90
        1
176
     1
 90
        6
176
     1
 90
        2
176
     1
 62
     7
176
     1
 90
        3
176
     1
 90
        0
176
     1
 90
        0
176
     1
290
     0
176
     1
 90
       13
176
     1
 40
0.0
176
     1
 90
        0
176
     1
290
     0
176
     1
290
     1
176
     1
290
     1
176
     1
290
     0
176
     1
290
     0
176
     1
290
     0
176
     1
290
     0
176
     1
290
     0
176
     1
290
     0
176
     1
 90
       50
176
     1
 40
0.0
176
     1
 40
1.0
176
     1
 90
        0
176
     1
 62
    18
420
        0
176
     1
 90
       50
176
     1
 90
        3
176
     1
 62
     5
420
      255
176
     1
290
     0
176
     1
 90
       50
176
     1
 90
       50
176
     1
 90
       50
176
     1
290
     0
176
     1
 90
       50
176
     1
 62
   256
176
     0
 40
1.0
176
     0
 90
        2
176
     1
  1
strokes_ogs.tif
176
     1
290
     0
176
     1
 40
1.0
176
     1
 40
1.0
176
     1
  0
DICTIONARYVAR
  5
D7
102
{ACAD_REACTORS
330
D6
102
}
330
D6
100
DictionaryVariables
280
     0
  1
1:1
  0
DICTIONARYVAR
  5
DF
102
{ACAD_REACTORS
330
D6
102
}
330
D6
100
DictionaryVariables
280
     0
  1
3.500000
  0
DICTIONARYVAR
  5
E0
102
{ACAD_REACTORS
330
D6
102
}
330
D6
100
DictionaryVariables
280
     0
  1
acadiso.lin
  0
DICTIONARYVAR
  5
DC
102
{ACAD_REACTORS
330
D6
102
}
330
D6
100
DictionaryVariables
280
     0
  1
Standard
  0
DICTIONARYVAR
  5
DB
102
{ACAD_REACTORS
330
D6
102
}
330
D6
100
DictionaryVariables
280
     0
  1
Standard
  0
DICTIONARY
  5
D8
330
5A
100
AcDbDictionary
280
     1
281
     1
  3
ACAD_ROUNDTRIP_2008_TABLESTYLE_CELLSTYLEMAP
360
D9
  0
CELLSTYLEMAP
  5
D9
102
{ACAD_REACTORS
330
D8
102
}
330
D8
100
AcDbCellStyleMap
 90
        3
300
CELLSTYLE
  1
TABLEFORMAT_BEGIN
 90
        5
170
     1
 91
        0
 92
    32768
 62
   257
 93
        1
300
CONTENTFORMAT
  1
CONTENTFORMAT_BEGIN
 90
        0
 91
        0
 92
        4
 93
        0
300

 40
0.0
140
1.0
 94
        5
 62
     0
340
11
144
6.0
309
CONTENTFORMAT_END
171
     1
301
MARGIN
  1
CELLMARGIN_BEGIN
 40
1.5
 40
1.5
 40
1.5
 40
1.5
 40
1.5
 40
1.5
309
CELLMARGIN_END
 94
        6
 95
        1
302
GRIDFORMAT
  1
GRIDFORMAT_BEGIN
 90
        0
 91
        1
 62
     0
 92
       -2
340
14
 93
        0
 40
0.045
309
GRIDFORMAT_END
 95
        2
302
GRIDFORMAT
  1
GRIDFORMAT_BEGIN
 90
        0
 91
        1
 62
     0
 92
       -2
340
14
 93
        0
 40
0.045
309
GRIDFORMAT_END
 95
        4
302
GRIDFORMAT
  1
GRIDFORMAT_BEGIN
 90
        0
 91
        1
 62
     0
 92
       -2
340
14
 93
        0
 40
0.045
309
GRIDFORMAT_END
 95
        8
302
GRIDFORMAT
  1
GRIDFORMAT_BEGIN
 90
        0
 91
        1
 62
     0
 92
       -2
340
14
 93
        0
 40
0.045
309
GRIDFORMAT_END
 95
       16
302
GRIDFORMAT
  1
GRIDFORMAT_BEGIN
 90
        0
 91
        1
 62
     0
 92
       -2
340
14
 93
        0
 40
0.045
309
GRIDFORMAT_END
 95
       32
302
GRIDFORMAT
  1
GRIDFORMAT_BEGIN
 90
        0
 91
        1
 62
     0
 92
       -2
340
14
 93
        0
 40
0.045
309
GRIDFORMAT_END
309
TABLEFORMAT_END
  1
CELLSTYLE_BEGIN
 90
        1
 91
        1
300
_TITLE
309
CELLSTYLE_END
300
CELLSTYLE
  1
TABLEFORMAT_BEGIN
 90
        5
170
     1
 91
        0
 92
        0
 62
   257
 93
        1
300
CONTENTFORMAT
  1
CONTENTFORMAT_BEGIN
 90
        0
 91
        0
 92
        4
 93
        0
300

 40
0.0
140
1.0
 94
        5
 62
     0
340
11
144
4.5
309
CONTENTFORMAT_END
171
     1
301
MARGIN
  1
CELLMARGIN_BEGIN
 40
1.5
 40
1.5
 40
1.5
 40
1.5
 40
1.5
 40
1.5
309
CELLMARGIN_END
 94
        6
 95
        1
302
GRIDFORMAT
  1
GRIDFORMAT_BEGIN
 90
        0
 91
        1
 62
     0
 92
       -2
340
14
 93
        0
 40
0.045
309
GRIDFORMAT_END
 95
        2
302
GRIDFORMAT
  1
GRIDFORMAT_BEGIN
 90
        0
 91
        1
 62
     0
 92
       -2
340
14
 93
        0
 40
0.045
309
GRIDFORMAT_END
 95
        4
302
GRIDFORMAT
  1
GRIDFORMAT_BEGIN
 90
        0
 91
        1
 62
     0
 92
       -2
340
14
 93
        0
 40
0.045
309
GRIDFORMAT_END
 95
        8
302
GRIDFORMAT
  1
GRIDFORMAT_BEGIN
 90
        0
 91
        1
 62
     0
 92
       -2
340
14
 93
        0
 40
0.045
309
GRIDFORMAT_END
 95
       16
302
GRIDFORMAT
  1
GRIDFORMAT_BEGIN
 90
        0
 91
        1
 62
     0
 92
       -2
340
14
 93
        0
 40
0.045
309
GRIDFORMAT_END
 95
       32
302
GRIDFORMAT
  1
GRIDFORMAT_BEGIN
 90
        0
 91
        1
 62
     0
 92
       -2
340
14
 93
        0
 40
0.045
309
GRIDFORMAT_END
309
TABLEFORMAT_END
  1
CELLSTYLE_BEGIN
 90
        2
 91
        1
300
_HEADER
309
CELLSTYLE_END
300
CELLSTYLE
  1
TABLEFORMAT_BEGIN
 90
        5
170
     1
 91
        0
 92
        0
 62
   257
 93
        1
300
CONTENTFORMAT
  1
CONTENTFORMAT_BEGIN
 90
        0
 91
        0
 92
        4
 93
        0
300

 40
0.0
140
1.0
 94
        2
 62
     0
340
11
144
4.5
309
CONTENTFORMAT_END
171
     1
301
MARGIN
  1
CELLMARGIN_BEGIN
 40
1.5
 40
1.5
 40
1.5
 40
1.5
 40
1.5
 40
1.5
309
CELLMARGIN_END
 94
        6
 95
        1
302
GRIDFORMAT
  1
GRIDFORMAT_BEGIN
 90
        0
 91
        1
 62
     0
 92
       -2
340
14
 93
        0
 40
0.045
309
GRIDFORMAT_END
 95
        2
302
GRIDFORMAT
  1
GRIDFORMAT_BEGIN
 90
        0
 91
        1
 62
     0
 92
       -2
340
14
 93
        0
 40
0.045
309
GRIDFORMAT_END
 95
        4
302
GRIDFORMAT
  1
GRIDFORMAT_BEGIN
 90
        0
 91
        1
 62
     0
 92
       -2
340
14
 93
        0
 40
0.045
309
GRIDFORMAT_END
 95
        8
302
GRIDFORMAT
  1
GRIDFORMAT_BEGIN
 90
        0
 91
        1
 62
     0
 92
       -2
340
14
 93
        0
 40
0.045
309
GRIDFORMAT_END
 95
       16
302
GRIDFORMAT
  1
GRIDFORMAT_BEGIN
 90
        0
 91
        1
 62
     0
 92
       -2
340
14
 93
        0
 40
0.045
309
GRIDFORMAT_END
 95
       32
302
GRIDFORMAT
  1
GRIDFORMAT_BEGIN
 90
        0
 91
        1
 62
     0
 92
       -2
340
14
 93
        0
 40
0.045
309
GRIDFORMAT_END
309
TABLEFORMAT_END
  1
CELLSTYLE_BEGIN
 90
        3
 91
        2
300
_DATA
309
CELLSTYLE_END
  0
ENDSEC
  0
EOF
